SplineFontDB: 3.0
FontName: Neuton-CursiveItalic
FullName: Neuton Cursive Italic
FamilyName: Neuton
Weight: Cursive Italic
Copyright: Copyright (c) 2010, Brian M Zick (http://21326.info/),\nwith Reserved Font Name "Neuton".\n\nThis Font Software is licensed under the SIL Open Font License, Version 1.1.\nThis license is available with a FAQ at: http://scripts.sil.org/OFL
Version: 1.4
ItalicAngle: -7
UnderlinePosition: 0
UnderlineWidth: 0
Ascent: 1638
Descent: 410
LayerCount: 2
Layer: 0 0 "Back"  1
Layer: 1 0 "Fore"  0
NeedsXUIDChange: 1
OS2Version: 0
OS2_WeightWidthSlopeOnly: 0
OS2_UseTypoMetrics: 0
CreationTime: 1300403632
ModificationTime: 1307467136
PfmFamily: 0
TTFWeight: 400
TTFWidth: 5
LineGap: 0
VLineGap: 0
OS2TypoAscent: 0
OS2TypoAOffset: 1
OS2TypoDescent: 0
OS2TypoDOffset: 1
OS2TypoLinegap: 0
OS2WinAscent: 5063
OS2WinAOffset: 0
OS2WinDescent: -1325
OS2WinDOffset: 0
HheadAscent: 0
HheadAOffset: 1
HheadDescent: 0
HheadDOffset: 1
OS2Vendor: 'PfEd'
MarkAttachClasses: 1
DEI: 91125
LangName: 1033 "" "" "" "" "" "" "" "" "" "Brian M Zick" "" "" "http://21326.info/" 
Encoding: UnicodeBmp
Compacted: 1
UnicodeInterp: none
NameList: Adobe Glyph List
DisplaySize: -96
AntiAlias: 1
FitToEm: 1
WinInfo: 40 8 2
BeginPrivate: 2
BlueValues 37 [-70 0 1770 1821 2142 2269 2505 2565]
OtherBlues 11 [-765 -736]
EndPrivate
BeginChars: 65538 365

StartChar: A
Encoding: 65 65 0
Width: 1221
VWidth: 0
Flags: W
HStem: 0 71<637 711.698 1173.61 1192> 429 63<778.861 884>
DStem2: 515 789 581 728 0.279234 0.960223<-243.97 310.816> 827 1277 682 1065 0.179718 -0.983718<182.489 784.799>
LayerCount: 2
Fore
SplineSet
884 429 m 1
 439 448 l 1
 452 546 l 1
 897 492 l 1
 884 429 l 1
646 1246 m 1
 827 1277 l 1
 1036 133 l 1
 1215 81 l 1
 1192 0 l 1
 614 0 l 1
 637 71 l 1
 835 109 l 1
 682 1065 l 1
 679 1065 l 1
 581 728 l 2
 558 653 538 580 512 507 c 0
 470 384 425 260 362 146 c 0
 339 107 317 71 286 39 c 0
 255 7 216 -16 174 -24 c 0
 129 -32 81 -23 42 5 c 0
 10 28 -18 62 -31 101 c 1
 16 119 62 141 104 169 c 0
 179 218 242 281 296 351 c 0
 397 483 460 635 515 789 c 0
 547 883 575 976 601 1070 c 0
 617 1128 633 1188 646 1246 c 1
1101 8 m 1
 1101 8 l 1
611 1252 m 1
 611 1252 l 1
1101 8 m 1
 1101 8 l 1
611 1252 m 1
 611 1252 l 1
1100 16 m 0
747 1252 m 0
EndSplineSet
EndChar

StartChar: A.alt
Encoding: 65536 -1 1
Width: 1364
VWidth: 0
Flags: W
HStem: 0 71<780 854.698 1316.61 1335> 429 63<922.719 1027>
DStem2: 970 1277 825 1065 0.179718 -0.983718<182.489 784.619>
LayerCount: 2
Fore
SplineSet
1027 429 m 1
 588 448 l 1
 601 546 l 1
 1039 492 l 1
 1027 429 l 1
789 1246 m 1
 970 1277 l 1
 1179 133 l 1
 1358 81 l 1
 1335 0 l 1
 757 0 l 1
 780 71 l 1
 978 109 l 1
 825 1065 l 1
 822 1065 l 1
 790 948 754 832 715 718 c 0
 676 608 635 494 590 387 c 0
 548 286 498 187 427 104 c 0
 398 72 367 42 331 19 c 0
 295 -4 253 -17 211 -19 c 0
 153 -21 94 3 55 45 c 0
 29 74 11 115 8 154 c 1
 53 162 101 176 146 192 c 0
 230 221 309 267 377 325 c 0
 445 385 500 461 542 541 c 0
 584 621 618 705 650 789 c 0
 686 883 717 976 746 1070 c 0
 762 1128 776 1188 789 1246 c 1
1228 8 m 1
 1228 8 l 1
682 1252 m 1
 682 1252 l 1
1228 8 m 1
 1228 8 l 1
682 1252 m 1
 682 1252 l 1
1228 16 m 0
682 1252 m 0
EndSplineSet
EndChar

StartChar: AE
Encoding: 198 198 2
Width: 1541
VWidth: 0
Flags: W
HStem: -3 83<515 572.083> 3 426<545.352 822.958 1321.61 1385.3> 559 141<1003.13 1228.97>
VStem: 702 173<815.405 1067> 1283 88<872 936.638>
DStem2: 534 789 601 729 0.267938 0.963436<-243.498 310.973>
LayerCount: 2
Fore
SplineSet
471 546 m 1x78
 456 448 l 1
 820 429 l 1
 833 492 l 1
 471 546 l 1x78
1420 432 m 1
 1332 435 l 1
 1319 357 1261 188 1217 133 c 1
 1175 125 1090 117 1014 109 c 2
 927 99 l 1
 900 580 l 1
 1225 559 l 1
 1264 700 l 1
 895 684 l 1
 875 1148 l 1
 908 1147 l 1
 979 1145 1062 1145 1197 1132 c 1
 1226 1129 l 1
 1283 872 l 1
 1371 866 l 1
 1410 1285 l 1
 664 1246 l 1
 653 1188 640 1128 622 1070 c 1
 596 976 566 883 534 789 c 0
 479 635 414 483 315 351 c 0
 261 281 196 216 123 169 c 0
 81 141 36 119 -11 101 c 1
 2 62 28 29 60 5 c 0
 99 -23 148 -32 193 -24 c 0
 235 -16 274 9 305 41 c 0
 336 72 359 109 382 146 c 1
 445 260 487 384 531 507 c 0
 557 580 580 654 601 729 c 2
 695 1067 l 1
 702 1067 l 1
 734 135 l 1
 515 80 l 1
 492 -3 l 1xb8
 492 -3 638 3 747 3 c 0
 857 3 1364 0 1366 0 c 0
 1416 102 1436 259 1421 426 c 1
 1420 432 l 1
772 1252 m 0
EndSplineSet
EndChar

StartChar: B
Encoding: 66 66 13
Width: 1146
VWidth: 0
Flags: W
HStem: 0 91<430.048 826.751> 0 75<29 83.9981> 598 84<474 765.412> 1082 78<166 314.692> 1181 84<563.504 808.301>
VStem: 934 187<845.801 1068.24> 942 195<205.798 454.736>
LayerCount: 2
Fore
SplineSet
8 0 m 1x7a
 29 75 l 1
 240 130 l 1
 370 1065 l 1
 146 1082 l 1
 166 1160 l 1
 249 1183 333 1204 417 1223 c 0
 518 1246 624 1265 728 1265 c 0
 829 1265 933 1247 1014 1189 c 0
 1045 1166 1071 1136 1090 1104 c 0
 1109 1072 1121 1035 1121 996 c 0x7c
 1123 944 1104 893 1078 848 c 0
 1049 801 1011 760 966 728 c 0
 927 699 880 680 833 669 c 1
 833 663 l 1
 859 660 884 651 910 643 c 0
 949 630 988 612 1020 586 c 0
 1059 557 1090 519 1113 474 c 0
 1136 429 1142 379 1137 330 c 0
 1131 265 1097 201 1052 156 c 0
 1007 111 949 75 887 52 c 0
 827 29 763 12 698 6 c 0
 605 -4 515 0 421 0 c 2
 8 0 l 1x7a
474 682 m 1
 516 680 556 676 598 676 c 0
 652 676 705 677 757 692 c 0
 802 705 845 734 877 770 c 0
 909 806 929 851 934 900 c 0xbc
 937 939 932 978 919 1014 c 0
 906 1050 882 1083 853 1109 c 0
 801 1154 732 1176 664 1181 c 0
 632 1184 594 1182 562 1179 c 1
 427 101 l 1
 492 93 559 89 624 91 c 0
 700 93 778 103 843 145 c 0
 875 168 904 195 923 231 c 0
 942 267 947 309 942 348 c 0xba
 936 403 906 452 867 491 c 0
 825 533 768 560 710 575 c 0
 668 585 627 590 585 593 c 0
 544 596 503 598 461 598 c 1
 474 682 l 1
EndSplineSet
EndChar

StartChar: C
Encoding: 67 67 14
Width: 956
VWidth: 0
Flags: W
VStem: 10 221<320.102 760.117>
LayerCount: 2
Fore
SplineSet
728 908 m 0
 730 940 727 973 721 1004 c 0
 715 1035 702 1062 679 1085 c 0
 663 1104 640 1117 617 1127 c 0
 594 1137 570 1140 544 1140 c 0
 495 1138 445 1120 406 1091 c 0
 364 1062 331 1020 307 975 c 0
 253 874 237 757 231 643 c 0
 228 591 227 539 232 487 c 0
 237 435 249 384 268 335 c 0
 287 286 315 239 354 203 c 0
 393 167 439 140 491 130 c 0
 543 120 597 124 646 143 c 0
 701 164 750 200 789 242 c 0
 810 265 829 286 845 312 c 1
 887 249 l 1
 871 210 849 175 823 143 c 0
 765 72 684 16 596 -10 c 0
 513 -36 424 -35 341 -11 c 0
 258 15 182 63 127 130 c 0
 52 221 15 339 10 456 c 0
 4 628 52 804 140 953 c 0
 192 1039 258 1117 341 1174 c 0
 399 1213 468 1243 538 1254 c 0
 608 1265 680 1261 747 1238 c 0
 822 1212 888 1158 924 1088 c 0
 943 1052 951 1014 949 975 c 0
 947 936 934 898 910 866 c 0
 887 837 858 816 822 806 c 0
 786 796 751 795 715 806 c 1
 721 838 726 872 728 908 c 0
479 0 m 1
 479 0 l 1
479 1252 m 1
 479 1252 l 1
479 0 m 1
 479 0 l 1
479 1252 m 1
 479 1252 l 1
544 0 m 0
607 1265 m 0
EndSplineSet
EndChar

StartChar: D
Encoding: 68 68 19
Width: 1395
VWidth: 0
Flags: W
HStem: 0 107<435 785.103> 0 76<28 83.4856> 1088 73<169 281.977> 1181 73<565.37 829.991>
DStem2: 221.038 0 421.862 0 0.121869 0.992546<132.278 1081.55>
LayerCount: 2
Fore
SplineSet
564 1176 m 1xb0
 435 107 l 1
 490 107 543 109 598 114 c 0
 718 125 838 152 942 214 c 0
 1033 269 1109 355 1148 452 c 0
 1187 551 1195 661 1176 765 c 0
 1168 814 1153 863 1130 908 c 0
 1107 953 1079 996 1043 1030 c 0
 988 1082 917 1114 846 1140 c 0
 781 1163 711 1179 643 1181 c 0
 617 1181 590 1179 564 1176 c 1xb0
8 0 m 1x70
 28 76 l 1
 237 130 l 1
 365 1072 l 1
 148 1088 l 1
 169 1161 l 1
 257 1193 348 1216 442 1231 c 0
 567 1250 693 1259 820 1254 c 0
 891 1251 963 1244 1033 1225 c 0
 1103 1206 1170 1175 1225 1130 c 0
 1288 1078 1335 1007 1361 929 c 0
 1387 851 1394 765 1384 684 c 0
 1371 561 1323 442 1252 341 c 0
 1168 224 1044 135 908 80 c 0
 837 51 762 30 687 19 c 0
 573 0 455 0 338 0 c 2
 8 0 l 1x70
698 627 m 1
 698 627 l 1
698 1252 m 1
 698 1252 l 1
698 627 m 1
 698 627 l 1
698 1252 m 1
 698 1252 l 1
822 627 m 0
892 1252 m 0
EndSplineSet
EndChar

StartChar: E
Encoding: 69 69 22
Width: 1210
VWidth: 0
Flags: W
HStem: -3 83<31 88.0833> 3 94<442 628.766> 572 144<780.729 939> 1121 76<167 289.49> 1163 94<734.733 1005.42>
VStem: 1035 86<851 911.096>
DStem2: 233.056 -3 429.722 -3 0.121869 0.992546<139.036 611.674 714.498 1110.09>
LayerCount: 2
Fore
SplineSet
442 3 m 0x6c
 332 3 8 -3 8 -3 c 1
 31 80 l 1
 250 135 l 1
 375 1098 l 1
 148 1121 l 1
 167 1197 l 1xb4
 297 1223 624 1257 903 1257 c 0
 929 1257 952 1256 978 1256 c 2
 1202 1251 l 1
 1121 838 l 1
 1035 851 l 1
 1004 1163 l 1
 572 1140 l 1
 517 682 l 1
 973 716 l 1
 939 572 l 1
 504 580 l 1
 442 97 l 1
 911 133 l 1
 1052 453 l 1
 1140 442 l 1
 1078 0 l 1
 1078 0 552 3 442 3 c 0x6c
802 1252 m 0
606 0 m 0
EndSplineSet
EndChar

StartChar: Eng
Encoding: 330 330 30
Width: 1466
VWidth: 0
Flags: W
HStem: 1130 77<151 191.131 957 1085.33> 1171 76<1439.04 1493>
VStem: 352 104<615.664 1005>
DStem2: 650 1083 461 1005 0.471961 -0.88162<-20.4343 919.477>
LayerCount: 2
Fore
SplineSet
929 1126 m 1xa0
 1158 1109 l 1
 1087 274 l 1
 650 1083 l 1
 562 1252 l 1
 513 1250 463 1249 413 1244 c 0
 325 1238 237 1225 151 1207 c 1
 130 1130 l 1xa0
 356 1077 l 1
 356 1009 354 939 352 871 c 0
 349 739 341 607 309 479 c 1
 286 396 254 314 200 247 c 0
 169 210 134 175 93 149 c 0
 67 131 39 117 10 104 c 1
 13 86 20 68 28 52 c 0
 41 28 58 10 81 -5 c 0
 102 -20 128 -27 154 -29 c 0
 190 -31 224 -19 255 0 c 0
 284 19 309 43 330 71 c 0
 374 129 401 200 416 271 c 0
 431 342 434 416 437 489 c 2
 456 1005 l 1
 461 1005 l 1
 1014 -28 l 1
 1009 -82 1004 -125 999 -148 c 0
 997 -158 995 -167 992 -175 c 0
 989 -183 984 -194 978 -200 c 0
 972 -206 963 -213 955 -216 c 0
 947 -221 937 -222 927 -224 c 0
 908 -227 887 -226 866 -223 c 0
 832 -217 799 -201 770 -182 c 0
 747 -167 726 -149 705 -130 c 1
 687 -146 673 -167 663 -188 c 0
 655 -204 648 -221 646 -240 c 0
 644 -258 649 -278 655 -294 c 0
 665 -322 684 -342 708 -357 c 0
 734 -372 762 -378 791 -380 c 0
 827 -382 863 -375 897 -364 c 0
 934 -353 969 -333 1001 -312 c 1
 1029 -291 1052 -268 1075 -240 c 0
 1112 -193 1139 -133 1155 -73 c 1
 1171 -21 1182 67 1286 1116 c 1
 1493 1171 l 1
 1514 1247 l 1
 1418 1255 1322 1255 1225 1247 c 0x60
 1136 1241 1046 1226 957 1207 c 1
 929 1126 l 1xa0
EndSplineSet
EndChar

StartChar: Eth
Encoding: 208 208 32
Width: 1305
VWidth: 0
Flags: W
HStem: 0 76<28 83.4856> 0 107<435 785.103> 538 99<154 457.728> 564 99<423.169 726> 1088 73<169 281.977> 1181 73<565.37 829.991>
DStem2: 221.038 0 421.862 0 0.121869 0.992546<132.278 1081.55>
LayerCount: 2
Fore
SplineSet
154 637 m 1x2c
 128 538 l 1x2c
 726 564 l 1
 754 663 l 1x1c
 154 637 l 1x2c
EndSplineSet
Refer: 19 68 N 1 0 0 1 0 0 2
EndChar

StartChar: Euro
Encoding: 8364 8364 33
Width: 1093
VWidth: 0
Flags: W
HStem: -24 107<498.385 807.561> 478 103<47 117 336 788> 650 104<75 135 361 854> 1155 94<579.081 897.562>
VStem: 123 220<250.457 478 581 648.922> 162 199<754 858.193> 923 87<340.782 387> 962 84<836 889.026>
LayerCount: 2
Fore
SplineSet
856 171 m 1xf8
 923 387 l 1
 1010 400 l 1
 1005 109 l 1
 870 12 762 -24 601 -24 c 0
 327 -24 115 152 117 478 c 1
 16 478 l 1
 47 581 l 1
 123 581 l 1xfa
 126 604 130 627 135 650 c 1
 44 650 l 1
 75 754 l 1
 162 754 l 1
 243 1003 442 1249 806 1249 c 0
 936 1249 1031 1221 1117 1150 c 1
 1046 823 l 1
 962 836 l 1
 947 1052 l 1
 910 1110 864 1155 737 1155 c 0
 557 1155 418 1007 361 754 c 1xf5
 897 754 l 1
 854 650 l 1
 343 650 l 1
 343 648 l 1
 340 625 336 602 336 581 c 1
 830 581 l 1
 788 478 l 1
 335 478 l 1
 343 218 468 83 663 83 c 0
 725 83 801 106 856 171 c 1xf8
EndSplineSet
EndChar

StartChar: F
Encoding: 70 70 34
Width: 1210
VWidth: 0
Flags: W
HStem: -2 82<31 88.0833 578.533 679> 521 151<767.816 939> 539 101<515 720.184> 1121 76<167 289.49> 1171 86<800.458 998.28>
VStem: 1027 94<835 897.928>
DStem2: 233.179 -2 434.248 -2 0.121869 0.992546<138.029 569.729 671.56 1109.08>
LayerCount: 2
Fore
SplineSet
679 -2 m 1xa4
 8 -2 l 1
 31 80 l 1
 250 135 l 1
 375 1098 l 1
 148 1121 l 1
 167 1197 l 1xb4
 297 1223 624 1257 903 1257 c 0
 929 1257 952 1256 978 1256 c 2
 1202 1251 l 1
 1121 822 l 1
 1027 835 l 1
 997 1171 l 1
 572 1140 l 5
 515 640 l 1xac
 973 672 l 1
 939 521 l 1xc4
 502 539 l 1
 448 110 l 1
 698 80 l 1
 679 -2 l 1xa4
EndSplineSet
EndChar

StartChar: G
Encoding: 71 71 35
Width: 1244
VWidth: 0
Flags: W
HStem: -32 108<475.213 845.712> 476 83<677 695.728 1192.4 1217> 1169 101<507.387 933.701>
VStem: 8 229<334.92 779.894> 1023 88<845 902.964>
DStem2: 831.968 -32 1028.27 -32 0.121869 0.992546<125.019 474.318>
LayerCount: 2
Fore
SplineSet
1178 1171 m 1
 1111 830 l 1
 1023 845 l 1
 1012 1070 l 1
 965 1117 879 1169 697 1169 c 0
 470 1169 237 1020 237 604 c 0
 237 585 237 565 237 542 c 0
 250 292 388 76 661 76 c 0
 765 76 823 100 851 123 c 1
 888 439 l 1
 656 476 l 1
 677 559 l 1
 1238 559 l 1
 1217 484 l 1
 1085 442 l 1
 1043 88 l 1
 933 15 749 -32 526 -32 c 0
 180 -32 23 201 10 469 c 0
 10 485 8 501 8 517 c 0
 8 991 396 1270 760 1270 c 0
 955 1270 1084 1238 1178 1171 c 1
624 0 m 1
 624 0 l 1
624 0 m 1
 624 0 l 1
624 1252 m 1
 624 1252 l 1
622 0 m 0
851 1252 m 0
EndSplineSet
EndChar

StartChar: Germandbls
Encoding: 7838 7838 39
Width: 1369
VWidth: 0
Flags: W
HStem: -2 82<31 88.0833>
DStem2: 226.732 -54.5062 412.553 -54.5062 0.121869 0.992546<190.929 1086.02> 958 750 783 656 0.70224 -0.71194<-167.502 463.074>
LayerCount: 2
Fore
SplineSet
1134 1236 m 0
 1183 1223 1231 1200 1270 1168 c 0
 1302 1139 1330 1103 1345 1062 c 0
 1360 1023 1361 980 1351 939 c 0
 1341 898 1316 859 1280 836 c 0
 1256 820 1229 812 1200 812 c 0
 1171 812 1143 820 1117 833 c 1
 1132 872 1144 915 1150 957 c 0
 1156 999 1163 1044 1147 1085 c 0
 1141 1106 1125 1125 1109 1140 c 0
 1093 1153 1074 1166 1051 1169 c 0
 1028 1172 1005 1169 984 1161 c 0
 961 1153 945 1139 929 1121 c 0
 898 1089 879 1042 871 997 c 0
 865 965 865 935 871 903 c 0
 876 871 885 838 903 812 c 0
 918 789 939 769 958 750 c 0
 1029 677 1108 613 1179 538 c 0
 1211 506 1241 469 1265 430 c 0
 1288 391 1306 347 1311 302 c 0
 1314 263 1312 225 1299 188 c 0
 1288 152 1269 117 1243 88 c 0
 1193 30 1121 -9 1046 -32 c 0
 945 -61 838 -63 737 -32 c 1
 666 -8 596 36 557 101 c 0
 544 124 532 149 529 175 c 0
 526 201 530 227 538 253 c 0
 546 279 559 303 578 322 c 0
 596 341 616 354 640 364 c 0
 685 383 739 385 786 370 c 1
 775 338 765 306 760 274 c 0
 754 232 754 184 773 145 c 0
 783 121 802 99 823 83 c 0
 846 67 871 57 897 52 c 0
 946 42 1001 49 1043 78 c 0
 1071 97 1093 122 1106 153 c 0
 1119 182 1122 218 1117 250 c 0
 1111 289 1094 329 1070 361 c 0
 1047 393 1020 420 991 448 c 0
 920 516 848 581 783 656 c 0
 754 690 724 726 705 767 c 0
 686 808 677 852 679 897 c 0
 681 942 694 986 715 1025 c 0
 752 1095 815 1150 888 1181 c 1
 888 1189 l 1
 851 1191 812 1186 776 1176 c 0
 731 1163 689 1142 653 1113 c 0
 598 1068 561 1004 542 936 c 0
 532 905 528 873 525 841 c 2
 419 -2 l 1
 8 -2 l 1
 31 80 l 1
 250 135 l 1
 331 775 l 2
 337 819 343 864 354 906 c 0
 365 948 384 990 408 1027 c 0
 455 1102 530 1156 611 1192 c 0
 686 1224 763 1241 843 1251 c 0
 940 1262 1040 1262 1134 1236 c 0
EndSplineSet
EndChar

StartChar: H
Encoding: 72 72 40
Width: 1573
VWidth: 0
Flags: W
HStem: 0 78<26 87.7551 548.693 629 806 894.405 1377.83 1416> 568 113<478 726.216> 1127 77<166 248.144 942 1149.78> 1169 75<639.673 770 1493.78 1546>
LayerCount: 2
Fore
SplineSet
478 681 m 1xc0
 1143 705 l 1
 1127 604 l 1
 461 568 l 1
 478 681 l 1xc0
1900 1394 m 1
 1900 1394 l 1
629 0 m 1
 8 0 l 1
 26 78 l 1
 250 130 l 1
 374 1095 l 1
 146 1127 l 1
 166 1204 l 1xe0
 260 1223 355 1238 452 1244 c 0
 562 1252 679 1250 789 1244 c 1
 770 1169 l 1xd0
 570 1147 l 1
 442 107 l 1
 653 81 l 1
 629 0 l 1
1153 1117 m 1
 923 1126 l 1
 942 1202 l 1
 1046 1223 1153 1238 1260 1244 c 0
 1361 1250 1465 1250 1566 1244 c 1xd0
 1546 1168 l 1
 1342 1113 l 1
 1225 130 l 1
 1436 81 l 1
 1416 0 l 1
 786 0 l 1
 806 78 l 1
 1028 114 l 1
 1153 1117 l 1
788 627 m 1
 788 627 l 1
788 1252 m 1
 788 1252 l 1
788 627 m 1
 788 627 l 1
788 1252 m 1
 788 1252 l 1
788 627 m 0
910 1252 m 0
EndSplineSet
EndChar

StartChar: Hbar
Encoding: 294 294 41
Width: 1573
VWidth: 0
Flags: W
HStem: 0 78<26 87.7551 548.693 629 806 894.405 1377.83 1416> 568 113<478 726.216> 1127 77<166 248.144 942 1149.78> 1169 75<639.673 770 1493.78 1546>
LayerCount: 2
Fore
SplineSet
252 942 m 1xc0
 1408 996 l 1
 1394 916 l 1
 236 851 l 1
 252 942 l 1xc0
EndSplineSet
Refer: 40 72 N 1 0 0 1 0 0 2
EndChar

StartChar: I
Encoding: 73 73 42
Width: 795
VWidth: 0
Flags: W
HStem: 0 78<26 87.7551 552.738 637> 1127 77<166 248.144>
DStem2: 234.038 0 428.862 0 0.121869 0.992546<131.547 1103.9>
LayerCount: 2
Fore
SplineSet
637 0 m 5
 8 0 l 5
 26 78 l 5
 250 130 l 5
 374 1095 l 5
 146 1127 l 5
 166 1204 l 5
 260 1223 355 1238 452 1244 c 4
 512 1247 572 1251 632 1251 c 4
 684 1251 737 1247 789 1244 c 5
 770 1169 l 5
 570 1147 l 5
 442 107 l 5
 661 81 l 5
 637 0 l 5
718 8 m 5
 718 8 l 5
398 1252 m 5
 398 1252 l 5
718 8 m 5
 718 8 l 5
398 1252 m 5
 398 1252 l 5
559 16 m 4
513 1247 m 4
EndSplineSet
EndChar

StartChar: J
Encoding: 74 74 51
Width: 966
VWidth: 0
Flags: W
HStem: 1121 78<338 429.52> 1171 76<824.923 942>
DStem2: 377.735 -376.141 556.298 -376.141 0.121869 0.992546<344.626 1476.83>
LayerCount: 2
Fore
SplineSet
268 -367 m 0x40
 239 -375 207 -378 175 -375 c 0
 143 -372 114 -361 88 -343 c 0
 59 -324 36 -292 23 -260 c 0
 4 -213 7 -159 26 -114 c 1
 83 -140 139 -159 201 -164 c 0
 243 -167 291 -163 328 -140 c 0
 351 -127 367 -110 380 -89 c 0
 393 -68 407 -45 413 -21 c 0
 445 83 445 195 461 302 c 1
 467 399 478 495 489 591 c 2
 547 1091 l 1
 322 1121 l 1
 338 1199 l 1x80
 448 1225 563 1241 677 1247 c 0
 771 1253 868 1253 962 1247 c 1
 942 1171 l 1
 746 1147 l 1
 650 387 l 2
 631 244 609 99 557 -37 c 0
 529 -108 497 -177 448 -237 c 0
 403 -295 339 -344 268 -367 c 0x40
484 1252 m 1
 484 1252 l 1
484 1252 m 1
 484 1252 l 1
677 1247 m 0x40
EndSplineSet
EndChar

StartChar: K
Encoding: 75 75 52
Width: 1330
VWidth: 0
Flags: HW
HStem: -15 109<1187.32 1244.44> 0 78<-24 37.7551 497.682 577> 1050.43 209.506<990.475 1151.81> 1127 77<116 198.144> 1169 75<575.738 680>
DStem2: 182.196 -15 377.02 -15 0.121869 0.992546<146.659 1119.01> 632 662 485 566 0.618706 -0.785623<-8.68547 706.92>
LayerCount: 2
Fore
SplineSet
910 309 m 2xa0
 632 662 l 1
 726 816 895 1082 1201.02 1050.43 c 1
 1240 1151 1208.07 1259.94 1090.79 1259.94 c 0
 946 1259.94 693 911 488 590 c 1
 485 566 l 1
 523.344 528.532 551.014 479.59 588.003 426 c 2
 759 193.244 l 2
 846 75 954.812 -15 1095 -15 c 0
 1165 -15 1204 5 1251 34 c 1
 1259 94 l 1
 1179 110 l 2
 1072 131 1010.7 184.756 910 309 c 2xa0
577 0 m 1x48
 -42 0 l 1
 -24 78 l 1
 200 130 l 1
 324 1095 l 1
 96 1127 l 1
 116 1204 l 1x50
 295.648 1240.31 494.076 1255.82 699 1244 c 1
 680 1169 l 1
 520 1147 l 1
 392 107 l 1
 601 81 l 1
 577 0 l 1x48
509 16 m 0
734 0 m 0
EndSplineSet
Colour: ffff00
EndChar

StartChar: L
Encoding: 76 76 54
Width: 1148
VWidth: 0
Flags: W
HStem: -3 83<31 88.0833> 0 101<600.505 897> 3 120<442 738.495> 1121 76<167 289.49> 1137 114<575 729.579>
DStem2: 233.056 -3 426.529 -3 0.121869 0.992546<150.525 1110.09>
LayerCount: 2
Fore
SplineSet
167 1197 m 1x10
 148 1121 l 1
 375 1098 l 1
 250 135 l 1
 31 80 l 1
 8 -3 l 1x90
 8 -3 332 3 442 3 c 0x20
 552 3 1078 0 1078 0 c 1
 1140 458 l 1
 1048 471 l 1
 897 101 l 1x40
 442 123 l 1
 575 1137 l 1
 823 1160 l 1
 836 1241 l 1
 745 1244 701 1251 607 1251 c 0x28
 461 1251 281 1231 167 1197 c 1x10
575 0 m 0x40
463 1251 m 0x08
EndSplineSet
EndChar

StartChar: Lslash
Encoding: 321 321 58
Width: 1148
VWidth: 0
Flags: W
HStem: -3 83<31 88.0833> 0 101<600.505 897> 3 120<442 738.495> 1121 76<167 289.49> 1137 114<575 729.579>
DStem2: 99 555 112 448 0.912942 0.408089<0 680.466> 233.056 -3 426.529 -3 0.121869 0.992546<150.525 1110.09>
LayerCount: 2
Fore
SplineSet
112 448 m 1x00
 763 737 l 1
 750 846 l 1
 99 555 l 1
 112 448 l 1x00
EndSplineSet
Refer: 54 76 N 1 0 0 1 0 0 2
EndChar

StartChar: M
Encoding: 77 77 59
Width: 1708
VWidth: 0
Flags: W
HStem: -29 164<1296 1450.93> 1129 76<133 170.53> 1163 78<1626.27 1679>
VStem: 335 104<633.414 1004> 1182 205<140.142 516.781>
DStem2: 630 1059 442 1004 0.241596 -0.970377<7.9507 738.515> 815 344 875 146 0.479954 0.877293<0 715.623> 1205 344 1390 287 0.0877871 0.996139<-185.965 664.738>
LayerCount: 2
Fore
SplineSet
338 1075 m 1xb8
 110 1129 l 1
 133 1205 l 1xd8
 219 1221 305 1235 393 1243 c 0
 453 1248 513 1250 575 1252 c 1
 630 1059 l 1
 815 344 l 1
 1210 1072 l 1
 1303 1236 l 1
 1342 1242 1384 1244 1423 1247 c 0
 1517 1253 1608 1252 1702 1241 c 1
 1679 1163 l 1
 1462 1104 l 1
 1390 287 l 2
 1388 268 1387 246 1387 227 c 0
 1387 208 1384 185 1387 166 c 0
 1387 161 1390 154 1392 151 c 0
 1394 148 1397 143 1400 140 c 0
 1405 137 1412 135 1418 135 c 0
 1424 135 1430 136 1436 138 c 0
 1462 146 1480 166 1498 185 c 0
 1524 214 1548 247 1572 279 c 1
 1621 245 l 1
 1608 198 1588 153 1559 114 c 0
 1530 75 1489 39 1447 13 c 0
 1405 -13 1353 -27 1304 -29 c 0
 1288 -29 1270 -29 1254 -26 c 0
 1238 -21 1223 -13 1212 -2 c 0
 1197 13 1187 35 1184 54 c 0
 1181 73 1180 94 1182 115 c 0
 1185 191 1195 268 1205 344 c 2
 1288 1004 l 1
 1213 825 1135 649 1051 474 c 0
 997 364 940 250 875 146 c 0
 856 114 835 84 812 52 c 1
 684 32 l 1
 442 1004 l 1
 439 1004 l 1
 419 487 l 2
 416 416 414 346 403 276 c 0
 392 206 370 138 331 78 c 0
 312 49 293 22 265 3 c 0
 237 -16 201 -31 169 -31 c 0
 143 -31 117 -24 94 -11 c 0
 71 2 52 19 37 42 c 0
 27 58 18 75 13 94 c 1
 42 107 71 124 97 143 c 0
 136 172 172 206 200 245 c 0
 244 310 268 386 284 461 c 0
 313 594 329 731 335 867 c 0
 338 935 338 1007 338 1075 c 1xb8
EndSplineSet
EndChar

StartChar: N
Encoding: 78 78 60
Width: 1513
VWidth: 0
Flags: W
HStem: 1129 76<149 187.999 949 1091.71> 1168 76<1432.31 1486>
VStem: 351 104<633.414 1004>
DStem2: 648 1082 458 1004 0.473897 -0.88058<-21.3551 918.602> 1085 274 1176 2 0.0932019 0.995647<0 837.983>
LayerCount: 2
Fore
SplineSet
1015 -31 m 1xa0
 1176 2 l 1
 1280 1113 l 1
 1486 1168 l 1
 1507 1244 l 1
 1410 1250 1315 1250 1218 1244 c 0x60
 1127 1238 1037 1221 949 1202 c 1
 929 1126 l 1
 1156 1109 l 1
 1085 274 l 1
 648 1082 l 1
 560 1251 l 1
 511 1249 460 1246 411 1243 c 0
 323 1237 235 1223 149 1205 c 1
 128 1129 l 1
 354 1075 l 1
 354 1007 353 935 351 867 c 0
 348 735 337 605 305 478 c 0
 282 395 253 312 198 244 c 0
 169 207 130 172 91 146 c 0
 65 128 37 115 8 102 c 1
 11 83 18 65 26 49 c 0
 39 26 55 7 78 -6 c 0
 101 -21 127 -29 153 -31 c 0
 189 -33 224 -21 253 -2 c 0
 282 17 305 41 328 70 c 0
 370 128 399 199 414 270 c 0
 429 341 432 414 435 487 c 2
 455 1004 l 1
 458 1004 l 1
 1015 -31 l 1xa0
757 0 m 1
 757 0 l 1
757 1252 m 1
 757 1252 l 1
757 0 m 1
 757 0 l 1
757 1252 m 1
 757 1252 l 1
757 0 m 0
833 1252 m 0
EndSplineSet
EndChar

StartChar: O
Encoding: 79 79 65
Width: 1084
VWidth: 0
Flags: W
HStem: -28 148<410.29 665.951> 1134 146<423.199 673.36>
VStem: 8 210<369.216 789.04> 871 207<482.047 885.453>
LayerCount: 2
Fore
SplineSet
520 1134 m 0
 314 1134 218 887 218 653 c 0
 218 346 344 120 542 120 c 0
 734 120 871 325 871 627 c 0
 871 897 751 1134 520 1134 c 0
1078 747 m 1
 1075 406 852 -28 465 -28 c 0
 179 -28 8 231 8 507 c 0
 8 916 263 1280 633 1280 c 0
 935 1280 1078 996 1078 752 c 2
 1078 747 l 1
542 1252 m 1
 542 1252 l 1
542 1252 m 1
 542 1252 l 1
617 1252 m 0
EndSplineSet
EndChar

StartChar: OE
Encoding: 338 338 66
Width: 1570
VWidth: 0
Flags: W
HStem: -28 148<439.72 650.281> 3 96<859 1258.03> 1134 146<452.567 752.138> 1148 109<989 1354.52>
VStem: 37 208<369.216 789.04> 1384 88<853 910.204> 1403 86<340.469 442>
LayerCount: 2
Fore
SplineSet
825 960 m 0xa8
 767 1066 674 1134 549 1134 c 0
 343 1134 245 887 245 653 c 0
 245 346 374 120 572 120 c 0
 656 120 731 161 788 232 c 0
 858 323 874 871 825 960 c 0xa8
940 1152 m 0
 940 981 870 406 838 123 c 0
 835 99 807 84 791 71 c 0
 707 9 608 -28 494 -28 c 0
 210 -28 37 231 37 507 c 0
 37 916 293 1280 663 1280 c 0
 760 1280 841 1251 906 1202 c 0
 919 1192 940 1176 940 1152 c 0
651 0 m 1
 804 1228 l 1
 955 1243 1080 1257 1252 1257 c 0
 1278 1257 1303 1257 1329 1257 c 2
 1554 1251 l 1
 1472 838 l 1
 1384 853 l 1x5c
 1355 1114 l 1
 1324 1121 l 1
 1192 1147 1092 1148 1022 1148 c 2
 989 1148 l 1
 932 684 l 1
 1322 700 l 1
 1288 557 l 1
 919 580 l 1
 859 99 l 1
 1075 109 l 2
 1171 114 1218 123 1260 133 c 1
 1304 203 1382 377 1403 453 c 1
 1489 442 l 1
 1489 435 l 2
 1489 268 1461 89 1411 0 c 1
 1411 0 968 3 858 3 c 0x5a
 811 3 734 2 651 0 c 1
786 1252 m 0
EndSplineSet
EndChar

StartChar: Oslash
Encoding: 216 216 74
Width: 1300
VWidth: 0
Flags: W
HStem: -28 148<410.29 665.951> 1134 146<423.199 673.36>
VStem: 8 210<369.216 789.04> 871 207<482.047 885.453>
DStem2: 84 -81 227 -73 0.47353 0.880778<74.761 228.717 415.868 1317.39 1384.36 1569.07>
LayerCount: 2
Fore
SplineSet
827 1301 m 1
 970 1309 l 1
 848 1080 l 1
 794 1033 l 1
 317 135 l 1
 323 94 l 1
 227 -73 l 1
 84 -81 l 1
 195 119 l 1
 245 159 l 1
 726 1070 l 1
 721 1108 l 1
 827 1301 l 1
651 1223 m 0
EndSplineSet
Refer: 65 79 N 1 0 0 1 0 0 2
EndChar

StartChar: P
Encoding: 80 80 76
Width: 1171
VWidth: 0
Flags: W
HStem: 0 84<26 63.0867 611.153 645> 453 83<547.791 728.264> 1195 72<573.917 796.973>
VStem: 968 195<749.523 1043.34>
DStem2: 227.67 0 425.634 0 0.121869 0.992546<142.004 1079>
LayerCount: 2
Fore
SplineSet
549 453 m 1
 542 536 l 1
 581 539 619 545 656 555 c 0
 861 604 968 722 968 871 c 0
 968 1050 852 1195 633 1195 c 0
 614 1195 594 1194 575 1191 c 1
 440 117 l 1
 669 84 l 1
 645 0 l 1
 8 0 l 1
 26 78 l 1
 244 133 l 1
 367 1070 l 1
 149 1093 l 1
 166 1163 l 1
 315 1215 536 1267 731 1267 c 0
 1007 1267 1163 1142 1163 916 c 0
 1163 708 970 489 549 453 c 1
EndSplineSet
EndChar

StartChar: Q
Encoding: 81 81 77
Width: 1096
VWidth: 0
Flags: W
HStem: -387 184<748.086 945.672>
VStem: 518 128<-92.4412 -17.3743>
LayerCount: 2
Fore
SplineSet
536 67 m 1
 646 91 l 1
 644 49 651 4 664 -37 c 0
 679 -81 705 -122 741 -153 c 0
 778 -185 828 -205 877 -203 c 0
 911 -203 946 -193 978 -182 c 0
 1010 -169 1017 -149 1046 -130 c 1
 1090 -216 l 1
 1056 -261 1014 -302 965 -331 c 0
 916 -362 861 -381 804 -387 c 0
 765 -390 725 -386 689 -375 c 0
 653 -364 617 -341 591 -313 c 0
 567 -287 549 -257 538 -223 c 0
 527 -191 520 -154 518 -120 c 0
 515 -57 521 5 536 67 c 1
465 1251 m 0
 523 1272 588 1283 650 1280 c 0
 712 1277 773 1260 828 1231 c 0
 888 1199 939 1146 975 1088 c 0
 1011 1030 1036 965 1049 897 c 0
 1072 787 1069 667 1046 557 c 0
 1023 447 984 338 921 244 c 0
 846 134 741 42 614 0 c 0
 533 -28 445 -34 362 -15 c 0
 279 4 203 51 146 114 c 0
 65 205 24 326 13 448 c 0
 0 599 19 757 84 895 c 0
 159 1057 296 1191 465 1251 c 0
491 1134 m 0
 429 1126 370 1091 328 1046 c 0
 286 1001 258 942 240 880 c 0
 204 757 205 625 221 497 c 0
 229 427 244 357 276 294 c 0
 308 231 359 176 422 145 c 0
 464 122 513 114 562 119 c 0
 611 124 656 140 695 169 c 0
 770 223 815 308 838 396 c 0
 864 490 867 588 861 685 c 0
 856 760 843 833 817 903 c 0
 791 973 749 1038 689 1082 c 0
 634 1124 559 1144 491 1134 c 0
EndSplineSet
EndChar

StartChar: R
Encoding: 82 82 78
Width: 1242
VWidth: 0
Flags: W
HStem: -18 109<1164.32 1221.44> 0 71<26 79.8229 537.329 591> 1082 78<159 287.973> 1184 80<571.774 793.924>
VStem: 919 203<798.903 1067.3>
DStem2: 222.073 -18 410.652 -18 0.121869 0.992546<148.921 1096.56> 744 573 603 455 0.526592 -0.850118<0 536.841>
LayerCount: 2
Fore
SplineSet
572 1173 m 1xb8
 426 107 l 1
 611 71 l 1
 591 0 l 1
 8 0 l 1x78
 26 75 l 1
 240 128 l 1
 367 1069 l 1
 145 1082 l 1
 159 1160 l 1
 273 1199 553 1264 702 1264 c 0
 918 1264 1122 1176 1122 958 c 0
 1122 732 911 640 744 577 c 1
 744 573 l 1
 897 326 l 2
 986 181 1049 128 1156 107 c 2
 1236 91 l 1
 1228 31 l 1
 1181 2 1142 -18 1072 -18 c 0
 903 -18 823 78 734 231 c 6
 603 455 l 2
 572 507 560 533 531 570 c 1
 542 599 l 1
 620 617 l 2
 779 651 919 750 919 924 c 0
 919 1075 799 1184 653 1184 c 0
 625 1184 598 1181 572 1173 c 1xb8
EndSplineSet
EndChar

StartChar: S
Encoding: 83 83 82
Width: 862
VWidth: 0
Flags: W
VStem: 705 88<854 911.532>
DStem2: 400 869 244 705 0.711054 -0.703138<-108.877 568.656>
LayerCount: 2
Fore
SplineSet
858 1182 m 1
 793 835 l 1
 705 854 l 1
 697 1104 l 1
 668 1143 627 1174 578 1184 c 0
 526 1195 468 1184 426 1153 c 0
 384 1122 354 1074 351 1020 c 0
 348 965 368 911 400 869 c 0
 432 827 475 791 517 757 c 0
 566 718 614 677 659 635 c 0
 698 599 733 562 762 520 c 0
 791 478 809 429 815 377 c 0
 820 332 812 281 796 237 c 0
 780 193 753 154 721 120 c 0
 667 63 601 23 526 0 c 0
 425 -32 317 -32 216 0 c 0
 180 11 146 26 114 49 c 0
 82 72 55 101 36 133 c 0
 23 156 13 182 10 208 c 0
 7 234 8 260 16 286 c 0
 32 335 71 377 120 396 c 0
 165 415 219 418 266 403 c 1
 255 371 245 337 240 305 c 0
 234 263 234 214 253 175 c 0
 264 149 279 130 302 114 c 0
 325 98 351 88 377 83 c 0
 426 73 481 84 523 110 c 0
 559 133 589 167 604 206 c 0
 619 245 617 292 604 333 c 0
 593 367 573 398 549 424 c 0
 525 450 498 472 469 495 c 0
 389 560 309 627 244 705 c 0
 216 737 191 776 175 815 c 0
 160 852 156 893 159 932 c 0
 162 971 174 1012 193 1048 c 0
 229 1116 283 1171 346 1212 c 0
 409 1253 484 1278 559 1283 c 0
 666 1289 777 1253 858 1182 c 1
432 0 m 1
 432 0 l 1
432 1252 m 1
 432 1252 l 1
432 0 m 1
 432 0 l 1
432 1252 m 1
 432 1252 l 1
432 0 m 0
578 1252 m 0
EndSplineSet
EndChar

StartChar: T
Encoding: 84 84 87
Width: 1106
VWidth: 0
Flags: W
HStem: -2 82<97 154.344 644.578 747> 1143 114<200 433.031 636.87 890.888>
VStem: 8 96<835 869.936> 923 95<835 897.002>
DStem2: 300.179 -2 499.248 -2 0.121869 0.992546<138.029 1137.94>
LayerCount: 2
Fore
SplineSet
622 1257 m 0
 781 1259 941 1257 1100 1251 c 1
 1018 822 l 1
 923 835 l 1
 893 1121 l 1
 848 1129 799 1135 752 1140 c 0
 715 1143 677 1146 638 1148 c 1
 513 110 l 1
 765 80 l 1
 747 -2 l 1
 75 -2 l 1
 97 80 l 1
 317 135 l 1
 435 1127 l 1
 393 1133 351 1140 309 1143 c 0
 273 1146 236 1145 200 1143 c 1
 104 822 l 1
 8 835 l 1
 8 1228 l 1
 213 1246 417 1254 622 1257 c 0
554 627 m 1
 554 627 l 1
554 0 m 1
 554 0 l 1
554 1252 m 1
 554 1252 l 1
554 1252 m 1
 554 1252 l 1
554 627 m 1
 554 627 l 1
554 0 m 1
 554 0 l 1
554 1252 m 0
554 627 m 0
447 0 m 0
EndSplineSet
EndChar

StartChar: Thorn
Encoding: 222 222 92
Width: 1128
VWidth: 0
Flags: W
HStem: 0 78<24 83.2024 562.723 640> 232 85<518.651 699.68> 981 70<554.859 765.7> 1135 75<164 248.144> 1176 78<635.053 775>
VStem: 942 197<530.948 826.614>
LayerCount: 2
Fore
SplineSet
383 1015 m 1xe4
 489 1036 601 1051 702 1051 c 0
 981 1051 1139 927 1139 698 c 0
 1139 490 946 271 520 232 c 1
 512 317 l 1
 549 322 590 328 627 336 c 0
 833 385 942 502 942 653 c 0
 942 832 825 981 606 981 c 0
 583 981 492 970 456 944 c 1
 383 1015 l 1xe4
640 0 m 1
 6 0 l 1
 24 78 l 1
 247 132 l 1
 374 1103 l 1
 146 1135 l 1
 164 1210 l 1xf4
 261 1228 356 1244 455 1252 c 0
 564 1262 679 1262 793 1254 c 1
 775 1176 l 1xec
 570 1155 l 1
 445 109 l 1
 664 80 l 1
 640 0 l 1
EndSplineSet
EndChar

StartChar: U
Encoding: 85 85 93
Width: 1432
VWidth: 0
Flags: W
HStem: -34 157<502.228 803.747> 1127 78<29 96.8036 864 1070.44> 1171 76<527.6 630 1365 1407>
DStem2: 94.2446 -34.1433 286.842 -34.1433 0.121869 0.992546<414.202 1133.42> 926.995 -34.1433 1044.96 -34.1433 0.121869 0.992546<291.335 1157.26>
LayerCount: 2
Fore
SplineSet
231 1091 m 1xa0
 8 1127 l 1
 29 1205 l 1xc0
 136 1224 244 1238 351 1244 c 0
 450 1250 549 1250 648 1247 c 1
 630 1171 l 1
 430 1143 l 1
 383 749 l 2
 377 684 367 620 364 555 c 0
 361 490 359 425 374 362 c 0
 389 295 422 230 474 188 c 0
 526 144 595 123 663 123 c 0
 725 123 786 139 835 175 c 0
 877 204 913 246 936 291 c 0
 975 366 986 453 997 536 c 2
 1072 1114 l 1
 846 1124 l 1
 864 1202 l 1
 955 1221 1047 1235 1140 1241 c 0
 1234 1247 1332 1249 1426 1244 c 1
 1407 1168 l 1
 1199 1100 l 1
 1113 520 l 2
 1097 403 1075 281 1010 182 c 0
 965 112 898 55 823 19 c 0
 748 -17 664 -36 581 -34 c 0
 526 -32 471 -22 419 -3 c 0
 367 16 320 44 281 83 c 0
 224 140 188 214 172 292 c 0
 143 427 169 569 185 705 c 2
 231 1091 l 1xa0
1290 8 m 1
 1290 8 l 1
718 1252 m 1
 718 1252 l 1
1290 8 m 1
 1290 8 l 1
718 1252 m 1
 718 1252 l 1
684 16 m 0
755 1252 m 0
EndSplineSet
EndChar

StartChar: V
Encoding: 86 86 107
Width: 1083
VWidth: 0
Flags: W
HStem: 1126 76<28 85.9739>
DStem2: 419 1251 231 1085 0.184876 -0.982762<128.382 1079.43>
LayerCount: 2
Fore
SplineSet
825 1062 m 4
 874 955 882 835 867 718 c 4
 848 580 799 445 724 328 c 4
 692 279 657 230 616 188 c 5
 607 188 l 5
 419 1251 l 5
 365 1249 314 1246 260 1241 c 4
 182 1233 104 1220 28 1202 c 5
 8 1126 l 5
 231 1085 l 5
 440 -26 l 5
 586 5 l 5
 628 47 669 94 708 143 c 4
 805 266 884 401 949 544 c 4
 1011 679 1057 820 1072 966 c 4
 1078 1031 1078 1097 1049 1155 c 4
 1026 1197 991 1233 949 1252 c 4
 907 1271 854 1273 809 1260 c 4
 775 1250 747 1231 721 1205 c 5
 765 1166 799 1116 825 1062 c 4
EndSplineSet
EndChar

StartChar: W
Encoding: 87 87 108
Width: 1551
VWidth: 0
Flags: W
HStem: -26 19G<316.344 430.258 837.11 930.258> 1126 76<36 84.2256>
VStem: 809 213<301.687 428.857> 820 150<827.855 1004> 1247 290<1082.48 1219.86>
DStem2: 434 1251 226 1085 0.0825258 -0.996589<148.268 1015.99>
LayerCount: 2
Fore
SplineSet
981 3 m 1xe8
 838 -28 l 1
 809 624 l 1xe8
 799 624 l 1
 742 463 672 307 588 159 c 0
 559 107 524 55 492 5 c 1
 318 -26 l 1
 226 1085 l 1
 8 1126 l 1
 36 1202 l 1
 114 1220 193 1233 273 1241 c 0
 327 1246 379 1249 434 1251 c 1
 500 237 l 1
 510 237 l 1
 562 312 607 393 646 476 c 0
 688 567 725 661 754 755 c 0
 780 836 801 920 820 1004 c 1
 970 1038 l 1xd8
 1022 197 l 1
 1030 197 l 1
 1075 246 1117 297 1153 352 c 0
 1223 461 1270 584 1296 711 c 0
 1319 821 1322 938 1299 1048 c 0
 1288 1105 1270 1160 1247 1212 c 1
 1289 1241 1341 1259 1395 1257 c 0
 1431 1255 1465 1244 1491 1221 c 0
 1517 1198 1531 1166 1537 1134 c 0
 1552 1056 1540 973 1524 895 c 0
 1496 762 1440 637 1372 520 c 0
 1301 393 1216 274 1122 162 c 0
 1078 107 1030 55 981 3 c 1xe8
940 1252 m 0
EndSplineSet
EndChar

StartChar: X
Encoding: 88 88 113
Width: 1307
VWidth: 0
Flags: W
HStem: -15 177<955 1086.27> -8 237<56.1881 291.355> 1126 76<114 162.588>
DStem2: 542 1130 338 1075 0.414264 -0.910157<-34.4513 434.069 576.409 1080.13>
LayerCount: 2
Fore
SplineSet
747 590 m 1x20
 687 622 l 1
 710 693 735 764 767 832 c 0
 796 897 831 958 867 1020 c 0
 906 1088 952 1156 1014 1205 c 0
 1043 1228 1073 1244 1109 1252 c 0
 1145 1260 1183 1259 1215 1244 c 0
 1238 1234 1257 1218 1270 1199 c 0
 1283 1180 1295 1157 1298 1134 c 0
 1304 1095 1296 1055 1277 1023 c 1
 1235 1033 1192 1036 1150 1030 c 0
 1092 1022 1038 998 991 966 c 0
 929 924 880 864 841 801 c 0
 802 734 773 663 747 590 c 1x20
555 659 m 1
 616 627 l 1
 593 549 563 474 531 401 c 0
 502 336 468 273 432 211 c 0
 393 146 352 81 292 36 c 0
 269 20 247 8 221 -2 c 0
 195 -10 169 -11 143 -8 c 0
 111 -3 77 13 54 39 c 0
 31 65 15 98 10 130 c 0
 5 162 11 200 24 229 c 1
 66 224 109 224 151 229 c 0x60
 206 235 261 254 310 283 c 0
 373 322 422 383 458 448 c 0
 497 516 526 588 555 659 c 1
338 1075 m 1
 94 1126 l 1
 114 1202 l 1
 187 1218 263 1233 338 1241 c 0
 387 1246 439 1249 489 1251 c 1
 542 1130 l 1
 895 359 l 2
 908 330 921 303 936 274 c 0
 954 242 973 211 999 185 c 0
 1005 179 1012 172 1020 169 c 0
 1028 166 1039 162 1049 162 c 0
 1059 162 1068 166 1078 169 c 0
 1088 172 1095 179 1101 185 c 0
 1120 201 1135 218 1150 237 c 0
 1166 256 1184 276 1199 299 c 1
 1247 265 l 1
 1237 226 1225 189 1202 153 c 0
 1160 85 1102 26 1027 -2 c 0
 1004 -10 978 -15 955 -15 c 0xa0
 932 -15 910 -10 887 -2 c 0
 864 8 844 23 828 39 c 0
 812 55 797 75 786 94 c 0
 763 133 743 179 724 221 c 2
 338 1075 l 1
EndSplineSet
EndChar

StartChar: Y
Encoding: 89 89 114
Width: 1084
VWidth: 0
Flags: W
HStem: 0 83<99 157.53 621.004 708>
DStem2: 306.038 0 503.862 0 0.121869 0.992546<131.912 683.693>
LayerCount: 2
Fore
SplineSet
802 999 m 0
 847 1033 902 1057 957 1072 c 0
 996 1082 1035 1089 1074 1091 c 1
 1084 1130 1073 1171 1049 1202 c 0
 1026 1231 991 1251 955 1254 c 0
 919 1257 878 1250 846 1234 c 0
 794 1208 750 1162 718 1117 c 0
 686 1072 658 1020 635 966 c 0
 593 869 559 770 533 666 c 1
 517 666 l 1
 519 715 516 766 513 815 c 0
 505 909 486 1004 447 1090 c 0
 428 1132 403 1173 367 1205 c 0
 320 1247 255 1270 192 1267 c 0
 158 1265 123 1257 94 1238 c 0
 52 1212 18 1163 8 1114 c 1
 49 1108 91 1097 127 1078 c 0
 150 1067 174 1052 195 1036 c 0
 240 1000 276 951 302 897 c 0
 328 842 345 783 356 723 c 0
 375 626 374 525 361 424 c 2
 322 130 l 1
 99 83 l 1
 80 0 l 1
 708 0 l 1
 731 81 l 1
 517 107 l 1
 546 361 l 2
 559 468 579 578 611 682 c 0
 630 742 651 803 682 858 c 0
 713 913 753 960 802 999 c 0
542 1252 m 1
 542 1252 l 1
542 1252 m 1
 542 1252 l 1
590 1252 m 0
EndSplineSet
EndChar

StartChar: Z
Encoding: 90 90 119
Width: 1096
VWidth: 0
Flags: W
HStem: 0 94<231 797.738> 1140 112<325 796.296> 1156 96<379.704 851>
VStem: 911 93<380.891 442>
DStem2: 13 104 231 94 0.617308 0.786722<126.706 1344.94>
LayerCount: 2
Fore
SplineSet
162 1252 m 1xb0
 1088 1252 l 1
 1080 1176 l 1
 231 94 l 1
 442 104 l 2
 565 110 689 121 809 140 c 1
 840 211 866 282 887 357 c 0
 897 389 905 423 911 455 c 1
 1004 442 l 1
 1004 419 1005 399 1005 380 c 0
 1005 140 965 0 965 0 c 1
 8 0 l 1
 13 104 l 1
 851 1156 l 1xb0
 325 1140 l 1xd0
 249 877 l 1
 146 903 l 1
 162 1252 l 1xb0
549 1252 m 1xd0
 549 1252 l 1xd0
549 1252 m 1
 549 1252 l 1
549 1252 m 0
EndSplineSet
EndChar

StartChar: a
Encoding: 97 97 123
Width: 844
VWidth: 0
Flags: W
HStem: -31 148<512 689.871> -21 154<93 273.79> 773 125<299.864 482.156>
VStem: 8 154<136.986 459.616> 442 157<65 387.828> 578 130<823 888.495>
LayerCount: 2
Fore
SplineSet
590 921 m 1x74
 708 884 l 1x74
 637 492 l 1
 606 253 l 2
 603 221 599 198 599 179 c 0
 599 130 614 117 643 117 c 0
 682 117 758 206 797 276 c 1
 838 240 l 1
 775 78 699 -31 546 -31 c 0
 478 -31 442 23 442 107 c 0xb8
 442 156 454 216 478 287 c 1
 465 287 l 1
 410 154 288 -21 153 -21 c 0
 33 -21 8 92 8 219 c 0
 8 469 201 898 419 898 c 0
 487 898 536 852 555 823 c 1
 565 823 l 1
 578 913 l 1
 590 921 l 1x74
162 289 m 0
 162 169 172 133 227 133 c 0
 318 133 469 345 529 663 c 1
 510 720 439 773 385 773 c 0
 226 773 162 468 162 289 c 0
760 8 m 1
 760 8 l 1
422 926 m 1
 422 926 l 1
760 8 m 1
 760 8 l 1
422 926 m 1
 422 926 l 1
577 0 m 0
487 898 m 0
EndSplineSet
EndChar

StartChar: acute
Encoding: 180 180 128
Width: 609
VWidth: 0
Flags: W
HStem: 1327 351
VStem: 226 230
LayerCount: 2
Fore
SplineSet
456 1639 m 1
 276 1327 l 1
 226 1358 l 1
 346 1678 l 1
 456 1639 l 1
236 1223 m 0
EndSplineSet
EndChar

StartChar: ae
Encoding: 230 230 130
Width: 1136
VWidth: 0
Flags: W
HStem: -31 137<679.045 877.065> -21 156<132.5 306.495> 773 125<339.879 520.47> 794 106<751.884 901.272>
VStem: 47 156<137.719 459.834> 910 152<582.795 787.114>
LayerCount: 2
Fore
SplineSet
624 617 m 0x6c
 609 503 546 378 504 287 c 0
 442 157 327 -21 192 -21 c 0
 73 -21 47 92 47 219 c 0
 47 469 242 898 460 898 c 0
 564 898 642 752 624 617 c 0x6c
203 289 m 0
 203 170 211 135 266 135 c 0
 355 135 508 345 568 663 c 1
 549 720 478 773 424 773 c 0
 265 773 203 469 203 289 c 0
603 707 m 0
 681 824 786 900 895 900 c 0
 994 900 1062 837 1062 723 c 0
 1062 530 809 359 635 305 c 1
 638 160 685 106 797 106 c 0
 883 106 960 176 1005 247 c 1
 1041 214 l 1
 1007 112 892 -31 720 -31 c 0x9c
 575 -31 476 76 476 273 c 0
 476 307 587 683 603 707 c 0
637 378 m 1
 809 441 910 573 910 700 c 0
 910 763 887 794 830 794 c 0
 721 794 655 662 637 378 c 1
568 926 m 0
EndSplineSet
EndChar

StartChar: ampersand
Encoding: 38 38 133
Width: 1391
VWidth: 0
Flags: W
HStem: -352 35<715 751.594>
VStem: 315 172<792.08 1020.69>
DStem2: 594 677 374 672 0.514204 -0.857668<-284.361 0 57.9819 689.648>
LayerCount: 2
Fore
SplineSet
694 -317 m 1
 726 -311 757 -300 786 -284 c 0
 802 -274 820 -263 830 -247 c 0
 840 -234 844 -216 846 -200 c 0
 849 -172 843 -143 835 -117 c 0
 824 -81 808 -47 793 -13 c 0
 754 75 696 138 633 240 c 2
 528 411 l 2
 474 497 419 581 374 672 c 0
 358 708 341 747 330 783 c 0
 319 819 312 858 315 897 c 0
 318 933 328 967 344 996 c 0
 360 1025 383 1052 409 1078 c 0
 477 1146 565 1199 659 1218 c 0
 695 1224 727 1226 763 1221 c 0
 799 1216 832 1203 861 1184 c 0
 887 1165 908 1142 923 1114 c 0
 938 1086 947 1057 949 1025 c 0
 952 983 942 939 926 900 c 0
 910 861 887 821 858 789 c 0
 787 705 689 643 585 604 c 1
 549 669 l 1
 609 692 663 734 702 786 c 0
 731 825 754 874 762 923 c 0
 767 954 767 986 759 1015 c 0
 751 1044 734 1074 711 1095 c 0
 685 1118 652 1130 620 1130 c 0
 588 1130 556 1114 533 1091 c 0
 507 1065 492 1030 487 994 c 0
 482 958 487 923 497 887 c 0
 516 812 555 744 594 677 c 2
 765 387 l 2
 832 273 909 169 971 54 c 0
 1008 -17 1038 -97 1030 -177 c 0
 1027 -211 1015 -245 996 -274 c 0
 977 -302 948 -326 916 -339 c 0
 897 -347 880 -353 861 -356 c 0
 812 -364 764 -362 715 -352 c 1
 694 -317 l 1
474 568 m 1
 438 545 406 519 377 487 c 0
 338 442 310 389 299 331 c 0
 288 273 296 209 325 159 c 0
 357 104 414 64 476 45 c 0
 541 22 613 25 681 36 c 0
 749 47 812 75 874 107 c 0
 919 133 964 161 996 203 c 0
 1022 239 1039 281 1044 325 c 0
 1050 393 1027 462 988 520 c 0
 956 565 916 608 871 640 c 1
 900 682 952 710 1001 715 c 0
 1050 720 1101 701 1140 669 c 0
 1185 630 1215 575 1221 517 c 0
 1231 437 1210 357 1171 286 c 0
 1116 185 1032 104 936 42 c 0
 840 -20 733 -65 619 -81 c 0
 559 -89 499 -91 439 -86 c 0
 356 -80 274 -57 206 -8 c 0
 174 16 145 45 122 81 c 0
 99 117 86 158 83 200 c 0
 77 278 108 355 153 417 c 0
 195 474 251 521 309 560 c 0
 351 589 397 615 442 638 c 1
 474 568 l 1
EndSplineSet
EndChar

StartChar: asciicircum
Encoding: 94 94 137
Width: 739
VWidth: 0
Flags: W
LayerCount: 2
Fore
SplineSet
570 1230 m 1
 515 1217 l 1
 182 812 l 1
 227 780 l 1
 507 1056 l 1
 517 1056 l 1
 750 775 l 1
 812 810 l 1
 570 1230 l 1
EndSplineSet
EndChar

StartChar: asciitilde
Encoding: 126 126 138
Width: 836
VWidth: 0
Flags: W
HStem: 429 144<524.663 723.097> 474 145<109.828 300.767>
LayerCount: 2
Fore
SplineSet
8 417 m 1x40
 8 417 79 619 211 619 c 0x40
 214 619 221 617 226 617 c 2
 669 573 l 1
 674 573 l 2
 711 573 765 633 765 633 c 1
 830 633 l 1
 830 633 753 429 620 429 c 0
 615 429 609 429 604 429 c 2x80
 159 474 l 1
 154 474 l 2
 112 474 62 404 62 404 c 1
 8 417 l 1x40
EndSplineSet
EndChar

StartChar: asterisk
Encoding: 42 42 139
Width: 737
VWidth: 0
Flags: W
LayerCount: 2
Fore
SplineSet
663 698 m 1
 542 630 l 1
 393 880 l 1
 445 932 l 1
 663 698 l 1
232 599 m 1
 130 692 l 1
 322 913 l 1
 387 880 l 1
 232 599 l 1
8 975 m 1
 65 1104 l 1
 333 989 l 1
 322 916 l 1
 8 975 l 1
296 1307 m 1
 435 1293 l 1
 408 1004 l 1
 336 992 l 1
 296 1307 l 1
700 1135 m 1
 731 1001 l 1
 445 936 l 1
 411 1001 l 1
 700 1135 l 1
EndSplineSet
EndChar

StartChar: at
Encoding: 64 64 140
Width: 1283
VWidth: 0
Flags: W
HStem: -231 93<446.246 895.873> -41 20G<1036 1059.33> 60 122<445.5 561.48 854.281 976.539> 695 98<555.38 730.148> 965 91<503.737 921.533>
VStem: 8 158<127.424 581.269> 318 138<184.796 471.142> 689 143<169.004 304.25> 1140 137<379.148 752.377>
DStem2: 692 188 862 465 0.189539 0.981873<0 304.2>
LayerCount: 2
Fore
SplineSet
456 307 m 0
 456 281 458 258 461 232 c 0
 463 226 465 217 468 211 c 0
 471 205 476 200 481 195 c 0
 486 192 489 187 495 185 c 0
 501 183 509 182 515 182 c 0
 531 182 549 191 562 201 c 0
 575 211 588 223 598 236 c 0
 635 280 663 331 689 383 c 0
 725 454 752 526 767 604 c 1
 757 619 744 637 731 650 c 0
 718 663 705 674 689 682 c 0
 676 688 659 695 643 695 c 0
 620 697 597 690 578 677 c 0
 559 664 540 646 529 627 c 0
 500 582 489 525 476 471 c 0
 463 416 454 362 456 307 c 0
1014 234 m 0
 1053 270 1087 315 1108 364 c 0
 1134 424 1140 490 1140 555 c 0
 1140 633 1122 711 1083 778 c 0
 1047 838 993 884 931 916 c 0
 864 948 790 965 715 965 c 0
 613 965 508 934 424 877 c 0
 341 822 276 744 234 653 c 0
 189 559 166 458 166 354 c 0
 166 263 182 172 227 94 c 0
 269 23 331 -39 406 -76 c 0
 492 -121 592 -141 689 -138 c 0
 738 -136 787 -128 832 -117 c 0
 874 -106 919 -90 958 -71 c 0
 984 -58 1010 -45 1036 -29 c 1
 1046 -21 l 1
 1082 -75 l 1
 1074 -80 l 1
 1045 -108 1011 -130 975 -149 c 0
 931 -175 884 -193 835 -206 c 0
 775 -221 715 -231 653 -231 c 0
 549 -233 446 -214 349 -177 c 0
 255 -140 167 -78 107 3 c 0
 39 97 8 214 8 328 c 0
 8 456 41 585 104 695 c 0
 166 802 257 895 364 957 c 0
 481 1024 615 1058 750 1056 c 0
 841 1054 931 1036 1012 997 c 0
 1088 961 1157 908 1202 838 c 0
 1249 767 1275 680 1277 596 c 0
 1279 505 1255 416 1213 338 c 0
 1171 263 1113 198 1043 146 c 0
 1011 123 978 103 942 88 c 0
 900 72 857 58 812 52 c 0
 793 49 773 49 754 54 c 0
 735 59 716 68 705 84 c 0
 695 99 689 117 689 136 c 0
 689 155 689 169 692 188 c 0
 695 211 700 234 705 257 c 0
 708 273 713 289 718 305 c 1
 707 307 l 1
 688 265 666 224 640 188 c 0
 614 149 581 117 542 91 c 0
 516 73 487 60 455 60 c 0
 436 60 419 63 403 71 c 0
 387 79 370 91 359 104 c 0
 336 133 321 169 318 205 c 0
 312 257 321 309 331 361 c 0
 350 445 377 531 426 604 c 0
 458 654 501 702 546 741 c 0
 562 754 579 766 598 776 c 0
 617 786 636 793 659 793 c 0
 688 793 716 785 739 770 c 0
 754 760 769 749 780 736 c 1
 793 734 l 1
 799 806 l 1
 819 812 l 1
 923 781 l 1
 862 465 l 1
 854 410 844 352 838 297 c 2
 835 253 l 2
 833 234 832 219 832 200 c 0
 832 197 832 191 832 188 c 0
 832 185 835 182 838 179 c 0
 841 174 848 169 854 169 c 0
 860 169 865 171 871 171 c 0
 890 174 913 176 932 182 c 0
 963 192 990 211 1014 234 c 0
EndSplineSet
EndChar

StartChar: b
Encoding: 98 98 142
Width: 739
VWidth: 0
Flags: W
HStem: -24 112<199.018 443.902> 765 132<381.704 516.812> 1174 73<19 80.7419>
VStem: 562 169<296.924 717.117>
DStem2: 2.03673 -24 157.144 -24 0.121869 0.992546<167.921 633.781 639.225 1179.69>
LayerCount: 2
Fore
SplineSet
562 507 m 0
 562 632 533 765 439 765 c 0
 351 765 231 565 192 250 c 2
 179 154 l 1
 208 112 272 88 343 88 c 0
 434 88 562 172 562 507 c 0
315 1249 m 1
 265 848 l 1
 214 594 l 1
 224 594 l 1
 263 760 379 897 504 897 c 0
 642 897 731 739 731 538 c 0
 731 226 536 -24 247 -24 c 0
 174 -24 69 -3 11 49 c 1
 145 1147 l 1
 8 1174 l 1
 19 1247 l 1
 299 1270 l 1
 315 1249 l 1
EndSplineSet
EndChar

StartChar: backslash
Encoding: 92 92 143
Width: 410
VWidth: 0
Flags: W
VStem: 8 398
DStem2: 141 1280 8 1288 0.159195 -0.987247<0 1654.4>
LayerCount: 2
Fore
SplineSet
141 1280 m 1
 406 -382 l 1
 276 -374 l 1
 8 1288 l 1
 141 1280 l 1
EndSplineSet
EndChar

StartChar: bar
Encoding: 124 124 144
Width: 560
VWidth: 0
Flags: W
DStem2: 172.404 -357 286 -357 0.121869 0.992546<13.8439 1602.86>
LayerCount: 2
Fore
SplineSet
286 -357 m 1
 479 1223 l 1
 367 1234 l 1
 174 -344 l 1
 286 -357 l 1
EndSplineSet
EndChar

StartChar: braceleft
Encoding: 123 123 145
Width: 651
VWidth: 0
Flags: W
HStem: -383 102<375 445> 395 99<21 60> 1169 101<541 622>
VStem: 143 169<-271.784 190.804> 167 172<-144.719 355.363>
LayerCount: 2
Fore
SplineSet
375 -276 m 2xf0
 450 -281 l 1
 445 -383 l 1
 341 -383 l 2
 179 -383 143 -275 143 -140 c 0xf0
 143 -31 167 98 167 200 c 0
 167 297 144 372 60 387 c 2
 8 395 l 1
 21 494 l 1
 71 502 l 1
 373 554 129 1270 542 1270 c 2
 643 1270 l 1
 622 1169 l 1
 541 1163 l 2
 367 1148 521 536 208 450 c 1
 206 443 l 1
 312 411 339 311 339 192 c 0xe8
 339 73 312 -65 312 -159 c 0
 312 -227 326 -273 375 -276 c 2xf0
EndSplineSet
EndChar

StartChar: braceright
Encoding: 125 125 146
Width: 656
VWidth: 0
Flags: W
HStem: -383 102<29 106> 395 99<601 637> 1169 101<216 294>
VStem: 318 173<537.704 1024.97> 349 166<624.915 1160.36>
LayerCount: 2
Fore
SplineSet
106 -276 m 2xf0
 293 -263 139 357 452 443 c 1
 452 450 l 1
 345 481 316 581 318 698 c 1xf0
 316 821 349 963 349 1057 c 0xe8
 349 1119 336 1160 294 1163 c 2
 211 1169 l 1
 216 1270 l 1
 318 1270 l 2xf0
 477 1270 515 1163 515 1030 c 0xe8
 515 923 491 797 491 695 c 0
 491 596 512 518 601 502 c 2
 648 494 l 1
 637 395 l 1
 583 387 l 1
 287 340 531 -383 112 -383 c 2
 8 -383 l 1
 29 -281 l 1
 106 -276 l 2xf0
EndSplineSet
EndChar

StartChar: bracketleft
Encoding: 91 91 147
Width: 576
VWidth: 0
Flags: W
HStem: -380 97<236.738 370> 1179 91<419.861 568>
VStem: 8 560
DStem2: 8 -382 160.389 -382 0.121869 0.992546<138.465 1570.32>
LayerCount: 2
Fore
SplineSet
370 -380 m 1
 8 -382 l 1
 211 1270 l 1
 568 1270 l 1
 568 1179 l 1
 351 1158 l 1
 175 -263 l 1
 393 -283 l 1
 370 -380 l 1
EndSplineSet
EndChar

StartChar: bracketright
Encoding: 93 93 148
Width: 578
VWidth: 0
Flags: W
HStem: -380 97<10 168.413> 1179 91<214 338.091>
VStem: 8 564
DStem2: 216.389 -382 370 -382 0.121869 0.992546<119.894 1551.63>
LayerCount: 2
Fore
SplineSet
8 -380 m 1
 10 -283 l 1
 231 -263 l 1
 406 1158 l 1
 192 1179 l 1
 214 1270 l 1
 572 1270 l 1
 370 -382 l 1
 8 -380 l 1
EndSplineSet
EndChar

StartChar: breve
Encoding: 728 728 149
Width: 620
VWidth: 0
Flags: W
HStem: 1351 108<199.83 412.517>
VStem: 119 53<1504.7 1536.88> 445 44<1514.01 1538.62>
LayerCount: 2
Fore
SplineSet
119 1527 m 1
 164 1558 l 1
 172 1541 l 2
 191 1502 238 1459 305 1459 c 0
 375 1459 419 1501 445 1543 c 2
 455 1559 l 1
 495 1532 l 1
 489 1512 l 2
 463 1432 402 1351 305 1351 c 0
 201 1351 142 1431 123 1507 c 2
 119 1527 l 1
307 1223 m 0
EndSplineSet
EndChar

StartChar: brokenbar
Encoding: 166 166 150
Width: 560
VWidth: 0
Flags: W
DStem2: 172.404 -357 281 -357 0.121869 0.992546<13.2345 786.829 896.006 1602.86>
LayerCount: 2
Fore
SplineSet
174 -344 m 1
 281 -357 l 1
 375 413 l 1
 268 424 l 1
 174 -344 l 1
279 531 m 1
 382 520 l 1
 474 1223 l 1
 367 1234 l 1
 279 531 l 1
EndSplineSet
EndChar

StartChar: c
Encoding: 99 99 152
Width: 605
VWidth: 0
Flags: W
HStem: -31 128<240.719 416.223> 799 98<272.648 481.147>
VStem: 8 161<169.938 569.247> 458 140<663.25 763.941> 533 35<201.029 208.107>
LayerCount: 2
Fore
SplineSet
458 594 m 1xf0
 448 656 439 799 356 799 c 0
 228 799 169 620 169 393 c 0
 169 231 203 97 354 97 c 2
 357 97 l 2
 425 97 492 156 533 227 c 1
 568 195 l 1xe8
 542 85 406 -31 266 -31 c 0
 81 -31 8 137 8 335 c 0
 8 650 224 897 419 897 c 0
 542 897 598 812 598 741 c 0
 598 631 541 604 458 594 c 1xf0
304 0 m 1
 304 0 l 1
304 926 m 1
 304 926 l 1
304 0 m 1
 304 0 l 1
304 926 m 1
 304 926 l 1
304 0 m 0
458 893 m 0xf0
EndSplineSet
EndChar

StartChar: caron
Encoding: 711 711 154
Width: 643
VWidth: 0
Flags: W
HStem: 1335 223
VStem: 122 399
DStem2: 201 1558 122 1498 0.7356 -0.677417<0 204.326> 357 1416 352 1348 0.690573 0.723263<0 184.06>
LayerCount: 2
Fore
SplineSet
299 1335 m 1
 122 1498 l 1
 201 1558 l 1
 348 1416 l 1
 357 1416 l 1
 479 1554 l 1
 521 1525 l 1
 352 1348 l 1
 299 1335 l 1
322 1223 m 0
EndSplineSet
EndChar

StartChar: cedilla
Encoding: 184 184 158
Width: 378
VWidth: 0
Flags: W
HStem: -383 58<96.0565 132.178>
VStem: 166 131<-305.164 -163.069>
LayerCount: 2
Fore
SplineSet
210 -75 m 1
 247 -107 297 -156 297 -223 c 0
 297 -301 215 -349 101 -383 c 1
 81 -325 l 1
 138 -306 166 -273 166 -244 c 0
 166 -210 130 -169 94 -135 c 1
 190 3 l 1
 263 3 l 1
 210 -75 l 1
223 0 m 1
 223 0 l 1
223 0 m 0
EndSplineSet
EndChar

StartChar: cent
Encoding: 162 162 159
Width: 605
VWidth: 0
Flags: W
HStem: -31 128<240.719 416.223> 799 98<272.648 481.147>
VStem: 8 161<169.938 569.247> 458 140<663.25 763.941> 533 35<201.029 208.107>
DStem2: 70 -156 201 -146 0.277847 0.960625<46.0042 217.844 1099.84 1266.88> 180 112 234 83 0.278573 0.960415<0 734.991>
LayerCount: 2
Fore
SplineSet
138 76 m 1xe0
 180 112 l 1
 390 836 l 1
 369 877 l 1
 422 1061 l 1
 555 1069 l 1
 495 866 l 1
 443 801 l 1
 234 83 l 1
 249 19 l 1
 201 -146 l 1
 70 -156 l 1
 138 76 l 1xe0
EndSplineSet
Refer: 152 99 N 1 0 0 1 0 0 2
EndChar

StartChar: circumflex
Encoding: 710 710 160
Width: 638
VWidth: 0
Flags: W
HStem: 1337 217
VStem: 119 394
LayerCount: 2
Fore
SplineSet
338 1554 m 1
 513 1372 l 1
 465 1337 l 1
 304 1444 l 1
 294 1444 l 1
 156 1335 l 1
 119 1364 l 1
 284 1541 l 1
 338 1554 l 1
317 1223 m 0
EndSplineSet
EndChar

StartChar: colon
Encoding: 58 58 161
Width: 303
VWidth: 0
Flags: W
HStem: -28 226<39.3459 176.233> 627 224<128.346 266.37>
VStem: 97 199<654.521 820.231>
LayerCount: 2
Fore
SplineSet
206 851 m 0
 219 851 234 850 247 845 c 0
 260 840 271 829 279 819 c 0
 289 806 293 791 296 776 c 0
 299 761 297 744 294 729 c 0
 288 703 272 675 253 656 c 0
 234 637 208 627 179 627 c 0
 155 627 132 639 117 658 c 0
 107 669 100 683 97 698 c 0
 94 713 96 731 99 746 c 0
 104 772 117 796 136 815 c 0
 155 834 180 849 206 851 c 0
119 198 m 0
 132 198 146 197 159 192 c 0
 172 187 182 176 190 166 c 0
 200 153 205 138 208 123 c 0
 211 108 209 91 206 76 c 0
 200 50 185 24 166 5 c 0
 156 -5 146 -14 133 -19 c 0
 120 -24 104 -28 91 -28 c 0
 67 -26 44 -14 29 5 c 0
 19 16 13 30 10 45 c 0
 7 60 7 78 10 93 c 0
 15 119 28 143 47 162 c 0
 66 181 93 196 119 198 c 0
EndSplineSet
EndChar

StartChar: comma
Encoding: 44 44 162
Width: 347
VWidth: 0
Flags: W
HStem: -304 531
VStem: 8 327
LayerCount: 2
Fore
SplineSet
63 117 m 1
 73 153 98 187 130 208 c 0
 156 224 184 230 213 227 c 0
 239 224 264 214 283 195 c 0
 302 176 315 154 325 128 c 0
 340 89 343 42 335 0 c 0
 327 -42 309 -83 283 -117 c 0
 257 -153 224 -184 190 -210 c 0
 145 -247 95 -278 41 -304 c 1
 8 -252 l 1
 27 -242 45 -231 63 -218 c 0
 91 -197 117 -174 136 -145 c 0
 149 -126 160 -105 166 -81 c 0
 172 -58 174 -35 169 -11 c 0
 163 18 146 45 123 68 c 0
 105 87 86 104 63 117 c 1
EndSplineSet
EndChar

StartChar: commaaccent
Encoding: 806 806 163
Width: 406
VWidth: 0
Flags: W
HStem: -355.48 329.22
VStem: 66.96 202.74
LayerCount: 2
Fore
SplineSet
218 0 m 0,43,-1
EndSplineSet
Refer: 162 44 N 0.62 0 0 0.62 62 -167 2
EndChar

StartChar: copyright
Encoding: 169 169 164
Width: 1275
VWidth: 0
Flags: W
HStem: -28 106<428.872 836.499> 250 89<539.936 832.497> 971 70<528.091 779.537> 1189 101<435.55 847.15>
VStem: 8 122<398.925 859.692> 273 144<469.206 818.684> 822 52<789 870.03> 1147 120<396.192 865.324>
LayerCount: 2
Fore
SplineSet
417 666 m 0
 417 432 546 339 692 339 c 0
 762 339 838 360 900 409 c 1
 911 399 923 377 929 362 c 1
 846 282 744 250 643 250 c 0
 455 250 273 381 273 625 c 0
 273 807 393 1041 672 1041 c 0
 753 1041 832 1024 890 979 c 1
 874 783 l 1
 822 789 l 1
 799 919 l 1
 770 955 715 971 637 971 c 0
 509 971 417 864 417 666 c 0
1267 627 m 0
 1267 279 989 -28 622 -28 c 0
 255 -28 8 260 8 624 c 0
 8 1011 307 1290 632 1290 c 0
 1045 1290 1267 981 1267 627 c 0
632 1189 m 0
 343 1189 130 931 130 635 c 0
 130 313 338 78 630 78 c 0
 909 78 1147 302 1147 617 c 0
 1147 906 988 1189 632 1189 c 0
EndSplineSet
EndChar

StartChar: currency
Encoding: 164 164 165
Width: 765
VWidth: 0
Flags: W
HStem: 213 96<326.321 542.298> 659 96<355.974 572.888>
LayerCount: 2
Fore
SplineSet
604 479 m 0
 591 377 521 309 427 309 c 0
 336 309 283 380 296 486 c 0
 309 590 377 659 468 659 c 0
 564 659 619 588 604 479 c 0
123 250 m 1
 197 166 l 1
 283 253 l 1
 322 229 370 213 409 213 c 0
 456 213 519 232 568 260 c 1
 635 171 l 1
 733 252 l 1
 648 336 l 1
 680 373 704 432 710 482 c 0
 716 529 708 588 690 625 c 1
 783 698 l 1
 720 784 l 1
 632 707 l 1
 596 736 540 755 486 755 c 0
 437 755 374 733 325 697 c 1
 261 783 l 1
 169 702 l 1
 245 617 l 1
 216 581 196 526 190 481 c 0
 184 429 193 367 214 326 c 1
 123 250 l 1
EndSplineSet
EndChar

StartChar: d
Encoding: 100 100 166
Width: 841
VWidth: 0
Flags: W
HStem: -26 136<109 301.357 503.5 685.688> 778 107<301.697 485.682> 1174 73<439 500.68>
VStem: 8 161<111.818 455.923> 452 149<63 391.403> 793 40<241.233 253.677>
DStem2: 433.191 -26 572.937 -26 0.121869 0.992546<357.3 763.667 890.915 1180.2>
LayerCount: 2
Fore
SplineSet
169 305 m 0
 169 191 167 110 224 110 c 0
 351 110 488 379 520 681 c 1
 491 744 442 778 387 778 c 0
 251 778 169 529 169 305 c 0
611 284 m 2
 605 242 601 210 601 187 c 0
 601 132 617 123 643 123 c 0
 679 123 754 201 793 271 c 1
 833 244 l 1
 778 56 672 -24 536 -24 c 0
 471 -24 452 29 452 97 c 0
 452 147 463 208 478 260 c 1
 465 263 l 1
 405 94 304 -26 169 -26 c 0
 49 -26 8 94 8 221 c 0
 8 442 185 885 435 885 c 0
 493 885 519 873 529 854 c 1
 544 858 l 1
 564 1147 l 1
 429 1174 l 1
 439 1247 l 1
 715 1273 l 1
 734 1249 l 1
 611 284 l 2
421 461 m 1
 421 461 l 1
421 461 m 1
 421 461 l 1
421 463 m 0
EndSplineSet
EndChar

StartChar: dagger
Encoding: 8224 8224 167
Width: 907
VWidth: 0
Flags: W
HStem: 700 114<249 526 653 932>
VStem: 383 142<-345.312 -238.635>
DStem2: 395.357 -357 509.603 -357 0.121869 0.992546<985.206 1071.99 1185.73 1602.01>
LayerCount: 2
Fore
SplineSet
653 806 m 1
 955 814 l 1
 932 694 l 1
 640 705 l 1
 525 -357 l 1
 383 -344 l 1
 526 707 l 1
 227 700 l 1
 249 814 l 1
 539 806 l 1
 583 1234 l 1
 713 1223 l 1
 653 806 l 1
EndSplineSet
EndChar

StartChar: daggerdbl
Encoding: 8225 8225 168
Width: 907
VWidth: 0
Flags: W
DStem2: 380.649 -357 512 -357 0.121869 0.992546<16.0076 432.287 546.897 1073.66 1187.28 1603.56>
LayerCount: 2
Fore
SplineSet
596 422 m 1
 638 705 l 1
 929 694 l 1
 952 814 l 1
 651 806 l 1
 711 1223 l 1
 581 1234 l 1
 538 806 l 1
 249 814 l 1
 227 700 l 1
 525 707 l 1
 502 491 l 1
 455 172 l 1
 180 184 l 1
 159 63 l 1
 442 71 l 1
 382 -346 l 1
 512 -357 l 1
 555 71 l 1
 856 63 l 1
 875 177 l 1
 568 171 l 1
 596 422 l 1
EndSplineSet
EndChar

StartChar: degree
Encoding: 176 176 171
Width: 341
VWidth: 0
Flags: W
HStem: 955 49<119.307 233.777> 1246 47<111.7 222.03>
VStem: 8 72<1030.08 1224.54> 263 72<1020.77 1217.12>
LayerCount: 2
Fore
SplineSet
179 1293 m 0
 276 1293 335 1224 335 1130 c 0
 335 1039 270 955 166 955 c 0
 72 955 8 1017 8 1121 c 0
 8 1215 85 1293 179 1293 c 0
166 1246 m 0
 106 1246 80 1191 80 1134 c 0
 80 1072 110 1004 175 1004 c 0
 230 1004 263 1044 263 1117 c 0
 263 1180 229 1246 166 1246 c 0
EndSplineSet
EndChar

StartChar: dieresis
Encoding: 168 168 172
Width: 675
VWidth: 0
Flags: W
HStem: 1361 156<130.084 281.208 393.084 545.859>
VStem: 122 167<1370.55 1508.02> 385 169<1370.55 1507.17>
LayerCount: 2
Fore
SplineSet
468 1517 m 0
 512 1517 554 1486 554 1441 c 0
 554 1392 512 1361 468 1361 c 0
 426 1361 385 1392 385 1441 c 0
 385 1488 427 1517 468 1517 c 0
205 1517 m 0
 249 1517 289 1486 289 1441 c 0
 289 1392 249 1361 205 1361 c 0
 163 1361 122 1392 122 1441 c 0
 122 1488 164 1517 205 1517 c 0
338 1223 m 0
EndSplineSet
EndChar

StartChar: divide
Encoding: 247 247 173
Width: 972
VWidth: 0
Flags: W
HStem: 102 233<416.844 577.297> 447 104<164 936> 656 232<503.514 664.999>
LayerCount: 2
Fore
SplineSet
604 888 m 0
 669 888 715 839 705 776 c 0
 694 709 632 656 567 656 c 0
 502 656 458 711 469 778 c 0
 479 841 541 888 604 888 c 0
517 335 m 0
 582 335 627 286 617 223 c 0
 606 156 544 102 479 102 c 0
 414 102 371 157 382 224 c 0
 392 287 454 335 517 335 c 0
164 551 m 1
 963 551 l 1
 936 447 l 1
 136 447 l 1
 164 551 l 1
EndSplineSet
EndChar

StartChar: dollar
Encoding: 36 36 174
Width: 862
VWidth: 0
Flags: W
VStem: 705 88<854 911.532>
DStem2: 400 869 244 705 0.711054 -0.703138<-108.877 568.656> 283 -167 413 -158 0.163795 0.986494<30.1718 198.352 1469.98 1611.77>
LayerCount: 2
Fore
SplineSet
315 32 m 1
 354 70 l 1
 542 1200 l 1
 517 1239 l 1
 547 1423 l 1
 681 1431 l 1
 651 1262 l 1
 611 1215 l 1
 414 49 l 1
 440 8 l 1
 413 -158 l 1
 283 -167 l 1
 315 32 l 1
EndSplineSet
Refer: 82 83 N 1 0 0 1 0 0 2
EndChar

StartChar: dotaccent
Encoding: 729 729 175
Width: 480
VWidth: 0
Flags: W
HStem: 1333 233<149.562 331.186>
VStem: 122 237<1360.98 1540.79>
LayerCount: 2
Fore
SplineSet
239 1566 m 0
 304 1566 359 1517 359 1454 c 0
 359 1387 304 1333 239 1333 c 0
 174 1333 122 1388 122 1455 c 0
 122 1518 177 1566 239 1566 c 0
240 1223 m 0
EndSplineSet
EndChar

StartChar: dotlessi
Encoding: 305 305 176
Width: 587
VWidth: 0
Flags: W
HStem: -23 146<246.5 442.603> 757 153<180.48 339.5>
VStem: 179 165<123.515 584.268> 231 164<269.095 809>
DStem2: 152.709 -23 314.866 -23 0.121869 0.992546<227.673 705.424>
LayerCount: 2
Fore
SplineSet
377 572 m 2xd0
 349 255 l 2
 346 226 344 201 344 182 c 0
 344 140 354 123 377 123 c 0
 413 123 490 161 539 247 c 1
 581 218 l 1
 527 75 438 -23 292 -23 c 0
 201 -23 179 36 179 133 c 0xe0
 179 178 186 235 192 297 c 2
 227 614 l 2
 230 640 231 660 231 679 c 0
 231 728 221 757 197 757 c 0
 161 757 104 674 55 601 c 1
 8 633 l 1
 62 776 185 910 302 910 c 0
 377 910 395 848 395 770 c 0
 395 708 383 637 377 572 c 2xd0
529 16 m 0
294 926 m 0
EndSplineSet
EndChar

StartChar: e
Encoding: 101 101 177
Width: 602
VWidth: 0
Flags: W
HStem: -31 135<225.072 410.343> 793 107<285.95 433.317>
VStem: 8 161<168.43 357.059> 442 152<586.841 785.729>
LayerCount: 2
Fore
SplineSet
427 900 m 0
 528 900 594 835 594 721 c 0
 594 528 341 397 169 343 c 1
 172 197 219 104 331 104 c 0
 417 104 493 176 538 247 c 1
 575 214 l 1
 539 110 425 -31 253 -31 c 0
 99 -31 8 87 8 305 c 0
 8 584 209 900 427 900 c 0
169 416 m 1
 341 479 442 573 442 700 c 0
 442 762 419 793 362 793 c 0
 252 793 185 669 169 416 c 1
542 8 m 1
 542 8 l 1
302 0 m 1
 302 0 l 1
302 926 m 1
 302 926 l 1
302 926 m 1
 302 926 l 1
542 8 m 1
 542 8 l 1
302 0 m 1
 302 0 l 1
443 910 m 0
344 0 m 0
302 0 m 0
EndSplineSet
EndChar

StartChar: eight
Encoding: 56 56 184
Width: 734
VWidth: 0
Flags: W
HStem: 1093 86<327.46 513.514>
VStem: 10 172<128.107 376.054> 138 154<811.553 1017.53> 520 165<144.374 373.772> 562 162<779.562 1044.87>
LayerCount: 2
Fore
SplineSet
453 642 m 1xa8
 489 668 515 702 534 741 c 0
 560 798 568 864 562 926 c 0
 559 958 551 988 536 1017 c 0
 521 1046 497 1072 468 1085 c 0
 445 1095 423 1096 400 1093 c 0
 377 1090 354 1078 338 1062 c 0
 322 1046 308 1027 302 1004 c 0
 296 981 290 959 292 936 c 0xa8
 295 871 332 810 374 760 c 0
 419 705 474 656 523 607 c 0
 572 558 621 503 653 440 c 0
 679 386 691 324 685 266 c 0
 682 227 669 191 650 159 c 0
 631 127 604 98 575 75 c 0
 517 26 445 -3 370 -18 c 0
 297 -33 217 -31 149 0 c 0
 104 21 65 57 39 99 c 0
 13 141 5 195 10 244 c 0
 15 293 31 338 57 380 c 0
 83 422 114 458 146 494 c 0
 188 536 234 579 283 616 c 1
 331 583 l 1
 282 536 242 478 214 416 c 0
 195 374 184 331 182 286 c 0
 180 241 185 193 208 154 c 0
 223 128 244 105 270 89 c 0
 296 73 323 64 352 62 c 0
 397 60 445 82 476 114 c 0
 507 146 520 194 520 239 c 0xd0
 520 276 508 314 492 346 c 0
 476 378 453 410 427 439 c 0
 370 504 304 555 247 620 c 0
 215 657 181 702 162 747 c 0
 143 792 133 844 138 893 c 0
 143 940 160 986 188 1025 c 0
 216 1064 253 1095 292 1121 c 0
 349 1157 412 1179 479 1179 c 0
 546 1179 614 1153 659 1108 c 0
 685 1082 704 1050 715 1018 c 0
 726 986 727 950 724 914 c 0
 718 844 685 779 643 724 c 0
 604 675 555 630 500 598 c 1
 453 642 l 1xa8
EndSplineSet
EndChar

StartChar: emdash
Encoding: 8212 8212 187
Width: 1279
VWidth: 0
Flags: W
HStem: 403 102<97 1182>
LayerCount: 2
Fore
SplineSet
97 505 m 1
 1199 512 l 1
 1182 409 l 1
 81 403 l 1
 97 505 l 1
EndSplineSet
EndChar

StartChar: emptyset
Encoding: 8709 8709 188
Width: 974
VWidth: 0
Flags: W
HStem: -37 102<340.754 667.733> 809 105<442.438 756.418>
DStem2: 21 94 63 5 0.786318 0.617822<0 1242.16>
LayerCount: 2
Fore
SplineSet
223 435 m 0
 184 191 331 65 492 65 c 0
 677 65 832 188 871 437 c 0
 910 679 778 809 609 809 c 0
 424 809 259 662 223 435 c 0
997 435 m 0
 956 182 749 -37 476 -37 c 0
 224 -37 52 150 97 437 c 0
 138 687 394 914 625 914 c 0
 899 914 1039 701 997 435 c 0
21 94 m 1
 1015 875 l 1
 1057 786 l 1
 63 5 l 1
 21 94 l 1
EndSplineSet
EndChar

StartChar: endash
Encoding: 8211 8211 189
Width: 779
VWidth: 0
Flags: W
HStem: 403 102<97 682>
VStem: 81 617
LayerCount: 2
Fore
SplineSet
97 505 m 1
 698 512 l 1
 682 409 l 1
 81 403 l 1
 97 505 l 1
EndSplineSet
EndChar

StartChar: eng
Encoding: 331 331 190
Width: 1107
VWidth: 0
Flags: W
HStem: 728 175<551.408 715.5> 773 153<181.191 339>
VStem: 231 156<439.49 871.55> 653 167<324.876 800>
DStem2: 533.009 -378.341 689.83 -378.341 0.121869 0.992546<239.883 1032.58>
LayerCount: 2
Fore
SplineSet
346 575 m 1xb0
 356 643 387 747 387 823 c 0
 387 883 369 926 309 926 c 0
 173 926 55 776 8 653 c 1
 55 617 l 1
 96 687 167 773 193 773 c 0x70
 221 773 231 752 231 700 c 0
 231 679 229 655 227 624 c 2
 206 391 l 1
 123 6 l 1
 138 -21 l 1
 153 -23 167 -24 180 -24 c 0
 295 -24 345 71 351 349 c 1
 418 638 503 728 599 728 c 0
 631 728 653 716 653 648 c 0
 653 633 646 568 638 492 c 2
 619 322 l 2
 601 164 585 7 549 -146 c 0
 544 -167 539 -182 526 -198 c 0
 520 -204 512 -211 504 -214 c 0
 496 -219 483 -221 473 -223 c 0
 452 -226 430 -224 409 -221 c 0
 378 -215 346 -199 317 -180 c 0
 298 -165 274 -147 253 -128 c 1
 235 -144 223 -166 210 -187 c 1
 192 -223 184 -255 197 -292 c 0
 207 -318 225 -341 249 -356 c 0
 272 -371 299 -376 328 -378 c 0
 364 -380 399 -373 435 -362 c 0
 474 -351 508 -331 542 -310 c 1
 571 -289 600 -267 619 -239 c 1
 661 -192 687 -131 710 -71 c 1
 736 12 748 97 759 185 c 2
 810 620 l 2
 815 657 820 721 820 749 c 0
 820 851 762 903 669 903 c 0
 542 903 416 747 359 573 c 1
 346 575 l 1xb0
EndSplineSet
EndChar

StartChar: equal
Encoding: 61 61 192
Width: 781
VWidth: 0
Flags: W
HStem: 313 104<109 685> 549 104<149 726>
VStem: 81 673
LayerCount: 2
Fore
SplineSet
109 417 m 1
 713 417 l 1
 685 313 l 1
 81 313 l 1
 109 417 l 1
149 653 m 1
 754 653 l 1
 726 549 l 1
 122 549 l 1
 149 653 l 1
EndSplineSet
EndChar

StartChar: eth
Encoding: 240 240 193
Width: 938
VWidth: 0
Flags: W
HStem: -26 96<378.727 593.789> 793 91<414.833 636.065>
DStem2: 439 1088 419 1012 0.977094 0.21281<0 163.358 315.601 401.082>
LayerCount: 2
Fore
SplineSet
762 1088 m 1
 846 1104 l 1
 866 1181 l 1
 724 1150 l 1
 672 1218 623 1261 599 1282 c 1
 491 1282 l 1
 523 1243 567 1186 599 1121 c 1
 439 1088 l 1
 419 1012 l 1
 627 1052 l 1
 655 982 697 864 710 794 c 1
 703 794 l 1
 685 867 605 884 568 884 c 0
 371 884 174 734 138 443 c 0
 109 204 192 -26 447 -26 c 0
 647 -26 837 153 874 458 c 0
 908 744 843 952 762 1088 c 1
547 793 m 0
 651 790 736 648 708 417 c 0
 682 206 622 70 479 70 c 0
 352 70 281 223 310 491 c 1
 336 702 411 796 547 793 c 0
EndSplineSet
EndChar

StartChar: exclam
Encoding: 33 33 194
Width: 321
VWidth: 0
Flags: W
HStem: -36 250<47.1894 191.811>
VStem: 114 71<339 408.386>
LayerCount: 2
Fore
SplineSet
49 1262 m 1
 81 1192 104 1115 117 1039 c 0
 127 985 131 932 133 877 c 0
 135 804 134 732 132 659 c 0
 130 604 128 552 125 497 c 2
 114 326 l 1
 185 339 l 1
 260 702 l 2
 279 793 294 880 305 971 c 0
 311 1033 320 1094 309 1156 c 0
 303 1195 286 1234 257 1260 c 0
 231 1283 197 1295 161 1295 c 0
 122 1295 81 1285 49 1262 c 1
130 214 m 0
 145 214 162 214 175 208 c 0
 188 202 201 190 211 179 c 0
 221 166 228 150 231 132 c 0
 234 114 230 96 227 80 c 0
 221 51 207 23 184 0 c 0
 161 -23 132 -36 101 -36 c 1
 75 -34 47 -21 31 0 c 0
 21 13 13 29 10 45 c 0
 7 61 7 81 10 97 c 0
 16 126 31 152 52 175 c 0
 73 198 101 212 130 214 c 0
EndSplineSet
EndChar

StartChar: f
Encoding: 102 102 196
Width: 518
VWidth: 0
Flags: W
HStem: 763 111<440.304 580.583>
DStem2: 127 -151 318 179 0.0783376 0.996927<-12.5032 931.864>
LayerCount: 2
Fore
SplineSet
361 775 m 1
 578 763 l 1
 598 874 l 1
 367 853 l 1
 367 887 371 921 374 955 c 0
 377 984 378 1010 383 1038 c 0
 386 1054 388 1070 393 1085 c 0
 399 1104 409 1121 422 1134 c 0
 435 1147 457 1156 476 1156 c 0
 495 1156 515 1153 533 1143 c 0
 559 1130 580 1109 601 1088 c 0
 622 1067 640 1046 659 1023 c 1
 691 1042 717 1072 728 1108 c 0
 736 1134 735 1158 729 1184 c 0
 723 1210 709 1232 690 1251 c 0
 664 1277 626 1289 590 1291 c 0
 554 1293 515 1283 481 1270 c 0
 413 1241 354 1194 309 1134 c 0
 267 1074 238 1000 223 929 c 0
 218 906 214 882 211 858 c 1
 104 874 l 1
 91 770 l 1
 200 778 l 1
 167 315 l 2
 157 159 153 3 127 -151 c 0
 125 -161 122 -171 119 -179 c 0
 116 -187 110 -197 104 -203 c 0
 98 -209 89 -216 81 -219 c 0
 73 -224 65 -225 55 -227 c 0
 36 -230 13 -229 -8 -226 c 0
 -42 -220 -75 -204 -104 -185 c 0
 -127 -170 -148 -152 -169 -133 c 1
 -187 -149 -201 -171 -211 -192 c 0
 -219 -208 -225 -225 -227 -244 c 0
 -229 -262 -225 -281 -219 -297 c 0
 -209 -325 -190 -346 -166 -361 c 0
 -140 -376 -112 -381 -83 -383 c 0
 -47 -385 -13 -378 23 -367 c 0
 59 -356 95 -336 127 -315 c 1
 156 -294 178 -272 201 -244 c 0
 240 -197 265 -136 281 -76 c 0
 304 7 312 93 318 179 c 2
 361 775 l 1
EndSplineSet
EndChar

StartChar: five
Encoding: 53 53 197
Width: 820
VWidth: 0
Flags: W
HStem: -29 110<257.884 512.046> 604 146<299 399.169> 955 162<330.07 768.715> 976 141<340.577 608.281>
DStem2: 177 622 291 754 0.263938 0.96454<157.408 390.88>
LayerCount: 2
Fore
SplineSet
177 622 m 1xd0
 313 1119 l 1
 349 1117 383 1117 419 1117 c 0
 516 1117 611 1121 705 1140 c 0
 737 1146 770 1155 802 1165 c 1
 810 1142 814 1119 812 1096 c 0
 810 1070 804 1046 789 1023 c 0
 770 995 742 978 710 968 c 0
 678 958 643 955 611 955 c 0xe0
 553 955 495 959 437 965 c 0
 406 968 375 971 344 976 c 1
 291 754 l 1
 299 750 l 1
 348 753 398 748 445 737 c 0
 510 721 571 688 620 643 c 0
 664 601 699 549 718 491 c 0
 737 433 739 372 729 312 c 0
 718 241 687 172 642 117 c 0
 597 60 531 18 461 -5 c 0
 398 -28 332 -34 265 -29 c 0
 213 -26 159 -13 114 13 c 0
 67 39 28 84 15 136 c 0
 9 162 6 190 11 216 c 0
 16 242 29 268 47 289 c 0
 73 321 114 345 156 348 c 1
 159 322 166 296 172 270 c 0
 185 225 205 181 237 145 c 0
 266 113 309 89 351 81 c 0
 396 73 445 79 484 102 c 0
 526 125 560 163 573 208 c 0
 581 237 583 270 580 299 c 0
 577 328 566 356 555 385 c 0
 532 442 497 492 448 529 c 0
 406 561 354 584 299 594 c 0
 267 600 232 604 200 604 c 1
 177 622 l 1xd0
EndSplineSet
EndChar

StartChar: four
Encoding: 52 52 198
Width: 852
VWidth: 0
Flags: W
HStem: -11 21G<463.424 583.308> 234 136<478.164 810> 268 86<154 354.836>
VStem: 497 146<167.728 436.177> 565 172<945.38 1157.93>
DStem2: 8 325 154 354 0.712711 0.701458<124.398 684.35>
LayerCount: 2
Fore
SplineSet
620 15 m 1x90
 461 -11 l 1
 497 286 l 1
 497 325 l 1
 523 588 l 1
 692 705 l 1
 643 325 l 1
 643 286 l 1
 620 15 l 1x90
659 862 m 0
 565 743 454 638 344 534 c 2
 154 354 l 1xa8
 845 370 l 1
 810 234 l 1xc8
 23 268 l 1
 8 325 l 1
 198 512 l 2
 269 583 334 654 396 734 c 0
 458 814 510 902 539 999 c 0
 558 1061 565 1124 565 1189 c 1
 607 1199 657 1190 689 1161 c 0
 708 1145 723 1123 731 1100 c 0
 739 1077 740 1053 737 1027 c 0xa8
 734 998 725 965 710 939 c 0
 695 913 678 886 659 862 c 0
EndSplineSet
EndChar

StartChar: fraction
Encoding: 8260 8260 199
Width: 974
VWidth: 0
Flags: W
DStem2: -26 -369 106 -359 0.465769 0.884906<70.3306 1822.79>
LayerCount: 2
Fore
SplineSet
823 1244 m 1
 958 1252 l 1
 106 -359 l 1
 -26 -369 l 1
 823 1244 l 1
EndSplineSet
EndChar

StartChar: g
Encoding: 103 103 200
Width: 773
VWidth: 0
Flags: W
HStem: -390 72<174.347 495.11> 822 75<298.348 434.885>
VStem: -75 159<-253.469 -63.6387> 107 140<379.997 705.907> 546 162<-259.238 -89.115>
LayerCount: 2
Fore
SplineSet
533 806 m 1
 575 842 622 876 676 892 c 0
 695 898 715 900 734 897 c 0
 753 894 772 882 783 867 c 0
 796 851 802 830 799 809 c 0
 796 788 786 768 773 752 c 0
 758 733 739 716 720 705 c 1
 697 724 676 746 650 762 c 0
 639 770 625 777 612 780 c 0
 599 783 581 786 568 783 c 0
 558 780 550 774 542 768 c 1
 533 806 l 1
434 897 m 0
 479 892 521 869 552 835 c 0
 573 812 591 784 601 755 c 0
 611 726 617 697 620 666 c 0
 626 604 619 543 596 486 c 0
 581 450 559 416 533 387 c 0
 507 358 474 334 440 315 c 0
 412 299 383 287 351 281 c 0
 319 275 286 276 257 286 c 0
 228 296 202 315 179 338 c 0
 134 387 110 451 107 518 c 0
 105 572 117 623 136 672 c 0
 155 721 185 767 221 806 c 0
 249 835 282 861 318 877 c 0
 354 893 395 902 434 897 c 0
300 171 m 2
 368 145 439 120 507 91 c 0
 543 75 579 55 611 32 c 0
 643 9 671 -19 690 -55 c 0
 709 -89 714 -132 708 -171 c 0
 702 -202 689 -231 666 -257 c 0
 643 -281 619 -301 590 -317 c 0
 512 -361 426 -387 335 -390 c 0
 267 -393 197 -383 130 -367 c 0
 98 -359 68 -350 39 -335 c 0
 10 -322 -15 -302 -36 -276 c 0
 -60 -248 -75 -211 -75 -175 c 0
 -77 -138 -63 -102 -39 -73 c 0
 -8 -36 36 -13 81 8 c 0
 120 27 163 42 205 58 c 1
 292 36 l 1
 253 26 218 13 182 -6 c 0
 156 -21 133 -43 114 -67 c 1
 95 -95 84 -127 84 -159 c 0
 84 -178 91 -195 97 -211 c 0
 103 -226 116 -241 127 -252 c 0
 138 -263 152 -273 167 -279 c 0
 234 -313 308 -321 383 -318 c 0
 404 -318 426 -315 445 -310 c 0
 464 -304 484 -294 500 -281 c 0
 513 -270 527 -253 533 -237 c 0
 539 -221 546 -201 546 -182 c 0
 546 -159 539 -134 526 -115 c 0
 513 -97 497 -84 478 -73 c 0
 420 -39 352 -20 289 6 c 2
 231 29 l 2
 199 42 165 52 136 71 c 0
 126 77 116 83 110 91 c 0
 104 99 97 110 94 120 c 0
 91 131 91 145 94 156 c 0
 97 167 104 178 110 188 c 0
 129 217 154 240 180 263 c 0
 203 282 224 300 250 315 c 1
 305 291 l 1
 290 285 277 274 266 263 c 0
 253 250 243 233 237 214 c 0
 237 211 236 209 236 206 c 0
 236 203 235 201 237 198 c 0
 239 195 242 194 245 192 c 0
 248 190 250 190 253 188 c 2
 300 171 l 2
283 757 m 0
 257 700 249 637 247 575 c 0
 247 546 247 516 250 487 c 0
 253 458 261 429 276 403 c 0
 284 390 292 377 305 367 c 0
 318 357 333 351 348 351 c 0
 359 351 373 354 383 357 c 0
 393 360 403 368 413 374 c 0
 436 393 452 419 463 448 c 0
 495 529 496 622 473 705 c 0
 465 734 453 763 434 786 c 0
 426 796 414 806 403 812 c 0
 392 818 377 822 364 822 c 0
 345 822 326 815 313 802 c 0
 300 789 289 773 283 757 c 0
361 926 m 1
 361 926 l 1
387 926 m 1
 387 926 l 1
523 926 m 0
EndSplineSet
EndChar

StartChar: germandbls
Encoding: 223 223 204
Width: 998
VWidth: 0
Flags: W
HStem: -36 93<597.729 802.139>
VStem: 520 123<557.303 713.346> 822 146<107.894 263.332>
DStem2: 162 315 318 179 0.0694614 0.997585<-471.881 464.174> 760 486 611 413 0.747079 -0.664736<-195.927 259.625>
LayerCount: 2
Fore
SplineSet
822 172 m 0
 819 196 809 219 796 240 c 0
 783 259 765 278 747 296 c 0
 705 338 655 372 611 413 c 0
 587 436 562 458 546 487 c 0
 530 516 520 549 520 581 c 0
 520 607 523 632 533 656 c 0
 543 680 556 701 572 724 c 0
 611 779 665 823 715 867 c 0
 741 890 765 911 788 937 c 0
 811 963 827 995 835 1027 c 0
 841 1056 840 1085 830 1114 c 0
 820 1143 798 1167 772 1182 c 0
 753 1193 728 1202 705 1205 c 0
 682 1208 656 1208 633 1205 c 0
 594 1202 559 1194 523 1178 c 0
 478 1159 436 1122 413 1078 c 0
 400 1052 389 1026 383 997 c 0
 373 952 368 901 365 854 c 0
 365 838 361 825 361 809 c 0
 348 599 334 389 318 179 c 0
 312 95 304 7 281 -76 c 0
 265 -136 240 -195 201 -244 c 0
 178 -272 156 -294 127 -315 c 0
 95 -338 59 -356 23 -367 c 0
 -13 -377 -47 -383 -83 -383 c 1
 -112 -381 -142 -376 -166 -361 c 0
 -190 -346 -209 -323 -219 -297 c 0
 -232 -263 -231 -226 -218 -192 c 0
 -208 -169 -193 -149 -174 -133 c 1
 -155 -152 -133 -170 -109 -185 c 0
 -80 -204 -47 -221 -13 -226 c 0
 6 -229 28 -230 49 -227 c 0
 59 -225 66 -224 76 -219 c 0
 84 -216 93 -209 99 -203 c 0
 105 -197 111 -187 114 -179 c 0
 117 -171 120 -161 120 -151 c 0
 146 2 151 159 162 315 c 2
 195 778 l 1
 84 770 l 1
 99 874 l 1
 205 858 l 1
 208 884 217 910 223 936 c 0
 241 1001 267 1064 309 1116 c 0
 356 1173 423 1215 491 1241 c 0
 554 1267 622 1280 690 1283 c 0
 760 1288 833 1285 898 1259 c 0
 927 1249 952 1235 975 1212 c 0
 996 1189 1011 1163 1014 1134 c 0
 1017 1106 1013 1077 1002 1051 c 0
 992 1025 974 1004 955 983 c 0
 936 960 915 940 892 921 c 2
 781 825 l 2
 744 793 702 765 671 728 c 0
 663 718 655 705 650 692 c 0
 645 679 643 666 643 653 c 0
 643 640 645 625 650 612 c 0
 656 599 664 586 672 575 c 0
 698 543 728 514 760 486 c 0
 802 449 849 414 890 375 c 0
 911 356 929 333 942 309 c 0
 955 285 966 260 968 231 c 0
 970 207 967 182 957 159 c 0
 949 136 936 116 921 97 c 0
 887 55 842 25 793 2 c 0
 739 -22 680 -36 622 -36 c 0
 585 -36 548 -29 512 -16 c 0
 483 -5 454 11 435 34 c 0
 419 53 408 81 408 107 c 0
 408 126 413 145 421 161 c 0
 431 180 444 195 460 208 c 0
 479 221 500 231 523 234 c 1
 533 206 544 180 559 154 c 0
 574 128 593 103 616 84 c 0
 635 68 659 60 685 57 c 0
 711 54 734 60 757 70 c 0
 776 78 794 89 807 107 c 0
 820 126 825 149 822 172 c 0
EndSplineSet
EndChar

StartChar: germandbls.001
Encoding: 65537 -1 205
Width: 981
VWidth: 0
Flags: W
HStem: -34 88<574.753 757.641> 0 75<19 73.656> 772 66<145 191.194> 1158 107<508.168 702.835>
VStem: 393 120<122.359 177.105> 491 151<555.172 736.684> 716 159<934.516 1143.32> 789 143<105.802 264.257>
DStem2: 141 107 283 0 0.153479 0.988152<0 673.083>
LayerCount: 2
Fore
SplineSet
875 1064 m 0xb6
 875 1155 822 1265 651 1265 c 0
 495 1265 306 1085 261 874 c 1
 145 838 l 1
 128 772 l 1
 245 772 l 1
 141 107 l 1
 19 75 l 1
 3 0 l 1
 283 0 l 1
 429 940 l 2
 453 1099 505 1158 604 1158 c 0
 688 1158 716 1118 716 1048 c 0
 716 908 491 766 491 604 c 0x76
 491 372 789 309 789 179 c 0
 789 95 713 54 653 54 c 0
 595 54 547 104 513 244 c 1
 435 236 393 182 393 120 c 0
 393 40 471 -34 614 -34 c 0
 742 -34 932 69 932 240 c 0xb9
 932 432 642 485 642 669 c 0
 642 830 875 876 875 1064 c 0xb6
EndSplineSet
EndChar

StartChar: grave
Encoding: 96 96 206
Width: 623
VWidth: 0
Flags: W
HStem: 1307 363
VStem: 161 243
LayerCount: 2
Fore
SplineSet
161 1632 m 1
 274 1670 l 1
 404 1342 l 1
 348 1307 l 1
 161 1632 l 1
362 1223 m 0
EndSplineSet
EndChar

StartChar: greater
Encoding: 62 62 207
Width: 672
VWidth: 0
Flags: W
VStem: 44 676
LayerCount: 2
Fore
SplineSet
720 421 m 1
 94 -81 l 1
 44 -13 l 1
 491 447 l 1
 205 887 l 1
 271 957 l 1
 723 448 l 1
 720 421 l 1
EndSplineSet
EndChar

StartChar: guillemotleft
Encoding: 171 171 209
Width: 709
VWidth: 0
Flags: W
LayerCount: 2
Fore
SplineSet
393 461 m 1
 393 442 l 1
 591 76 l 1
 653 138 l 1
 538 453 l 1
 747 749 l 1
 711 807 l 1
 393 461 l 1
149 461 m 1
 149 442 l 1
 348 76 l 1
 409 138 l 1
 294 453 l 1
 504 749 l 1
 468 807 l 1
 149 461 l 1
EndSplineSet
EndChar

StartChar: guillemotright
Encoding: 187 187 210
Width: 709
VWidth: 0
Flags: W
VStem: 99 604
LayerCount: 2
Fore
SplineSet
460 461 m 1
 456 442 l 1
 141 76 l 1
 99 138 l 1
 315 453 l 1
 200 749 l 1
 252 807 l 1
 460 461 l 1
703 461 m 1
 700 442 l 1
 385 76 l 1
 343 138 l 1
 559 453 l 1
 443 749 l 1
 495 807 l 1
 703 461 l 1
EndSplineSet
EndChar

StartChar: guilsinglleft
Encoding: 8249 8249 211
Width: 466
VWidth: 0
Flags: W
VStem: 140 352
LayerCount: 2
Fore
SplineSet
140 461 m 1
 456 807 l 1
 492 749 l 1
 283 453 l 1
 398 138 l 1
 336 76 l 1
 138 442 l 1
 140 461 l 1
EndSplineSet
EndChar

StartChar: guilsinglright
Encoding: 8250 8250 212
Width: 466
VWidth: 0
Flags: W
LayerCount: 2
Fore
SplineSet
450 461 m 1
 240 807 l 1
 188 749 l 1
 304 453 l 1
 88 138 l 1
 130 76 l 1
 445 442 l 1
 450 461 l 1
EndSplineSet
EndChar

StartChar: h
Encoding: 104 104 213
Width: 888
VWidth: 0
Flags: W
HStem: -23 146<540 740.208> 718 175<436.801 599.5> 1174 73<52 114.742>
VStem: 481 164<64.5 504.467> 538 165<322.625 787.5>
DStem2: 35.3421 -23 189.51 -23 0.121869 0.992546<645.03 1178.79> 460.463 -23 615.62 -23 0.121869 0.992546<228.835 663.796>
LayerCount: 2
Fore
SplineSet
179 1147 m 1xe8
 42 1174 l 1
 52 1247 l 1
 341 1270 l 1
 357 1249 l 1
 294 828 l 1
 231 567 l 1
 244 564 l 1
 301 736 427 893 554 893 c 0
 645 893 703 838 703 737 c 0xe8
 703 708 700 647 695 611 c 2
 650 257 l 2
 647 228 645 203 645 184 c 0
 645 142 654 123 677 123 c 0
 713 123 791 161 840 247 c 1
 880 218 l 1
 826 75 740 -23 578 -23 c 0
 502 -23 481 27 481 102 c 0xf0
 481 157 490 228 500 299 c 2
 523 482 l 2
 533 558 538 622 538 637 c 0
 538 705 516 718 484 718 c 0
 390 718 304 637 237 348 c 1
 231 72 181 -23 67 -23 c 0
 54 -23 39 -21 23 -19 c 1
 8 8 l 1
 88 435 l 1
 179 1147 l 1xe8
445 461 m 1
 445 461 l 1
445 926 m 1
 445 926 l 1
445 461 m 1
 445 461 l 1
445 926 m 1
 445 926 l 1
445 463 m 0
586 926 m 0
EndSplineSet
EndChar

StartChar: hbar
Encoding: 295 295 214
Width: 888
VWidth: 0
Flags: W
HStem: -23 146<540 740.208> 718 175<436.801 599.5> 970 91<42 355.728> 989 80<133.272 463> 1174 73<52 114.742>
VStem: 481 164<64.5 504.467> 538 165<322.625 787.5>
DStem2: 35.3421 -23 189.51 -23 0.121869 0.992546<645.03 1178.79> 460.463 -23 615.62 -23 0.121869 0.992546<228.835 663.796>
LayerCount: 2
Fore
SplineSet
42 1061 m 1xe8
 478 1069 l 1
 463 989 l 1xd8
 26 970 l 1
 42 1061 l 1xe8
EndSplineSet
Refer: 213 104 N 1 0 0 1 0 0 2
EndChar

StartChar: hungarumlaut
Encoding: 733 733 215
Width: 765
VWidth: 0
Flags: W
HStem: 1337 253
VStem: 122 521
LayerCount: 2
Fore
SplineSet
643 1501 m 1
 357 1337 l 1
 330 1385 l 1
 572 1582 l 1
 643 1501 l 1
445 1506 m 1
 149 1337 l 1
 122 1385 l 1
 372 1590 l 1
 445 1506 l 1
236 1223 m 0
EndSplineSet
EndChar

StartChar: hyphen
Encoding: 45 45 216
Width: 560
VWidth: 0
Flags: W
HStem: 391 100<89 397.374> 409 99<159.626 479>
VStem: 78 413
LayerCount: 2
Fore
SplineSet
89 491 m 1xa0
 491 508 l 1
 479 409 l 1x60
 78 391 l 1
 89 491 l 1xa0
EndSplineSet
EndChar

StartChar: i
Encoding: 105 105 217
Width: 587
VWidth: 0
Flags: W
HStem: -23 146<246.5 442.603> 757 153<180.48 339.5> 1085 227<269 409.322>
VStem: 179 165<123.515 584.268> 231 164<269.095 809> 237 202<1113.9 1281.88>
DStem2: 152.709 -23 314.866 -23 0.121869 0.992546<227.673 705.424>
LayerCount: 2
Fore
SplineSet
352 1312 m 0xe4
 401 1312 439 1264 439 1215 c 0
 439 1147 390 1085 322 1085 c 0
 273 1085 237 1130 237 1179 c 0
 237 1241 284 1312 352 1312 c 0xe4
377 572 m 2
 349 255 l 2
 346 226 344 201 344 182 c 0
 344 140 354 123 377 123 c 0
 413 123 490 161 539 247 c 1
 581 218 l 1
 527 75 438 -23 292 -23 c 0
 201 -23 179 36 179 133 c 0xf0
 179 178 186 235 192 297 c 2
 227 614 l 2
 230 640 231 660 231 679 c 0
 231 728 221 757 197 757 c 0
 161 757 104 674 55 601 c 1
 8 633 l 1
 62 776 185 910 302 910 c 0
 377 910 395 848 395 770 c 0xe8
 395 708 383 637 377 572 c 2
EndSplineSet
EndChar

StartChar: infinity
Encoding: 8734 8734 224
Width: 1370
VWidth: 0
Flags: W
HStem: 200 156<225.393 501.254 900.514 1101.99> 710 149<224.192 443.688 848.386 1096.29>
VStem: 58 88<432.671 656.31> 1197 81<415.86 617.706>
LayerCount: 2
Fore
SplineSet
335 710 m 0
 208 710 146 637 146 531 c 0
 146 430 258 356 370 356 c 0
 471 356 578 404 619 456 c 1
 522 596 436 710 335 710 c 0
58 489 m 0
 58 707 203 859 375 859 c 0
 492 859 587 811 676 666 c 1
 685 668 l 1
 778 791 881 854 1004 854 c 0
 1163 854 1278 727 1278 542 c 0
 1278 357 1125 199 945 201 c 0
 804 201 713 311 661 400 c 1
 653 400 l 1
 564 259 455 200 349 200 c 0
 167 200 58 315 58 489 c 0
1039 356 m 0
 1127 356 1197 433 1197 517 c 0
 1197 627 1079 698 965 698 c 0
 829 698 767 642 720 598 c 1
 806 447 924 356 1039 356 c 0
EndSplineSet
EndChar

StartChar: integral
Encoding: 8747 8747 225
Width: 945
VWidth: 0
Flags: W
HStem: -378 104<179.653 347.302> 1179 104<811.835 1019.53>
DStem2: 387.954 -378 553.467 -378 0.121869 0.992546<261.568 1403.22>
LayerCount: 2
Fore
SplineSet
427 -60 m 1
 401 -229 346 -274 273 -274 c 0
 211 -274 147 -203 115 -154 c 1
 81 -167 21 -216 15 -265 c 0
 5 -345 80 -378 184 -378 c 0
 324 -378 569 -263 614 115 c 1
 721 965 l 1
 747 1134 804 1179 877 1179 c 0
 939 1179 1001 1108 1035 1059 c 1
 1069 1072 1129 1120 1135 1169 c 0
 1145 1249 1070 1283 966 1283 c 0
 826 1283 579 1145 534 773 c 1
 427 -60 l 1
EndSplineSet
EndChar

StartChar: j
Encoding: 106 106 227
Width: 594
VWidth: 0
Flags: W
HStem: 1075 237<408.273 555.985>
VStem: 356 167<276.75 753.904> 374 214<1106.91 1278.77>
DStem2: 252.472 -383.341 406.163 -383.341 0.121869 0.992546<191.552 664.109 821.341 925.519 1007.34 1088.8>
LayerCount: 2
Fore
SplineSet
512 624 m 2xc0
 517 678 525 729 523 783 c 0
 523 806 519 827 513 848 c 0
 507 869 492 889 473 900 c 0
 450 913 426 916 400 911 c 0
 374 906 353 893 330 880 c 0
 265 841 213 783 174 718 c 0
 158 692 143 662 132 633 c 1
 182 598 l 1
 195 624 211 646 227 669 c 2
 271 726 l 2
 279 736 289 744 299 750 c 0
 304 753 309 755 315 755 c 0
 321 755 328 757 333 754 c 0
 338 752 341 747 344 744 c 0
 347 741 349 736 351 731 c 0
 354 721 356 712 356 702 c 0
 356 679 356 660 354 637 c 2
 344 523 l 1
 318 232 l 2
 305 74 291 -94 281 -151 c 0
 279 -161 277 -171 274 -179 c 0
 271 -187 266 -197 260 -203 c 0
 254 -209 245 -216 237 -219 c 0
 229 -224 220 -225 210 -227 c 0
 191 -230 169 -229 148 -226 c 0
 114 -220 81 -204 52 -185 c 0
 29 -170 8 -152 -13 -133 c 1
 -31 -149 -45 -171 -55 -192 c 0
 -63 -208 -69 -225 -71 -244 c 0
 -73 -262 -69 -281 -63 -297 c 0
 -53 -325 -34 -346 -10 -361 c 0
 16 -376 44 -381 73 -383 c 0
 109 -385 145 -378 179 -367 c 0
 216 -356 251 -336 283 -315 c 1
 311 -294 334 -272 357 -244 c 0
 394 -197 421 -136 437 -76 c 0
 460 7 467 75 473 161 c 2
 512 624 l 2xc0
495 1312 m 0
 511 1312 529 1306 542 1296 c 0
 555 1286 569 1275 575 1260 c 0
 581 1245 588 1228 588 1212 c 0
 588 1189 582 1164 572 1143 c 0
 562 1124 547 1108 528 1095 c 0
 509 1082 488 1075 465 1075 c 0
 449 1075 430 1080 417 1088 c 0
 404 1096 393 1109 387 1124 c 0
 381 1139 374 1157 374 1173 c 0xa0
 374 1196 380 1219 390 1238 c 0
 400 1257 413 1277 432 1290 c 0
 451 1303 472 1312 495 1312 c 0
EndSplineSet
EndChar

StartChar: k
Encoding: 107 107 228
Width: 800
VWidth: 0
Flags: W
HStem: -13 136<488.5 668.119> 724 176<440.292 602.5> 1174 73<55 117.742>
VStem: 541 166<577.53 794.5> 752 41<216.654 226.839>
DStem2: 452 396 287 396 0.334705 -0.942323<-3.84816 304.99>
LayerCount: 2
Fore
SplineSet
299 413 m 1
 452 439 541 513 541 643 c 0
 541 705 511 724 479 724 c 0
 385 724 307 637 240 348 c 1
 234 88 194 -26 84 -26 c 0
 63 -26 41 -21 15 -13 c 1
 8 0 l 1
 91 442 l 1
 182 1147 l 1
 45 1174 l 1
 55 1247 l 1
 344 1270 l 1
 361 1249 l 1
 299 835 l 1
 234 573 l 1
 247 568 l 1
 304 740 430 900 557 900 c 0
 648 900 707 845 707 744 c 0
 707 552 553 435 452 396 c 1
 495 283 l 2
 537 173 569 123 601 123 c 0
 650 123 707 171 752 247 c 1
 793 216 l 1
 751 83 657 -13 534 -13 c 0
 443 -13 391 99 352 213 c 2
 287 396 l 1
 299 413 l 1
401 0 m 1
 401 0 l 1
401 0 m 1
 401 0 l 1
338 0 m 0
EndSplineSet
EndChar

StartChar: l
Encoding: 108 108 230
Width: 443
VWidth: 0
Flags: W
HStem: -24 146<89.5 293.557> 1174 73<19 80.7419>
VStem: 26 172<78 519.188>
DStem2: 2.70894 -24 166.989 -24 0.121869 0.992546<235.104 1179.61>
LayerCount: 2
Fore
SplineSet
42 296 m 2
 117 888 l 1
 145 1147 l 1
 8 1174 l 1
 19 1247 l 1
 299 1270 l 1
 315 1249 l 1
 240 625 l 1
 201 253 l 2
 198 227 198 207 198 188 c 0
 198 143 207 122 231 122 c 0
 267 122 344 161 393 247 c 1
 435 216 l 1
 381 73 292 -24 130 -24 c 0
 49 -24 26 36 26 120 c 0
 26 172 34 234 42 296 c 2
427 926 m 1
 427 926 l 1
221 0 m 1
 221 0 l 1
221 926 m 1
 221 926 l 1
221 926 m 1
 221 926 l 1
427 926 m 1
 427 926 l 1
221 0 m 1
 221 0 l 1
223 1252 m 0
411 926 m 0
206 -32 m 0
EndSplineSet
EndChar

StartChar: less
Encoding: 60 60 234
Width: 672
VWidth: 0
Flags: W
LayerCount: 2
Fore
SplineSet
107 421 m 1
 573 -81 l 1
 646 -13 l 1
 343 447 l 1
 768 887 l 1
 724 957 l 1
 114 448 l 1
 107 421 l 1
EndSplineSet
EndChar

StartChar: lessequal
Encoding: 8804 8804 235
Width: 704
VWidth: 0
Flags: W
HStem: -263 102<64 634>
VStem: 31 635
LayerCount: 2
Fore
SplineSet
112 421 m 1
 578 -81 l 1
 651 -13 l 1
 348 447 l 1
 773 887 l 1
 729 957 l 1
 119 448 l 1
 112 421 l 1
EndSplineSet
Refer: 243 8722 N 1 0 0 1 -50 -666 2
EndChar

StartChar: logicalnot
Encoding: 172 172 236
Width: 940
VWidth: 0
Flags: W
HStem: 549 104<145 759>
DStem2: 723 326 827.79 326 0.121869 0.992546<30.9059 225.725>
LayerCount: 2
Fore
SplineSet
145 653 m 1
 877 653 l 1
 830 344 l 1
 723 326 l 1
 759 549 l 1
 117 549 l 1
 145 653 l 1
EndSplineSet
EndChar

StartChar: longs
Encoding: 383 383 237
Width: 529
VWidth: 0
Flags: W
HStem: -383 154<-104.547 89.5234> 1156 135<434.609 577.111>
DStem2: 127 -151 318 179 0.0754537 0.997149<-9.31212 931.86>
LayerCount: 2
Fore
SplineSet
318 179 m 1
 312 93 304 7 281 -76 c 0
 265 -136 240 -195 201 -244 c 0
 178 -272 156 -294 127 -315 c 0
 95 -338 59 -356 23 -367 c 0
 -9 -377 -41 -383 -75 -383 c 2
 -83 -383 l 1
 -112 -381 -140 -376 -166 -361 c 0
 -190 -348 -209 -325 -219 -297 c 0
 -224 -284 -227 -270 -227 -255 c 0
 -227 -252 -226 -247 -226 -244 c 0
 -224 -225 -219 -208 -211 -192 c 0
 -201 -171 -187 -149 -169 -133 c 1
 -148 -152 -127 -170 -104 -185 c 0
 -75 -204 -42 -221 -8 -226 c 0
 5 -228 17 -229 28 -229 c 0
 38 -229 45 -229 55 -227 c 0
 65 -225 71 -224 81 -219 c 0
 89 -216 98 -209 104 -203 c 0
 110 -197 116 -187 119 -179 c 0
 122 -171 125 -161 127 -151 c 0
 153 2 157 159 167 315 c 2
 200 778 l 1
 91 770 l 1
 104 874 l 1
 211 858 l 1
 214 882 218 906 223 929 c 0
 238 1000 265 1074 309 1134 c 0
 353 1196 413 1241 481 1270 c 0
 512 1283 546 1291 578 1291 c 2
 590 1291 l 1
 626 1289 664 1277 690 1251 c 0
 709 1233 722 1210 728 1184 c 0
 731 1174 733 1161 733 1150 c 0
 733 1137 731 1121 728 1108 c 0
 718 1072 691 1042 659 1023 c 1
 641 1046 622 1067 601 1088 c 0
 580 1109 559 1130 533 1143 c 0
 517 1151 498 1156 479 1156 c 2
 476 1156 l 2
 457 1156 435 1147 422 1134 c 0
 409 1121 399 1104 393 1085 c 0
 388 1069 386 1054 383 1038 c 0
 378 1010 377 983 374 955 c 0
 345 698 324 437 318 179 c 1
EndSplineSet
EndChar

StartChar: lozenge
Encoding: 9674 9674 238
Width: 929
VWidth: 0
Flags: W
HStem: 133 653
VStem: 187 636
LayerCount: 2
Fore
SplineSet
823 465 m 1
 466 133 l 1
 187 466 l 1
 544 786 l 1
 823 465 l 1
EndSplineSet
EndChar

StartChar: lslash
Encoding: 322 322 239
Width: 443
VWidth: 0
Flags: W
HStem: -24 146<89.5 293.557> 1174 73<19 80.7419>
VStem: -91 567 26 172<78 519.188>
DStem2: -91 473 -58 380 0.748568 0.663058<0 676.4> 2.70894 -24 166.989 -24 0.121869 0.992546<235.104 1179.61>
LayerCount: 2
Fore
SplineSet
-58 380 m 1xe0
 -91 473 l 1
 442 947 l 1
 476 853 l 1
 -58 380 l 1xe0
EndSplineSet
Refer: 230 108 N 1 0 0 1 0 0 2
EndChar

StartChar: m
Encoding: 109 109 240
Width: 1413
VWidth: 0
Flags: W
HStem: -26 146<1097.3 1264.74> 715 177<551.549 714.5 950.011 1120.5> 763 153<180.923 339>
VStem: 231 156<430.513 861.999> 646 160<449.956 810> 1004 165<61.5 485.699> 1062 163<302.727 784.5>
DStem2: 984.972 -32 1139.01 -32 0.121869 0.992546<233.736 668.698>
LayerCount: 2
Fore
SplineSet
806 763 m 0xba
 806 706 799 649 789 620 c 1
 799 616 l 1
 862 775 948 893 1075 893 c 0
 1166 893 1225 835 1225 734 c 0xba
 1225 705 1223 643 1218 607 c 2
 1174 253 l 2
 1171 224 1169 199 1169 180 c 0
 1169 138 1179 120 1202 120 c 0
 1238 120 1315 158 1364 244 c 1
 1407 214 l 1
 1353 71 1263 -26 1101 -26 c 0
 1025 -26 1004 24 1004 99 c 0xbc
 1004 154 1015 223 1025 294 c 2
 1048 479 l 2
 1058 555 1062 618 1062 633 c 0
 1062 701 1039 718 1007 718 c 0
 913 718 834 633 767 344 c 1
 761 66 715 -32 601 -32 c 0
 588 -32 574 -31 559 -29 c 1
 544 -2 l 1
 622 380 l 1
 633 456 646 620 646 635 c 0
 646 703 620 715 588 715 c 0xda
 500 715 418 635 351 346 c 1
 345 70 296 -23 182 -23 c 0
 169 -23 154 -21 138 -19 c 1
 123 8 l 1
 206 380 l 1
 227 614 l 2
 230 645 231 668 231 689 c 0
 231 741 221 763 193 763 c 0
 167 763 94 677 55 607 c 1
 8 643 l 1
 53 766 173 916 309 916 c 0xba
 369 916 387 872 387 814 c 0
 387 738 356 633 346 565 c 1
 357 562 l 1
 414 734 542 892 669 892 c 0xda
 760 892 806 857 806 763 c 0xba
EndSplineSet
EndChar

StartChar: macron
Encoding: 175 175 241
Width: 690
VWidth: 0
Flags: W
HStem: 1356 99<135 555>
VStem: 122 446
LayerCount: 2
Fore
SplineSet
135 1455 m 1
 568 1455 l 1
 555 1356 l 1
 122 1356 l 1
 135 1455 l 1
338 1223 m 0
EndSplineSet
EndChar

StartChar: micro
Encoding: 181 181 242
Width: 852
VWidth: 0
Flags: W
HStem: -19 134<247.473 416.218> 759 74<44 89.6576 463 530.121>
VStem: 8 124<-359.006 -95.4294>
DStem2: 31.423 -382 186.033 -382 0.121869 0.992546<545.83 1114.28> 463.38 -382 611.403 -382 0.121869 0.992546<541.023 1122.63>
LayerCount: 2
Fore
SplineSet
517 128 m 1
 526 128 l 1
 518 26 560 -15 646 -15 c 0
 700 -15 751 0 783 15 c 1
 799 83 l 1
 734 94 l 2
 689 102 675 130 703 364 c 1
 763 832 l 1
 741 854 l 1
 463 830 l 1
 455 757 l 1
 586 734 l 1
 526 197 l 1
 494 165 443 115 352 115 c 0
 285 115 252 162 271 310 c 2
 338 830 l 1
 313 854 l 1
 44 833 l 1
 36 759 l 1
 167 724 l 1
 138 486 l 2
 102 199 13 -330 8 -356 c 1
 132 -382 l 1
 146 -99 l 2
 151 -36 153 0 153 23 c 1
 161 23 l 1
 179 -6 217 -19 279 -19 c 0
 396 -19 491 76 517 128 c 1
EndSplineSet
EndChar

StartChar: minus
Encoding: 8722 8722 243
Width: 779
VWidth: 0
Flags: W
HStem: 403 102<114 684>
VStem: 81 635
LayerCount: 2
Fore
SplineSet
114 505 m 1
 716 512 l 1
 684 409 l 1
 81 403 l 1
 114 505 l 1
EndSplineSet
EndChar

StartChar: mu
Encoding: 956 956 244
Width: 989
VWidth: 0
Flags: W
HStem: -26 133<335.5 531.557> -6 84<947 971> 778 93<616 648.547>
VStem: 75 131<-367.845 -172.376>
DStem2: 98.9673 -391 266.946 -391 0.121869 0.992546<682.571 1140.38> 612.908 -391 779.715 -391 0.121869 0.992546<595.234 1136.3>
LayerCount: 2
Fore
SplineSet
208 497 m 2xb0
 237 741 l 1
 107 796 l 1
 130 877 l 1
 403 898 l 1
 422 874 l 1
 354 318 l 2
 351 299 351 281 351 265 c 0
 351 153 406 107 486 107 c 0xb0
 577 107 627 149 684 188 c 1
 750 737 l 1
 594 778 l 1
 616 871 l 1
 916 898 l 1
 934 874 l 1
 854 214 l 2
 852 201 851 189 851 179 c 0
 851 106 890 101 947 88 c 2
 991 78 l 1
 971 -6 l 1x70
 906 -21 877 -26 817 -26 c 0
 726 -26 685 26 685 97 c 0
 685 105 687 114 687 122 c 0
 687 127 689 125 689 130 c 1
 676 130 l 1
 572 29 481 -26 367 -26 c 0
 304 -26 260 -3 234 39 c 1
 227 39 l 1
 227 29 227 10 227 -16 c 0
 227 -35 228 -58 226 -86 c 2
 206 -391 l 1
 75 -365 l 1
 80 -337 172 203 208 497 c 2xb0
EndSplineSet
EndChar

StartChar: multiply
Encoding: 215 215 245
Width: 560
VWidth: 0
Flags: W
HStem: 224 450
VStem: 62 495
DStem2: 62 305 117 224 0.761684 0.647949<0 226.679 339.977 566.883> 188 674 99 609 0.657106 -0.753798<0 193.994 298.301 497.282>
LayerCount: 2
Fore
SplineSet
299 382 m 1
 117 224 l 1
 62 305 l 1
 232 455 l 1
 99 609 l 1
 188 674 l 1
 322 523 l 1
 504 681 l 1
 557 598 l 1
 385 450 l 1
 521 292 l 1
 432 227 l 1
 299 382 l 1
EndSplineSet
EndChar

StartChar: n
Encoding: 110 110 246
Width: 1003
VWidth: 0
Flags: W
HStem: -24 146<654.5 855.557> 724 176<551.069 714.5> 772 154<180.923 339>
VStem: 231 156<438.755 870.876> 594 166<63.5 493.98> 653 166<330.898 796.5>
DStem2: 206 390 351 346 0.251946 0.967741<-395.427 56.9153> 576.218 -28 730.498 -28 0.121869 0.992546<231.719 674.623>
LayerCount: 2
Fore
SplineSet
351 346 m 1xd4
 345 68 295 -28 180 -28 c 0
 167 -28 153 -26 138 -24 c 1
 123 3 l 1
 206 390 l 1
 227 622 l 2
 230 653 231 677 231 698 c 0
 231 750 221 772 193 772 c 0
 167 772 94 686 55 616 c 1
 8 653 l 1
 53 776 173 926 309 926 c 0xb4
 369 926 387 880 387 822 c 0
 387 746 356 643 346 575 c 1
 357 570 l 1
 414 742 542 900 669 900 c 0
 760 900 819 847 819 746 c 0xd4
 819 717 814 653 809 617 c 2
 765 253 l 2
 762 224 760 201 760 182 c 0
 760 140 770 122 793 122 c 0
 829 122 906 161 955 247 c 1
 997 216 l 1
 943 73 854 -24 692 -24 c 0
 617 -24 594 26 594 101 c 0xd8
 594 156 608 225 616 296 c 2
 638 489 l 2
 648 565 653 628 653 643 c 0
 653 711 630 724 598 724 c 0
 504 724 418 635 351 346 c 1xd4
502 0 m 1
 502 0 l 1
502 926 m 1
 502 926 l 1
502 0 m 1
 502 0 l 1
502 926 m 1
 502 926 l 1
469 0 m 0
596 926 m 0
EndSplineSet
EndChar

StartChar: nine
Encoding: 57 57 251
Width: 724
VWidth: 0
Flags: W
HStem: -15 158<175.555 373.111> 435 125<240.506 453.319>
VStem: 547 169<429.989 980.552>
LayerCount: 2
Fore
SplineSet
716 791 m 0
 713 879 696 968 651 1043 c 0
 625 1087 587 1124 542 1150 c 0
 497 1176 445 1188 393 1186 c 0
 335 1184 280 1166 231 1134 c 0
 182 1102 142 1059 110 1010 c 0
 74 956 52 897 39 835 c 0
 26 773 23 708 36 646 c 0
 44 607 58 568 81 536 c 0
 104 504 139 476 175 458 c 0
 220 437 269 430 318 435 c 0
 360 440 403 454 442 473 c 0
 491 497 531 533 560 578 c 1
 559 650 l 1
 553 637 540 624 529 614 c 0
 518 604 502 594 489 588 c 0
 460 575 428 565 396 560 c 0
 355 554 312 559 276 578 c 0
 257 589 237 605 224 624 c 0
 211 643 201 662 195 685 c 0
 182 732 179 784 182 833 c 0
 185 882 190 933 208 978 c 0
 216 1001 229 1024 245 1043 c 0
 261 1062 282 1079 305 1087 c 0
 331 1097 361 1096 387 1090 c 0
 413 1084 439 1068 458 1049 c 0
 487 1020 507 979 520 937 c 0
 535 892 544 845 547 796 c 0
 557 682 551 564 536 450 c 0
 526 379 513 306 474 244 c 0
 458 218 439 194 413 175 c 0
 387 156 357 146 325 143 c 0
 296 140 270 141 244 151 c 0
 218 161 192 176 169 192 c 0
 137 218 110 248 91 284 c 1
 52 265 21 227 11 185 c 0
 1 143 13 96 39 60 c 0
 58 34 85 16 114 3 c 0
 143 -10 173 -15 205 -15 c 0
 275 -17 343 8 401 45 c 0
 459 82 507 133 549 188 c 0
 614 276 661 378 687 484 c 0
 713 585 719 687 716 791 c 0
EndSplineSet
EndChar

StartChar: notequal
Encoding: 8800 8800 252
Width: 781
VWidth: 0
Flags: W
HStem: 313 104<128 250 452 708> 549 104<161 452 656 741>
VStem: 97 666
DStem2: 97 127 224 130 0.635997 0.771692<83.0867 240.842 449.569 551.433 761.432 844.945>
LayerCount: 2
Fore
SplineSet
632 781 m 1
 763 784 l 1
 656 653 l 1
 765 653 l 1
 741 549 l 1
 560 549 l 1
 452 417 l 1
 733 417 l 1
 708 313 l 1
 377 313 l 1
 224 130 l 1
 97 127 l 1
 250 313 l 1
 104 313 l 1
 128 417 l 1
 344 417 l 1
 452 549 l 1
 136 549 l 1
 161 653 l 1
 529 653 l 1
 632 781 l 1
EndSplineSet
EndChar

StartChar: numbersign
Encoding: 35 35 254
Width: 924
VWidth: 0
Flags: W
DStem2: 227 167 333 175 0.296438 0.955052<39.0629 198.06 332.333 520.016 653.992 806.173> 529 167 635 175 0.299052 0.954237<39.3334 198.052 332.893 520.011 654.254 805.88>
LayerCount: 2
Fore
SplineSet
385 357 m 1
 585 357 l 1
 529 167 l 1
 635 175 l 1
 685 357 l 1
 838 357 l 1
 877 456 l 1
 720 456 l 1
 783 664 l 1
 942 664 l 1
 981 763 l 1
 815 763 l 1
 872 944 l 1
 770 936 l 1
 715 763 l 1
 513 763 l 1
 572 945 l 1
 469 936 l 1
 413 763 l 1
 260 763 l 1
 221 664 l 1
 380 664 l 1
 317 456 l 1
 158 456 l 1
 117 357 l 1
 283 357 l 1
 227 167 l 1
 333 175 l 1
 385 357 l 1
417 456 m 1
 481 664 l 1
 682 664 l 1
 617 456 l 1
 417 456 l 1
EndSplineSet
EndChar

StartChar: o
Encoding: 111 111 255
Width: 677
VWidth: 0
Flags: W
HStem: -26 117<251.277 426.891> 786 112<252.337 428.69>
VStem: 8 141<230.549 597.523> 526 143<282.111 658.763>
LayerCount: 2
Fore
SplineSet
276 -26 m 0
 104 -26 8 144 8 354 c 0
 8 638 180 898 401 898 c 0
 555 898 669 746 669 541 c 0
 669 280 526 -26 276 -26 c 0
336 786 m 0
 200 786 149 606 149 461 c 0
 149 299 216 91 343 91 c 0
 470 91 526 277 526 426 c 0
 526 585 463 786 336 786 c 0
339 926 m 1
 339 926 l 1
339 926 m 1
 339 926 l 1
401 893 m 0
EndSplineSet
EndChar

StartChar: oe
Encoding: 339 339 260
Width: 1279
VWidth: 0
Flags: W
HStem: -26 117<434.873 613.413 915.785 1093.1> 786 112<436.337 612.555 962.974 1114.47>
VStem: 192 141<230.699 594.881> 710 135<277 343> 1121 152<586.841 785.354>
LayerCount: 2
Fore
SplineSet
783 218 m 0
 716 80 606 -26 460 -26 c 0
 288 -26 192 144 192 354 c 0
 192 638 364 898 585 898 c 0
 707 898 804 804 840 664 c 0
 850 625 830 317 783 218 c 0
520 786 m 0
 384 786 333 608 333 463 c 0
 333 299 399 91 526 91 c 0
 653 91 710 277 710 426 c 0
 710 585 647 786 520 786 c 0
802 689 m 0
 882 808 990 900 1104 900 c 0
 1205 900 1273 835 1273 721 c 0
 1273 528 1017 397 845 343 c 1
 848 197 895 104 1007 104 c 0
 1093 104 1170 176 1215 247 c 1
 1251 214 l 1
 1215 110 1101 -31 929 -31 c 0
 809 -31 734 39 700 171 c 0
 687 221 770 640 802 689 c 0
848 416 m 1
 1020 479 1121 573 1121 700 c 0
 1121 762 1096 793 1039 793 c 0
 930 793 864 669 848 416 c 1
1221 8 m 1
 1221 8 l 1
979 0 m 1
 979 0 l 1
979 926 m 1
 979 926 l 1
979 926 m 1
 979 926 l 1
1221 8 m 1
 1221 8 l 1
979 0 m 1
 979 0 l 1
640 926 m 0
EndSplineSet
EndChar

StartChar: ogonek
Encoding: 731 731 261
Width: 511
VWidth: 0
Flags: W
HStem: -380 50<355.711 365.748>
VStem: 122 146<-265.475 -90.3123>
LayerCount: 2
Fore
SplineSet
268 -146 m 0
 268 -208 301 -278 390 -330 c 1
 356 -380 l 1
 215 -365 122 -289 122 -205 c 0
 122 -153 139 -101 258 3 c 1
 328 3 l 1
 270 -93 268 -128 268 -146 c 0
289 3 m 0
EndSplineSet
EndChar

StartChar: one
Encoding: 49 49 265
Width: 534
VWidth: 0
Flags: W
HStem: -15 21G<217.5 427> 828 135<26.8894 199.934>
VStem: 206 221<-8 158.457>
LayerCount: 2
Fore
SplineSet
206 -15 m 1
 229 118 252 249 273 382 c 0
 307 600 336 820 365 1039 c 1
 357 1036 l 1
 347 1010 338 986 325 960 c 0
 310 931 292 899 266 875 c 0
 242 852 212 835 180 825 c 0
 148 817 113 817 84 828 c 0
 58 838 36 854 23 880 c 0
 10 906 5 935 11 963 c 1
 112 969 212 1002 296 1057 c 0
 335 1083 368 1111 400 1143 c 1
 526 1158 l 1
 481 619 l 1
 427 -8 l 1
 206 -15 l 1
EndSplineSet
EndChar

StartChar: onehalf
Encoding: 189 189 266
Width: 1029
VWidth: 0
Flags: W
HStem: 422 52<822.972 909.607> 494 37<151 204.604 342.922 395> 880 38<223 279.569>
VStem: 733 58<315.488 393.502>
DStem2: 132 -29 239 -21 0.650341 0.759642<75.6637 1280.87> 165.417 -29 246.785 -29 0.121869 0.992546<594.272 916.049> 666 50 757 70 0.759902 0.650037<82.1519 336.265>
LayerCount: 2
Fore
SplineSet
862 422 m 0
 911 422 926 377 918 325 c 0
 910 276 879 231 832 192 c 2
 666 50 l 1
 663 0 l 1
 955 0 l 1
 975 70 l 1
 757 70 l 1
 832 128 l 2
 942 212 994 255 1009 346 c 0
 1022 422 974 474 903 474 c 0
 841 474 741 419 733 362 c 0
 727 321 744 308 791 305 c 1
 799 352 817 422 862 422 c 0
383 955 m 1
 369 955 l 1
 223 918 l 1
 213 880 l 1
 287 879 l 1
 237 554 l 1
 151 531 l 1
 143 494 l 1
 395 494 l 1
 406 534 l 1
 318 551 l 1
 383 955 l 1
965 944 m 1
 132 -29 l 1
 239 -21 l 1
 1069 952 l 1
 965 944 l 1
EndSplineSet
EndChar

StartChar: onequarter
Encoding: 188 188 267
Width: 1028
VWidth: 0
Flags: W
HStem: -114 38<702 753.479 883.883 932> 494 37<151 205.851 344.355 396> 880 38<223 279.957>
DStem2: 132 -29 240 -21 0.650341 0.759642<76.314 1280.87> 156.98 -114 238.348 -114 0.121869 0.992546<679.91 1001.69> 580 136 646 146 0.656997 0.753893<50.9008 364.258> 773.633 -114 857.001 -114 0.121869 0.992546<67.5881 200.225 275.831 275.831>
LayerCount: 2
Fore
SplineSet
858 455 m 1
 580 136 l 1
 578 84 l 1
 804 84 l 1
 781 -54 l 1
 702 -76 l 1
 692 -114 l 1
 932 -114 l 1
 945 -73 l 1
 864 -57 l 1
 887 84 l 1
 968 84 l 1
 986 149 l 1
 895 149 l 1
 947 469 l 1
 858 455 l 1
815 146 m 1
 646 146 l 1
 851 383 l 1
 815 146 l 1
385 955 m 1
 370 955 l 1
 223 918 l 1
 213 880 l 1
 289 879 l 1
 239 554 l 1
 151 531 l 1
 143 494 l 1
 396 494 l 1
 406 534 l 1
 320 551 l 1
 385 955 l 1
965 944 m 1
 132 -29 l 1
 240 -21 l 1
 1069 952 l 1
 965 944 l 1
EndSplineSet
EndChar

StartChar: onesuperior
Encoding: 185 185 268
Width: 217
VWidth: 0
Flags: W
HStem: 1223 23<236 276>
DStem2: 240.58 992 289.703 992 0.121869 0.992546<41.2494 233.595>
LayerCount: 2
Fore
SplineSet
331 1269 m 1
 323 1269 l 1
 236 1246 l 1
 231 1223 l 1
 276 1223 l 1
 245 1028 l 1
 193 1015 l 1
 187 992 l 1
 338 992 l 1
 346 1017 l 1
 294 1027 l 1
 331 1269 l 1
EndSplineSet
EndChar

StartChar: ordfeminine
Encoding: 170 170 269
Width: 397
VWidth: 0
Flags: W
HStem: 400 42<164.5 259.128> 567 27<258.748 317> 724 39<239.32 350.732>
VStem: 171 48<654.21 709.88>
DStem2: 279.32 283 343.479 283 0.121869 0.992546<178.789 286.475 303.336 434.753>
LayerCount: 2
Fore
SplineSet
88 339 m 1
 71 283 l 1
 404 283 l 1
 421 339 l 1
 88 339 l 1
304 484 m 1
 291 468 261 442 229 442 c 0
 201 442 187 457 192 489 c 0
 198 526 216 552 317 567 c 1
 304 484 l 1
414 409 m 1
 426 443 l 1
 406 447 l 2
 370 452 365 463 370 499 c 2
 393 642 l 2
 406 725 385 763 315 763 c 0
 260 763 171 728 171 681 c 0
 171 650 198 648 219 648 c 1
 232 697 239 724 276 724 c 0
 328 724 333 674 325 620 c 1
 320 594 l 1
 175 568 120 525 120 458 c 0
 120 422 144 400 185 400 c 0
 237 400 286 432 302 460 c 1
 307 460 l 1
 307 455 l 1
 302 431 316 401 361 401 c 0
 384 401 395 406 414 409 c 1
EndSplineSet
EndChar

StartChar: ordmasculine
Encoding: 186 186 270
Width: 397
VWidth: 0
Flags: W
HStem: 395 39<224.618 314.973> 720 40<248.613 342.73>
LayerCount: 2
Fore
SplineSet
88 339 m 1
 71 283 l 1
 404 283 l 1
 421 339 l 1
 88 339 l 1
299 720 m 0
 356 720 378 654 365 565 c 1
 350 481 318 434 268 434 c 0
 216 434 186 495 201 591 c 0
 216 677 250 720 299 720 c 0
320 760 m 0
 234 760 146 695 127 573 c 0
 111 471 148 395 252 395 c 0
 343 395 421 469 439 578 c 0
 455 687 417 760 320 760 c 0
EndSplineSet
EndChar

StartChar: oslash
Encoding: 248 248 271
Width: 818
VWidth: 0
Flags: W
HStem: -26 117<251.277 426.891> 786 112<252.337 428.69>
VStem: 8 141<230.549 597.523> 526 143<282.111 658.763>
DStem2: -8 -84 122 -76 0.473733 0.880669<68.6306 236.304 287.498 961.736 1009.11 1137.77>
LayerCount: 2
Fore
SplineSet
531 918 m 1
 661 926 l 1
 568 752 l 1
 526 723 l 1
 200 114 l 1
 211 88 l 1
 122 -76 l 1
 -8 -84 l 1
 106 123 l 1
 149 158 l 1
 468 752 l 1
 455 776 l 1
 531 918 l 1
409 875 m 0
EndSplineSet
Refer: 255 111 N 1 0 0 1 0 0 2
EndChar

StartChar: overline
Encoding: 8254 8254 273
Width: 560
VWidth: 0
Flags: W
HStem: 414 99
LayerCount: 2
Fore
SplineSet
99 513 m 1
 71 414 l 1
 505 414 l 1
 533 513 l 1
 99 513 l 1
270 276 m 1
 270 276 l 1
EndSplineSet
EndChar

StartChar: p
Encoding: 112 112 274
Width: 901
VWidth: 0
Flags: W
HStem: -369 72<29 75.592 360.707 469> -16 74<396 535.2> 721 159<584.707 696.788> 757 161<228.339 385>
VStem: 279 156<439.077 861.542> 718 175<284.273 708.906>
DStem2: 145.248 -369 290.581 -369 0.121869 0.992546<112.841 887.468>
LayerCount: 2
Fore
SplineSet
226 206 m 1xec
 273 604 l 2
 276 636 279 663 279 684 c 0
 279 736 268 757 240 757 c 0
 214 757 143 668 104 598 c 1
 57 635 l 1
 102 758 218 918 354 918 c 0xdc
 416 918 435 874 435 812 c 0
 435 732 403 625 393 557 c 1
 404 555 l 1
 469 727 582 880 689 880 c 0
 814 880 893 742 893 542 c 0
 893 107 618 -16 400 -16 c 2
 396 -16 l 1
 390 58 l 1
 546 77 718 118 718 526 c 0
 718 666 695 721 633 721 c 0
 536 721 409 521 367 175 c 1
 302 -276 l 1
 487 -297 l 1
 469 -369 l 1
 8 -369 l 1
 29 -297 l 1
 159 -257 l 1
 226 206 l 1xec
EndSplineSet
EndChar

StartChar: paragraph
Encoding: 182 182 275
Width: 1214
VWidth: 0
Flags: W
HStem: 0 81<484 519.581 1172.78 1199> 484 97<426.872 703> 1163 91<476.828 786> 1176 76<1276.94 1342>
VStem: 109 213<680.991 986.4>
DStem2: 644.02 0 811.003 0 0.121869 0.992546<135.206 492.543 589.29 1166.06> 872.02 0 1025 0 0.121869 0.992546<133.5 1142.36>
LayerCount: 2
Fore
SplineSet
786 1161 m 1xe8
 744 1163 691 1163 681 1163 c 0
 465 1163 348 1066 325 887 c 0
 322 869 322 851 322 835 c 0
 322 689 403 581 601 581 c 0
 643 581 708 588 708 588 c 1
 715 585 l 1
 786 1161 l 1xe8
1359 1252 m 1xd8
 1342 1176 l 1xd8
 1165 1137 l 1
 1039 114 l 1
 1218 81 l 1
 1199 0 l 1
 468 0 l 1
 484 75 l 1
 659 122 l 1
 703 489 l 1
 661 486 614 484 572 484 c 0
 328 484 109 546 109 793 c 0
 109 812 109 830 112 851 c 0
 141 1091 367 1254 611 1254 c 2xe8
 1359 1252 l 1xd8
975 1143 m 1
 952 1137 l 1
 825 114 l 1
 846 110 l 1
 887 122 l 1
 1010 1134 l 1
 975 1143 l 1
EndSplineSet
EndChar

StartChar: parenleft
Encoding: 40 40 276
Width: 508
VWidth: 0
Flags: W
VStem: 8 180<-22.5259 628.796>
LayerCount: 2
Fore
SplineSet
330 -322 m 1
 252 -380 l 1
 213 -336 8 -126 8 287 c 0
 8 337 12 394 18 452 c 0
 83 981 387 1215 460 1270 c 1
 502 1204 l 1
 400 1090 253 890 201 461 c 0
 193 398 190 340 188 283 c 1
 190 -40 299 -259 330 -322 c 1
EndSplineSet
EndChar

StartChar: parenright
Encoding: 41 41 277
Width: 527
VWidth: 0
Flags: W
VStem: 344 176<290.869 931.041>
LayerCount: 2
Fore
SplineSet
8 -322 m 1
 62 -249 278 40 330 461 c 0
 340 544 344 620 344 687 c 0
 344 965 268 1111 211 1204 c 1
 270 1270 l 1
 322 1221 520 1033 520 624 c 0
 520 570 516 514 508 452 c 0
 445 -69 128 -331 70 -380 c 1
 8 -322 l 1
EndSplineSet
EndChar

StartChar: partialdiff
Encoding: 8706 8706 278
Width: 974
VWidth: 0
Flags: W
HStem: -26 96<378.727 593.789> 793 91<414.833 636.065>
LayerCount: 2
Fore
SplineSet
599 1282 m 1
 491 1282 l 1
 585 1170 682 943 710 794 c 1
 703 794 l 1
 685 867 605 884 568 884 c 0
 371 884 174 734 138 443 c 0
 109 204 192 -26 447 -26 c 0
 647 -26 837 153 874 458 c 0
 919 836 799 1111 599 1282 c 1
547 793 m 0
 651 790 736 648 708 417 c 0
 682 206 622 70 479 70 c 0
 352 70 281 223 310 491 c 1
 336 702 411 796 547 793 c 0
EndSplineSet
EndChar

StartChar: percent
Encoding: 37 37 279
Width: 1101
VWidth: 0
Flags: W
HStem: -24 92<783.085 971.638> 387 91<799.091 988.359> 473 92<241.78 426.559> 887 92<254.705 447.175>
DStem2: 127 -31 268 -23 0.633829 0.773473<95.5577 1288.99>
LayerCount: 2
Fore
SplineSet
944 966 m 1x90
 1080 975 l 1
 268 -23 l 1
 127 -31 l 1
 944 966 l 1x90
383 979 m 0
 552 979 600 854 585 731 c 0
 566 582 464 473 305 473 c 0xb0
 143 473 86 599 101 726 c 0
 116 841 206 979 383 979 c 0
357 887 m 0
 260 887 229 822 219 739 c 0
 208 645 237 565 330 565 c 0
 423 565 458 637 468 721 c 0
 481 820 441 887 357 887 c 0
932 478 m 0xd0
 1093 478 1142 356 1127 234 c 0
 1109 85 1005 -24 846 -24 c 0
 687 -24 628 104 643 227 c 0
 658 341 766 478 932 478 c 0xd0
898 387 m 0
 827 387 775 349 762 240 c 0
 751 146 779 68 872 68 c 0
 965 68 1002 138 1012 221 c 0
 1025 322 982 387 898 387 c 0
EndSplineSet
EndChar

StartChar: period
Encoding: 46 46 280
Width: 238
VWidth: 0
Flags: W
HStem: -36 250<47.1894 191.811>
LayerCount: 2
Fore
SplineSet
130 214 m 0
 145 214 162 214 175 208 c 0
 188 202 201 190 211 179 c 0
 221 166 228 150 231 132 c 0
 234 114 230 96 227 80 c 0
 221 51 207 23 184 0 c 0
 161 -23 132 -36 101 -36 c 1
 75 -34 47 -21 31 0 c 0
 21 13 13 29 10 45 c 0
 7 61 7 81 10 97 c 0
 16 126 31 152 52 175 c 0
 73 198 101 212 130 214 c 0
EndSplineSet
EndChar

StartChar: periodcentered
Encoding: 183 183 281
Width: 256
VWidth: 0
Flags: W
HStem: 383 239<37.6915 220.122>
VStem: 8 242<412.692 595.748>
LayerCount: 2
Fore
SplineSet
128 622 m 0
 195 622 250 572 250 507 c 0
 250 439 195 383 128 383 c 0
 61 383 8 442 8 510 c 0
 8 575 63 622 128 622 c 0
EndSplineSet
EndChar

StartChar: perthousand
Encoding: 8240 8240 282
Width: 1661
VWidth: 0
Flags: W
HStem: -34 79<784.452 939.429 1322.24 1477.21> 375 80<813.415 966.462 1350.79 1503.78> 468 81<280.73 435.929> 877 80<306.71 461.727>
DStem2: 177 -28 294 -37 0.616201 0.787589<65.0072 1254.46>
LayerCount: 2
Fore
SplineSet
767 208 m 0
 756 117 783 45 856 45 c 0
 939 45 972 116 983 210 c 0
 994 303 970 375 895 375 c 0
 811 375 777 296 767 208 c 0
1106 208 m 0
 1090 78 961 -34 846 -34 c 0
 721 -34 625 64 643 210 c 0
 658 340 785 455 905 455 c 0
 1045 455 1122 346 1106 208 c 0
261 710 m 1
 251 619 279 549 352 549 c 0
 435 549 468 618 479 711 c 0
 490 804 466 877 391 877 c 0
 307 877 272 798 261 710 c 1
603 711 m 0
 587 579 458 468 343 468 c 0
 218 468 123 565 141 713 c 0
 157 843 281 957 401 957 c 0
 541 957 619 849 603 711 c 0
950 960 m 1
 1061 952 l 1
 294 -37 l 1
 177 -28 l 1
 950 960 l 1
1304 208 m 0
 1293 117 1321 45 1394 45 c 0
 1477 45 1509 116 1520 210 c 0
 1531 303 1508 375 1433 375 c 0
 1349 375 1314 296 1304 208 c 0
1644 208 m 0
 1628 78 1499 -34 1384 -34 c 0
 1259 -34 1163 64 1181 210 c 0
 1196 340 1322 455 1442 455 c 0
 1582 455 1660 346 1644 208 c 0
EndSplineSet
EndChar

StartChar: plus
Encoding: 43 43 283
Width: 583
VWidth: 0
Flags: W
HStem: 414 103<32 232 354 552>
VStem: 8 570
DStem2: 203.527 175 315 175 0.121869 0.992546<13.5852 240.689 357.789 579.181>
LayerCount: 2
Fore
SplineSet
343 414 m 1
 315 175 l 1
 205 187 l 1
 232 414 l 1
 8 414 l 1
 32 517 l 1
 244 517 l 1
 273 750 l 1
 380 737 l 1
 354 517 l 1
 578 517 l 1
 552 414 l 1
 343 414 l 1
EndSplineSet
EndChar

StartChar: plusminus
Encoding: 177 177 284
Width: 503
VWidth: 0
Flags: W
HStem: 63 103<71 458> 413 102<76 240 364 526>
VStem: 50 501
DStem2: 198.846 63 308.196 63 0.121869 0.992546<159.415 352.407 468.758 656.787>
LayerCount: 2
Fore
SplineSet
351 413 m 1
 326 208 l 1
 218 219 l 1
 240 413 l 1
 50 413 l 1
 76 515 l 1
 253 515 l 1
 278 715 l 1
 385 702 l 1
 364 515 l 1
 551 515 l 1
 526 413 l 1
 351 413 l 1
71 166 m 1
 482 166 l 1
 458 63 l 1
 45 63 l 1
 71 166 l 1
EndSplineSet
EndChar

StartChar: product
Encoding: 8719 8719 285
Width: 1393
VWidth: 0
Flags: W
HStem: 0 80<49 80.7893 545.193 564 859 890.601 1351.88 1372> 1121 102<533 1150> 1148 75<184 228.003 1443.52 1509>
DStem2: 203.389 0 394.248 0 0.121869 0.992546<136.101 1116.27> 1012.39 0 1203.25 0 0.121869 0.992546<136.101 1130.41>
LayerCount: 2
Fore
SplineSet
564 0 m 1xc0
 31 0 l 1
 49 73 l 1
 218 119 l 1
 339 1108 l 1
 166 1148 l 1
 184 1223 l 1
 1528 1223 l 1
 1509 1148 l 1xa0
 1340 1111 l 1
 1217 112 l 1
 1392 80 l 1
 1372 0 l 1
 838 0 l 1
 859 73 l 1
 1027 119 l 1
 1150 1122 l 1
 533 1121 l 1
 408 112 l 1
 586 80 l 1
 564 0 l 1xc0
EndSplineSet
EndChar

StartChar: q
Encoding: 113 113 286
Width: 711
VWidth: 0
Flags: W
HStem: -362 71<216 274.647 555.906 689> -26 125<115 331.12> 780 120<290.969 465.232>
VStem: 8 161<127.48 482.197>
DStem2: 381.88 -362 538.441 -362 0.121869 0.992546<115.864 686.767 701.217 1094.48 1205.61 1283.44>
LayerCount: 2
Fore
SplineSet
409 80 m 1
 380 44 285 -26 175 -26 c 0
 55 -26 8 105 8 219 c 0
 8 521 199 900 422 900 c 0
 480 900 515 865 533 833 c 1
 542 833 l 1
 552 926 l 1
 578 926 l 1
 692 893 l 1
 622 315 l 1
 549 -276 l 1
 705 -291 l 1
 689 -362 l 1
 198 -362 l 1
 216 -287 l 1
 396 -247 l 1
 479 318 l 1
 515 677 l 1
 496 713 428 780 374 780 c 0
 215 780 169 502 169 305 c 0
 169 224 190 99 268 99 c 0
 331 99 359 112 395 125 c 1
 409 80 l 1
EndSplineSet
EndChar

StartChar: question
Encoding: 63 63 287
Width: 565
VWidth: 0
Flags: W
HStem: -36 250<47.1894 191.811> 1121 175<145.412 403.476>
DStem2: 188 736 297 617 0.909913 0.4148<-66.8116 293.581>
LayerCount: 2
Fore
SplineSet
130 214 m 0
 145 214 162 214 175 208 c 0
 188 202 201 190 211 179 c 0
 221 166 228 150 231 132 c 0
 234 114 230 96 227 80 c 0
 221 51 207 23 184 0 c 0
 161 -23 132 -36 101 -36 c 1
 75 -34 47 -21 31 0 c 0
 21 13 13 29 10 45 c 0
 7 61 7 81 10 97 c 0
 16 126 31 152 52 175 c 0
 73 198 101 212 130 214 c 0
55 1161 m 0
 58 1184 67 1204 80 1220 c 0
 99 1243 123 1260 149 1273 c 0
 188 1292 231 1299 273 1296 c 0
 328 1293 382 1275 424 1243 c 0
 473 1206 510 1149 533 1091 c 0
 559 1020 565 942 552 867 c 1
 539 802 501 744 452 702 c 0
 429 683 403 666 377 653 c 0
 351 640 323 630 297 617 c 0
 274 607 253 595 237 577 c 0
 221 559 210 536 205 513 c 0
 202 500 201 487 201 474 c 0
 201 461 203 445 203 432 c 0
 203 417 206 402 208 387 c 1
 130 370 l 1
 122 389 113 407 107 426 c 0
 99 452 89 479 86 505 c 0
 83 534 79 559 84 588 c 0
 89 619 103 646 122 672 c 0
 141 698 162 720 188 736 c 0
 238 768 299 783 351 812 c 0
 377 827 398 844 417 867 c 0
 436 890 449 916 452 945 c 0
 455 974 450 1007 437 1033 c 0
 424 1059 403 1080 380 1096 c 0
 361 1109 338 1118 315 1121 c 0
 289 1124 266 1119 240 1113 c 0
 216 1107 192 1098 169 1088 c 0
 146 1078 126 1065 110 1049 c 1
 99 1054 89 1062 81 1072 c 0
 71 1083 63 1096 58 1111 c 0
 53 1127 52 1145 55 1161 c 0
EndSplineSet
EndChar

StartChar: quotedbl
Encoding: 34 34 289
Width: 407
VWidth: 0
Flags: W
HStem: 898 416<10 105.785 221 315.784>
VStem: 10 97<899.831 975.102> 221 96<899.98 975.877>
LayerCount: 2
Fore
SplineSet
8 1312 m 1
 21 1314 32 1314 45 1314 c 0
 94 1314 147 1307 192 1296 c 1
 107 910 l 1
 81 902 60 898 31 898 c 2
 10 898 l 1
 8 1312 l 1
218 1312 m 1
 231 1314 244 1314 257 1314 c 0
 306 1314 356 1307 401 1296 c 1
 317 910 l 1
 291 902 269 898 240 898 c 2
 221 898 l 1
 218 1312 l 1
EndSplineSet
EndChar

StartChar: quotesingle
Encoding: 39 39 297
Width: 198
VWidth: 0
Flags: W
HStem: 898 416<10 105.785>
VStem: 10 97<899.831 975.102>
LayerCount: 2
Fore
SplineSet
8 1312 m 1
 21 1314 32 1314 45 1314 c 0
 94 1314 147 1307 192 1296 c 1
 107 910 l 1
 81 902 60 898 31 898 c 2
 10 898 l 1
 8 1312 l 1
EndSplineSet
EndChar

StartChar: r
Encoding: 114 114 298
Width: 745
VWidth: 0
Flags: W
HStem: 682 187<517.115 593.998>
DStem2: 154.045 -33.1411 308.793 -33.1411 0.121869 0.992546<178.722 727.626>
LayerCount: 2
Fore
SplineSet
395 484 m 0
 410 523 426 562 445 598 c 0
 455 617 466 635 479 651 c 0
 485 659 494 666 504 672 c 0
 514 678 525 682 536 682 c 0
 549 680 558 674 568 666 c 0
 578 658 588 647 594 637 c 0
 600 627 606 619 611 609 c 2
 630 573 l 1
 653 583 674 595 690 614 c 0
 722 650 740 698 737 747 c 0
 735 776 726 807 707 830 c 0
 688 853 658 867 629 869 c 0
 610 871 593 867 575 861 c 0
 557 855 541 843 526 832 c 0
 487 800 458 755 432 710 c 0
 403 658 378 603 362 546 c 1
 349 549 l 1
 380 695 l 2
 385 721 388 746 390 772 c 0
 392 795 389 815 383 836 c 0
 377 852 367 868 354 879 c 0
 341 890 325 897 309 900 c 0
 286 903 263 901 240 893 c 0
 217 885 198 871 179 858 c 0
 140 829 105 793 76 754 c 0
 47 715 24 672 8 627 c 1
 55 591 l 1
 68 617 85 640 101 663 c 0
 112 679 125 696 138 711 c 0
 146 721 156 731 167 739 c 0
 172 742 179 747 185 749 c 0
 191 751 199 749 205 747 c 0
 210 745 215 740 218 737 c 0
 221 734 225 729 227 724 c 0
 230 714 231 702 231 692 c 0
 231 660 230 629 227 598 c 2
 206 390 l 1
 123 3 l 1
 138 -24 l 1
 157 -32 180 -35 203 -32 c 0
 226 -29 245 -19 263 -6 c 0
 282 7 295 26 305 45 c 0
 315 64 321 84 326 107 c 0
 342 185 335 268 351 346 c 0
 361 395 376 439 395 484 c 0
374 0 m 1
 374 0 l 1
374 926 m 1
 374 926 l 1
374 0 m 1
 374 0 l 1
374 926 m 1
 374 926 l 1
211 -49 m 0
474 926 m 0
EndSplineSet
EndChar

StartChar: radical
Encoding: 8730 8730 300
Width: 1033
VWidth: 0
Flags: W
HStem: 434 74<153 193.88>
DStem2: 411 523 250 406 0.244238 -0.969715<74.1344 444.052> 502 88 512 -112 0.446186 0.89494<0 1323.76>
LayerCount: 2
Fore
SplineSet
385 -130 m 1
 250 406 l 1
 135 434 l 1
 153 508 l 1
 411 523 l 1
 502 88 l 1
 1088 1275 l 1
 1207 1282 l 1
 512 -112 l 1
 385 -130 l 1
EndSplineSet
EndChar

StartChar: registered
Encoding: 174 174 303
Width: 461
VWidth: 0
Flags: W
HStem: 823 33<285.193 440.489> 1166 23<292 322 369.006 419.788> 1256 30<339.099 484.371>
VStem: 164 41<931.746 1123.16> 430 51<1085.38 1162.84> 577 37<987.635 1166.13>
DStem2: 281.81 823 326.565 823 0.121869 0.992546<148.521 227.158 251.223 337.401>
LayerCount: 2
Fore
SplineSet
414 1286 m 0
 282 1286 158 1185 164 1001 c 0
 167 912 224 823 352 823 c 0
 490 823 619 923 614 1098 c 0
 611 1194 549 1286 414 1286 c 0
577 1095 m 1
 582 937 471 856 359 856 c 0
 252 856 207 932 205 1010 c 0
 200 1166 302 1256 411 1256 c 0
 521 1256 572 1179 577 1095 c 1
356 1067 m 1
 369 1165 l 1
 369 1165 377 1166 383 1166 c 0
 414 1166 430 1153 430 1127 c 0
 432 1096 413 1067 390 1067 c 2
 356 1067 l 1
380 1189 m 0
 357 1189 324 1185 292 1182 c 1
 289 1165 l 1
 322 1158 l 1
 299 963 l 1
 263 955 l 1
 260 937 l 1
 374 937 l 1
 377 955 l 1
 344 965 l 1
 354 1043 l 1
 385 1043 l 1
 409 988 l 2
 424 957 445 934 476 934 c 0
 484 934 491 934 502 937 c 1
 508 955 l 1
 502 957 l 1
 479 967 465 983 452 1009 c 1
 419 1062 l 1
 458 1078 481 1108 481 1134 c 0
 479 1173 456 1189 380 1189 c 0
EndSplineSet
EndChar

StartChar: ring
Encoding: 730 730 304
Width: 540
VWidth: 0
Flags: W
HStem: 1340 47<225.623 337.991> 1624 47<217.575 328.077>
VStem: 117 70<1414.75 1605.3> 365 70<1405.1 1596.92>
LayerCount: 2
Fore
SplineSet
271 1624 m 0
 213 1624 187 1569 187 1514 c 0
 187 1454 218 1387 281 1387 c 0
 335 1387 365 1428 365 1499 c 0
 365 1561 333 1624 271 1624 c 0
283 1671 m 0
 377 1671 435 1605 435 1512 c 0
 435 1423 371 1340 270 1340 c 0
 179 1340 117 1401 117 1502 c 0
 117 1593 190 1671 283 1671 c 0
276 1223 m 0
EndSplineSet
EndChar

StartChar: s
Encoding: 115 115 305
Width: 596
VWidth: 0
Flags: W
HStem: -36 93<204.104 398.879> 809 91<250.834 410.596>
VStem: 104 127<615.057 765.77> 422 148<105.321 270.611>
LayerCount: 2
Fore
SplineSet
422 172 m 0
 422 321 104 429 104 622 c 0
 104 784 252 900 400 900 c 0
 510 900 588 849 588 778 c 0
 588 708 546 673 491 650 c 1
 472 689 403 809 330 809 c 0
 288 809 231 775 231 708 c 0
 231 568 570 442 570 231 c 0
 570 88 405 -36 223 -36 c 0
 98 -36 8 27 8 107 c 0
 8 161 50 224 123 234 c 1
 146 161 213 57 286 57 c 0
 369 57 422 97 422 172 c 0
299 0 m 1
 299 0 l 1
299 926 m 1
 299 926 l 1
299 0 m 1
 299 0 l 1
299 926 m 1
 299 926 l 1
299 -16 m 0
400 926 m 0
EndSplineSet
EndChar

StartChar: section
Encoding: 167 167 310
Width: 881
VWidth: 0
Flags: W
VStem: 705 88<854 911.532>
DStem2: 517 757 469 495 0.767439 -0.641122<-240.044 391.307>
LayerCount: 2
Fore
SplineSet
858 1182 m 1
 793 835 l 1
 705 854 l 1
 697 1104 l 1
 668 1143 627 1174 578 1184 c 0
 526 1195 468 1184 426 1153 c 0
 384 1122 354 1074 351 1020 c 0
 348 965 368 911 400 869 c 0
 432 827 475 791 517 757 c 0
 566 718 614 677 659 635 c 0
 698 599 733 562 762 520 c 0
 791 478 809 429 815 377 c 0
 820 332 815 276 791 226 c 1
 682 317 575 404 469 495 c 1
 389 560 309 627 244 705 c 0
 216 737 191 776 175 815 c 0
 160 852 156 893 159 932 c 0
 162 971 174 1012 193 1048 c 0
 229 1116 283 1171 346 1212 c 0
 409 1253 484 1278 559 1283 c 0
 666 1289 777 1253 858 1182 c 1
593 278 m 0
 630 244 667 206 695 162 c 1
 724 120 744 69 749 19 c 0
 754 -28 747 -75 731 -119 c 0
 715 -163 688 -203 656 -237 c 0
 602 -294 533 -333 460 -357 c 0
 359 -389 250 -389 149 -357 c 0
 113 -346 80 -330 49 -307 c 1
 17 -286 -10 -256 -29 -224 c 0
 -42 -200 -54 -175 -57 -149 c 0
 -60 -121 -58 -95 -50 -71 c 0
 -34 -21 5 18 54 39 c 0
 99 58 153 60 200 45 c 1
 189 14 179 -18 174 -50 c 0
 168 -94 168 -141 187 -180 c 0
 198 -206 214 -227 237 -242 c 1
 258 -258 282 -269 310 -274 c 0
 359 -284 412 -275 456 -247 c 0
 492 -226 523 -190 538 -151 c 0
 553 -110 552 -65 539 -24 c 0
 528 10 508 41 484 67 c 0
 460 95 432 115 403 138 c 0
 323 203 244 270 179 348 c 0
 151 382 125 419 110 458 c 0
 95 495 91 536 94 577 c 0
 97 611 107 647 122 679 c 1
 119 682 591 280 593 278 c 0
EndSplineSet
EndChar

StartChar: semicolon
Encoding: 59 59 311
Width: 388
VWidth: 0
Flags: W
HStem: 627 224<211.346 337.104>
VStem: 182 198<656.897 821.92>
LayerCount: 2
Fore
SplineSet
58 101 m 1
 66 133 88 163 117 182 c 0
 140 195 166 204 192 201 c 0
 215 198 237 188 255 172 c 0
 273 156 284 133 292 110 c 0
 305 74 308 36 302 -3 c 0
 296 -42 276 -80 253 -112 c 0
 230 -144 203 -173 172 -197 c 0
 130 -231 86 -258 37 -281 c 1
 8 -231 l 1
 24 -221 43 -211 58 -200 c 0
 84 -181 104 -159 123 -135 c 0
 136 -119 146 -97 151 -78 c 0
 156 -57 158 -36 153 -15 c 0
 147 13 129 38 110 57 c 0
 94 73 77 88 58 101 c 1
289 851 m 0
 302 851 318 850 331 845 c 0
 344 840 354 829 362 819 c 0
 372 806 377 791 380 776 c 0
 383 761 381 744 378 729 c 0
 372 703 357 675 338 656 c 0
 319 637 292 627 263 627 c 0
 239 627 216 639 201 658 c 0
 191 669 185 683 182 698 c 0
 179 713 179 731 182 746 c 0
 187 772 200 796 219 815 c 0
 238 834 263 849 289 851 c 0
EndSplineSet
EndChar

StartChar: seven
Encoding: 55 55 312
Width: 842
VWidth: 0
Flags: W
HStem: 1027 126<210.891 643>
DStem2: 42 1147 292 1007 0.994134 0.108158<89.8242 563.727> 422 741 598 815 0.641262 0.767322<-187.797 361.173>
LayerCount: 2
Fore
SplineSet
149 994 m 1
 83 833 l 1
 8 854 l 1
 42 1147 l 1
 96 1152 147 1155 201 1158 c 0
 412 1169 624 1168 835 1153 c 1
 832 1095 l 1
 598 815 l 2
 528 732 461 645 416 546 c 0
 374 455 344 351 357 250 c 0
 367 177 398 106 447 49 c 1
 428 23 399 7 370 -3 c 0
 341 -13 305 -12 276 -2 c 0
 240 9 215 34 192 63 c 0
 169 92 158 128 153 164 c 0
 147 209 151 255 162 300 c 0
 173 345 195 387 214 429 c 0
 271 539 346 642 422 741 c 2
 643 1027 l 1
 526 1024 409 1017 292 1007 c 0
 243 1004 198 1000 149 994 c 1
EndSplineSet
EndChar

StartChar: six
Encoding: 54 54 313
Width: 781
VWidth: 0
Flags: W
HStem: 604 117<276.769 482.476> 1033 133<419.676 589.051>
VStem: 10 170<173.176 638.363>
LayerCount: 2
Fore
SplineSet
10 400 m 0
 4 319 9 234 45 159 c 0
 68 114 101 68 143 39 c 0
 185 10 234 -10 286 -15 c 0
 338 -20 393 -13 442 6 c 0
 491 25 533 55 572 91 c 0
 624 140 661 201 687 268 c 0
 713 335 723 408 715 478 c 0
 710 519 698 558 677 594 c 0
 656 630 627 659 591 682 c 0
 549 708 501 719 452 721 c 0
 410 721 364 713 325 698 c 0
 271 679 224 646 192 601 c 1
 182 529 l 1
 190 544 205 557 218 567 c 0
 231 577 247 585 263 590 c 0
 292 600 325 604 357 604 c 0
 396 604 441 594 473 568 c 0
 492 553 507 538 517 517 c 0
 527 496 536 471 539 448 c 0
 545 403 544 357 539 312 c 0
 534 267 526 219 507 177 c 0
 496 151 477 126 458 107 c 0
 439 88 412 74 383 71 c 0
 357 68 335 73 312 83 c 0
 289 93 269 111 253 130 c 0
 224 162 208 205 198 247 c 0
 187 292 182 341 180 390 c 0
 177 504 190 623 226 733 c 0
 249 808 280 882 325 945 c 0
 344 971 371 998 400 1014 c 0
 429 1030 463 1036 495 1033 c 0
 521 1030 543 1020 564 1007 c 0
 585 994 603 977 619 958 c 0
 645 929 664 892 679 856 c 1
 711 869 741 895 757 927 c 0
 773 959 778 997 770 1033 c 0
 762 1069 743 1099 715 1122 c 0
 687 1145 653 1161 617 1166 c 0
 578 1172 538 1167 502 1156 c 0
 466 1145 428 1127 396 1108 c 0
 308 1053 232 977 172 893 c 0
 133 838 104 780 81 718 c 0
 42 617 16 507 10 400 c 0
EndSplineSet
EndChar

StartChar: slash
Encoding: 47 47 314
Width: 617
VWidth: 0
Flags: W
VStem: 8 603
DStem2: 8 -369 140 -359 0.277856 0.960623<46.2833 1684.32>
LayerCount: 2
Fore
SplineSet
476 1249 m 1
 611 1257 l 1
 140 -359 l 1
 8 -369 l 1
 476 1249 l 1
EndSplineSet
EndChar

StartChar: softhyphen
Encoding: 173 173 315
Width: 560
VWidth: 0
Flags: W
HStem: 400 172
VStem: 78 409
DStem2: 86 513 78 400 0.989349 0.145565<0 380.808>
LayerCount: 2
Fore
SplineSet
86 513 m 1
 487 572 l 1
 479 458 l 1
 78 400 l 1
 86 513 l 1
EndSplineSet
EndChar

StartChar: sterling
Encoding: 163 163 317
Width: 1047
VWidth: 0
Flags: W
HStem: 0 73<55 107.358> 893 298<882 966.367> 1126 104<655.142 864.31>
VStem: 882 81<893 943.693>
DStem2: 248.379 0 442.96 0 0.121869 0.992546<165.773 543.102 673.66 989.722>
LayerCount: 2
Fore
SplineSet
1033 1191 m 1xd0
 958 1223 887 1230 807 1230 c 0
 584 1230 400 1090 351 773 c 1
 331 638 l 1
 164 629 l 1
 138 529 l 1
 315 539 l 1
 304 453 l 1
 281 307 267 218 223 119 c 1
 55 73 l 1
 37 0 l 1
 1010 0 l 1
 1087 325 l 1
 1005 343 l 1
 846 94 l 1
 391 97 l 1
 451 193 483 351 504 507 c 1
 510 546 l 1
 718 559 l 1
 742 658 l 1
 523 645 l 1
 529 692 l 1
 576 1020 620 1126 784 1126 c 0xb0
 820 1126 845 1114 864 1103 c 1
 882 893 l 1
 963 880 l 1
 1033 1191 l 1xd0
EndSplineSet
EndChar

StartChar: summation
Encoding: 8721 8721 318
Width: 1057
VWidth: 0
Flags: W
HStem: 0 159<271 885> 1134 89<403 997>
VStem: 1012 83<923 975.988>
DStem2: 49 73 271 159 0.714427 0.69971<218.778 747.452> 403 1134 172 1165 0.594917 -0.803787<0 531.871>
LayerCount: 2
Fore
SplineSet
190 1223 m 1
 1163 1223 l 1
 1095 910 l 1
 1012 923 l 1
 997 1134 l 1
 403 1134 l 1
 755 669 l 1
 746 624 l 1
 271 159 l 1
 885 159 l 1
 1009 385 l 1
 1088 374 l 1
 1014 0 l 1
 39 0 l 1
 49 73 l 1
 583 596 l 1
 585 607 l 1
 172 1165 l 1
 190 1223 l 1
EndSplineSet
EndChar

StartChar: t
Encoding: 116 116 319
Width: 519
VWidth: 0
Flags: W
HStem: -23 176<115.5 290.231> 770 88<30.666 120 281 487>
VStem: 39 169<63 511.031> 442 49<352.357 368.118>
DStem2: 15.4647 -23 174.922 -23 0.121869 0.992546<244.418 799.829 906.794 1096.41>
LayerCount: 2
Fore
SplineSet
234 153 m 0
 294 153 336 202 442 395 c 1
 491 357 l 1
 431 123 305 -23 156 -23 c 0
 75 -23 39 6 39 120 c 0
 39 175 49 252 62 356 c 2
 120 770 l 1
 8 762 l 1
 32 867 l 1
 132 858 l 1
 151 1065 l 1
 302 1085 l 1
 315 1072 l 1
 281 858 l 1
 513 874 l 1
 487 757 l 1
 270 770 l 1
 226 393 l 2
 215 291 208 232 208 198 c 0
 208 159 215 153 234 153 c 0
260 0 m 1
 260 0 l 1
260 461 m 1
 260 461 l 1
260 0 m 1
 260 0 l 1
260 461 m 1
 260 461 l 1
184 -16 m 0
260 463 m 0
EndSplineSet
EndChar

StartChar: thorn
Encoding: 254 254 324
Width: 974
VWidth: 0
Flags: W
HStem: -364 70<-44 1.056 301.312 398> -13 75<326 463.782> 726 159<511.823 625.019> 1176 75<141 208.091>
VStem: 648 174<287.8 713.732>
DStem2: 88 -252 232 -271 0.139783 0.990182<1.31526 832.305 853.771 1126.46>
LayerCount: 2
Fore
SplineSet
200 611 m 1
 234 890 l 1
 270 1150 l 1
 132 1176 l 1
 141 1251 l 1
 430 1273 l 1
 447 1252 l 1
 390 843 l 1
 322 562 l 1
 333 560 l 1
 398 734 510 885 617 885 c 0
 742 885 822 747 822 547 c 0
 822 110 545 -13 326 -13 c 1
 317 62 l 1
 475 81 648 121 648 529 c 0
 648 669 624 726 564 726 c 0
 467 726 338 526 296 180 c 1
 232 -271 l 1
 416 -292 l 1
 398 -364 l 1
 -63 -364 l 1
 -44 -294 l 1
 88 -252 l 1
 148 211 l 1
 200 611 l 1
EndSplineSet
EndChar

StartChar: three
Encoding: 51 51 325
Width: 789
VWidth: 0
Flags: W
VStem: 604 179<808.089 1055.31>
LayerCount: 2
Fore
SplineSet
307 533 m 1
 315 591 l 1
 416 642 l 2
 444 655 469 669 492 692 c 0
 515 715 533 737 552 763 c 0
 568 786 581 812 591 838 c 0
 602 870 607 903 604 939 c 0
 601 971 594 1002 578 1030 c 0
 563 1056 539 1080 510 1091 c 0
 481 1102 448 1106 419 1101 c 0
 387 1096 356 1082 333 1056 c 0
 310 1030 297 997 299 965 c 0
 301 934 312 903 328 877 c 0
 341 854 358 838 374 819 c 1
 356 787 322 765 286 760 c 0
 250 755 214 770 188 796 c 0
 165 819 155 852 153 884 c 0
 151 916 159 949 172 978 c 0
 190 1015 216 1047 247 1075 c 0
 278 1103 312 1127 351 1143 c 0
 409 1169 473 1184 536 1184 c 0
 568 1184 601 1179 633 1169 c 0
 665 1159 697 1142 720 1119 c 0
 743 1098 757 1075 767 1046 c 0
 777 1017 783 987 783 958 c 0
 783 908 767 856 741 812 c 0
 718 770 689 737 650 708 c 0
 619 685 584 669 552 650 c 2
 513 627 l 1
 513 624 l 1
 554 626 596 617 632 598 c 0
 668 579 700 550 723 518 c 0
 755 473 770 414 767 357 c 0
 764 300 745 247 716 198 c 0
 661 107 570 44 471 8 c 0
 382 -24 286 -37 192 -19 c 0
 156 -13 122 4 93 23 c 0
 64 42 38 69 23 101 c 0
 13 124 6 149 8 175 c 0
 10 201 16 227 29 250 c 0
 55 295 104 327 156 333 c 0
 166 335 177 335 188 335 c 1
 182 299 181 260 187 224 c 0
 192 192 202 159 221 133 c 0
 234 114 253 95 276 84 c 0
 299 73 320 65 344 63 c 0
 402 58 465 82 507 123 c 0
 549 164 576 221 581 279 c 0
 586 336 570 395 536 440 c 0
 507 481 462 510 413 525 c 0
 377 535 343 538 307 533 c 1
EndSplineSet
EndChar

StartChar: threequarters
Encoding: 190 190 326
Width: 1039
VWidth: 0
Flags: W
HStem: -114 38<713 765.131 893.883 945> 374 52<223.009 338.199> 646 46<232 290.244> 916 54<298.422 393.487>
VStem: 138 75<428.917 495.092> 205 58<814.191 881.282>
DStem2: 143 -29 252 -21 0.650341 0.759642<76.9643 1280.87> 590 136 659 146 0.658338 0.752723<52.9525 364.99> 785.633 -114 867.001 -114 0.121869 0.992546<67.3444 200.103 275.709 275.709>
LayerCount: 2
Fore
SplineSet
976 944 m 1xf0
 143 -29 l 1
 252 -21 l 1
 1080 952 l 1
 976 944 l 1xf0
825 146 m 1
 659 146 l 1
 862 383 l 1
 825 146 l 1
869 455 m 1
 590 136 l 1
 590 84 l 1
 815 84 l 1
 793 -54 l 1
 713 -76 l 1
 702 -114 l 1
 945 -114 l 1
 955 -73 l 1
 874 -57 l 1
 897 84 l 1
 979 84 l 1
 997 149 l 1
 906 149 l 1
 957 469 l 1
 869 455 l 1
232 692 m 1
 232 689 l 1
 229 673 230 659 232 646 c 1
 251 646 275 648 291 648 c 0
 353 648 388 587 378 529 c 0
 368 471 331 426 271 426 c 0
 213 426 215 474 213 523 c 1
 192 520 144 507 138 468 c 0xf8
 132 429 154 374 271 374 c 0
 373 374 452 459 465 542 c 0
 476 607 444 668 369 689 c 1
 369 697 l 1
 429 728 478 789 489 854 c 0
 499 916 457 970 382 970 c 0
 328 970 218 929 205 851 c 0
 200 819 222 805 263 802 c 1xf4
 278 886 314 916 346 916 c 0
 390 916 410 877 404 833 c 0
 386 718 247 698 232 692 c 1
EndSplineSet
EndChar

StartChar: threesuperior
Encoding: 179 179 327
Width: 591
VWidth: 0
Flags: W
HStem: 923 29<241.876 308.864> 1085 28<247 282.528> 1247 33<285.89 345.981>
VStem: 192 44<953.901 999.569> 231 35<1183.39 1225.89> 247 83<1087.2 1111 1113 1124.67>
LayerCount: 2
Fore
SplineSet
247 1113 m 1xe4
 247 1111 l 1
 245 1101 247 1093 247 1085 c 1
 258 1085 273 1087 283 1087 c 0
 320 1087 341 1049 335 1015 c 0
 330 981 307 952 271 952 c 0
 235 952 236 981 236 1012 c 1
 225 1010 195 1001 192 978 c 0
 189 955 200 923 271 923 c 0
 331 923 380 973 388 1023 c 0
 394 1060 375 1098 330 1111 c 1
 330 1116 l 1xf4
 366 1134 396 1171 401 1210 c 1
 407 1246 382 1280 338 1280 c 0
 306 1280 239 1253 231 1208 c 0
 228 1189 242 1181 266 1179 c 1xe8
 274 1229 297 1247 315 1247 c 0
 343 1247 356 1223 351 1197 c 0
 341 1129 257 1116 247 1113 c 1xe4
EndSplineSet
EndChar

StartChar: tilde
Encoding: 732 732 328
Width: 701
VWidth: 0
Flags: W
HStem: 1348 159
VStem: 122 458
DStem2: 255 1496 221 1395 0.99013 -0.140155<-66.9805 268.948>
LayerCount: 2
Fore
SplineSet
122 1356 m 1
 122 1356 158 1511 255 1496 c 2
 474 1467 l 2
 500 1462 533 1507 533 1507 c 1
 580 1506 l 1
 580 1506 541 1351 440 1364 c 2
 221 1395 l 2
 192 1398 159 1348 159 1348 c 1
 122 1356 l 1
351 1223 m 0
EndSplineSet
EndChar

StartChar: trademark
Encoding: 8482 8482 329
Width: 781
VWidth: 0
Flags: W
HStem: 975 24<68 114 179 219 307 352 393 432 619 663 723 762> 1208 88<39 62.2742 279 309.705> 1269 27<81 145 210 276 361 403 739 783>
VStem: 279 28<1208 1267.12>
DStem2: 109.703 975 174.825 975 0.121869 0.992546<42.1918 296.11> 352 1010 393 1009 0.19836 0.980129<7.15261 227.192> 541 1054 546 988 0.467227 0.884137<0 222.22> 663 1010 723 1009 0.063115 0.998006<2.7889 224.374>
LayerCount: 2
Fore
SplineSet
39 1296 m 1xd0
 328 1296 l 1xb0
 307 1205 l 1
 279 1208 l 1xd0
 276 1269 l 1
 210 1269 l 1
 179 1009 l 1
 226 1001 l 1
 219 975 l 1
 63 975 l 1
 68 999 l 1
 114 1010 l 1
 145 1269 l 1
 81 1269 l 1xb0
 58 1205 l 1
 32 1208 l 1
 39 1296 l 1xd0
495 983 m 1
 435 1225 l 1
 393 1009 l 1
 439 1001 l 1
 432 975 l 1
 302 975 l 1
 307 999 l 1
 352 1010 l 1
 403 1262 l 1
 354 1272 l 1
 361 1296 l 1
 482 1296 l 1
 499 1246 l 1
 541 1054 l 1
 646 1256 l 1
 669 1296 l 1
 789 1296 l 1
 783 1272 l 1
 739 1262 l 1
 723 1009 l 1
 768 1001 l 1
 762 975 l 1
 612 975 l 1
 619 999 l 1
 663 1010 l 1
 676 1234 l 1
 546 988 l 1
 495 983 l 1
EndSplineSet
EndChar

StartChar: two
Encoding: 50 50 330
Width: 855
VWidth: 0
Flags: W
HStem: -3 117<224 632.991>
VStem: 114 154<738.156 943.758>
LayerCount: 2
Fore
SplineSet
8 5 m 1
 19 101 l 1
 201 211 l 2
 285 263 370 315 445 380 c 0
 520 445 583 524 619 617 c 0
 642 672 651 731 653 789 c 0
 655 854 643 918 614 975 c 0
 601 999 584 1020 565 1039 c 0
 546 1058 521 1074 495 1082 c 0
 450 1095 398 1091 359 1065 c 0
 323 1042 294 1004 279 965 c 0
 266 929 263 893 268 854 c 0
 273 815 288 779 307 747 c 0
 326 715 354 689 383 666 c 1
 360 637 326 616 289 611 c 0
 252 606 211 614 182 637 c 0
 159 655 141 679 130 705 c 0
 119 731 114 764 114 793 c 0
 114 851 137 908 166 958 c 0
 202 1018 247 1072 305 1111 c 0
 370 1155 447 1180 525 1182 c 0
 567 1184 611 1178 650 1165 c 0
 689 1152 725 1127 754 1098 c 0
 793 1059 822 1005 835 950 c 0
 863 843 843 726 793 627 c 0
 754 551 695 484 632 426 c 0
 541 343 439 271 338 201 c 2
 224 123 l 1
 224 114 l 1
 426 122 l 2
 462 124 497 124 533 127 c 0
 569 130 604 140 633 159 c 0
 656 172 674 190 689 213 c 0
 708 239 722 268 733 297 c 2
 765 377 l 1
 840 351 l 1
 835 309 828 266 822 224 c 0
 809 143 793 64 770 -16 c 1
 614 -16 l 1
 468 -14 318 -9 172 -3 c 2
 8 5 l 1
EndSplineSet
EndChar

StartChar: twosuperior
Encoding: 178 178 331
Width: 255
VWidth: 0
Flags: W
HStem: 1247 33<280.207 334.004>
VStem: 227 36<1180.84 1232.18>
DStem2: 188 1025 244 1036 0.762509 0.646977<49.8173 201.277>
LayerCount: 2
Fore
SplineSet
305 1247 m 0
 334 1247 344 1221 338 1189 c 1
 335 1160 315 1132 287 1109 c 2
 188 1025 l 1
 185 994 l 1
 359 994 l 1
 374 1036 l 1
 244 1036 l 1
 287 1070 l 2
 354 1122 385 1147 395 1202 c 0
 401 1247 372 1280 330 1280 c 0
 293 1280 232 1246 227 1212 c 0
 222 1188 234 1179 263 1176 c 1
 268 1205 277 1247 305 1247 c 0
EndSplineSet
EndChar

StartChar: u
Encoding: 117 117 332
Width: 981
VWidth: 0
Flags: W
HStem: -24 175<280.016 445.328> -24 147<643.5 830.58> 741 160<180.876 339.5>
VStem: 166 167<79.5 495.211> 234 164<433.586 831.312> 588 156<63 433.388> 932 41<241.233 253.441>
DStem2: 140.252 -26 295.29 -26 0.121869 0.992546<279.309 710.28>
LayerCount: 2
Fore
SplineSet
622 529 m 1xb6
 625 807 666 901 780 901 c 0
 793 901 807 901 822 898 c 1
 836 871 l 1
 767 486 l 1
 750 284 l 2
 747 242 744 208 744 185 c 0
 744 130 757 123 783 123 c 0
 819 123 893 201 932 271 c 1
 973 244 l 1
 918 56 812 -24 676 -24 c 0
 611 -24 588 29 588 97 c 0
 588 149 601 209 616 263 c 1
 604 266 l 1
 542 94 442 -26 315 -26 c 0
 224 -26 166 29 166 130 c 0x76
 166 159 169 221 175 257 c 2
 227 604 l 2
 230 633 234 660 234 679 c 0
 234 721 223 741 200 741 c 0
 164 741 104 667 55 594 c 1
 8 625 l 1
 62 768 185 901 302 901 c 0
 377 901 398 851 398 773 c 0x6e
 398 715 385 640 374 564 c 2
 346 387 l 2
 333 311 333 246 333 231 c 0
 333 163 355 151 387 151 c 0
 478 151 555 240 622 529 c 1xb6
884 8 m 1
 884 8 l 1
491 926 m 1
 491 926 l 1
884 8 m 1
 884 8 l 1
491 926 m 1
 491 926 l 1
812 16 m 0
562 926 m 0
EndSplineSet
EndChar

StartChar: underscore
Encoding: 95 95 344
Width: 878
VWidth: 0
Flags: W
HStem: -135 107<32 846>
LayerCount: 2
Fore
SplineSet
32 -28 m 1
 871 -28 l 1
 846 -135 l 1
 8 -135 l 1
 32 -28 l 1
EndSplineSet
EndChar

StartChar: v
Encoding: 118 118 347
Width: 805
VWidth: 0
Flags: W
HStem: -21 112<311 523.831> 737 153<188.533 344.5>
VStem: 190 161<124.895 702.524> 232 161<282.408 814.275> 676 123<388.444 746.828>
DStem2: 151.324 -21 304.185 -21 0.121869 0.992546<353.225 695.694>
LayerCount: 2
Fore
SplineSet
356 401 m 2xd8
 353 369 351 338 351 309 c 0
 351 176 391 91 461 91 c 0
 601 91 676 347 676 547 c 0
 676 716 605 799 551 848 c 1
 577 877 614 898 663 898 c 0
 760 898 799 791 799 690 c 0
 799 375 641 -21 380 -21 c 0
 242 -21 190 94 190 253 c 0xe8
 190 284 194 317 197 351 c 2
 227 594 l 2
 230 625 232 650 232 671 c 0
 232 713 224 737 201 737 c 0
 165 737 109 654 55 581 c 1
 8 614 l 1
 66 757 195 890 312 890 c 0
 377 890 393 828 393 747 c 0
 393 663 375 555 367 482 c 2
 356 401 l 2xd8
EndSplineSet
EndChar

StartChar: w
Encoding: 119 119 348
Width: 1154
VWidth: 0
Flags: W
HStem: -26 143<243 452.243 679 871.722> 763 153<200 385.96>
VStem: 136 164<132.925 443.914> 240 186<630.534 869.146> 598 136<139.745 193 254.597 532.612> 1025 122<386.351 747.887>
DStem2: 159 352 318 387 0.232275 0.97265<-64.6735 381.39>
LayerCount: 2
Fore
SplineSet
159 352 m 2xec
 223 620 l 2
 233 662 240 700 240 726 c 0
 240 749 234 763 218 763 c 0
 182 763 112 682 49 609 c 1
 8 640 l 1
 86 783 234 916 351 916 c 0
 406 916 426 884 426 835 c 0xdc
 426 767 388 662 367 578 c 2
 318 387 l 2
 305 338 300 289 300 250 c 0
 300 169 330 117 403 117 c 0
 494 117 572 192 601 486 c 1
 598 533 598 575 598 611 c 0
 598 786 640 841 731 841 c 0
 746 841 760 841 778 838 c 1
 789 820 l 1
 731 458 l 1
 734 284 l 2
 737 157 796 107 835 107 c 0
 955 107 1025 351 1025 536 c 0
 1025 672 962 803 923 861 c 1
 952 884 988 903 1033 903 c 0
 1109 903 1147 785 1147 702 c 0
 1147 380 1000 -24 734 -24 c 0
 624 -24 593 63 593 169 c 0
 593 177 594 185 594 193 c 1
 581 197 l 1
 536 54 426 -26 299 -26 c 0
 187 -26 136 49 136 179 c 0
 136 228 144 287 159 352 c 2xec
578 926 m 1
 578 926 l 1
578 926 m 1
 578 926 l 1
713 926 m 0
EndSplineSet
EndChar

StartChar: x
Encoding: 120 120 353
Width: 873
VWidth: 0
Flags: W
HStem: -34 193<40.1142 210.306> -23 137<547 709.982> 685 189<677.15 837.995> 734 151<209.6 372>
DStem2: 494 565 367 403 0.298707 -0.954345<-237.309 0 49.2456 163.651 223.213 479.57>
LayerCount: 2
Fore
SplineSet
577 -23 m 0x60
 517 -23 474 35 445 132 c 1
 401 302 l 1
 302 86 207 -34 110 -34 c 0
 35 -34 8 25 8 70 c 0
 8 112 18 166 55 198 c 1
 81 175 130 159 159 159 c 0
 227 159 302 241 367 403 c 1
 318 569 282 734 237 734 c 0
 201 734 164 664 125 594 c 1
 78 632 l 1
 123 755 200 885 330 885 c 0x90
 414 885 445 747 494 565 c 1
 572 727 681 874 767 874 c 0
 829 874 867 834 867 789 c 0
 867 729 848 688 822 659 c 1
 796 682 753 685 721 685 c 0
 641 685 575 598 523 476 c 1
 612 188 l 2
 625 149 637 114 663 114 c 0
 699 114 751 161 796 237 c 1
 838 208 l 1
 791 80 707 -23 577 -23 c 0x60
EndSplineSet
EndChar

StartChar: y
Encoding: 121 121 354
Width: 841
VWidth: 0
Flags: W
HStem: -383 170<109.198 290.651> 0 21G<467.716 590> 752 153<166.862 324.5>
VStem: 370 134<-118.681 383.133> 679 156<497.196 729.47>
DStem2: 435 695 296 612 0.12841 -0.991721<-68.7681 580.725>
LayerCount: 2
Fore
SplineSet
487 162 m 1
 510 162 l 1
 676 411 679 463 679 583 c 0
 679 680 599 801 544 851 c 1
 567 879 620 910 669 910 c 0
 763 910 835 811 835 710 c 0
 835 502 715 318 465 0 c 1
 487 162 l 1
201 752 m 0
 159 752 94 664 57 594 c 1
 8 632 l 1
 50 755 162 905 279 905 c 0
 370 905 416 840 435 695 c 2
 497 206 l 2
 500 177 504 146 504 117 c 0
 504 -149 346 -383 151 -383 c 0
 81 -383 10 -341 10 -271 c 2
 10 -266 l 1
 13 -212 26 -182 75 -141 c 1
 106 -170 167 -213 221 -213 c 0
 320 -213 370 -172 370 -24 c 0
 370 15 367 56 361 110 c 2
 296 612 l 2
 285 703 242 752 201 752 c 0
422 926 m 1
 422 926 l 1
422 926 m 1
 422 926 l 1
512 926 m 0
EndSplineSet
EndChar

StartChar: yen
Encoding: 165 165 358
Width: 1062
VWidth: 0
Flags: W
HStem: 0 78<149 176.597 623.192 637> 244 97<32 322 523 828> 486 99<65 335 581 861> 1181 76<44 67.3733 436.273 487 655 687.565 988.213 1036>
DStem2: 349 1142 153 1139 0.312109 -0.950046<0 523.386> 507 643 581 585 0.503967 0.863723<0 570.525>
LayerCount: 2
Fore
SplineSet
351 486 m 1
 42 486 l 1
 65 585 l 1
 335 585 l 1
 153 1139 l 1
 23 1181 l 1
 44 1257 l 1
 510 1257 l 1
 487 1181 l 1
 349 1142 l 1
 507 643 l 1
 789 1139 l 1
 635 1181 l 1
 655 1257 l 1
 1056 1257 l 1
 1036 1181 l 1
 906 1142 l 1
 581 585 l 1
 884 585 l 1
 861 486 l 1
 542 486 l 1
 523 341 l 1
 851 341 l 1
 828 244 l 1
 512 244 l 1
 495 114 l 1
 656 78 l 1
 637 0 l 1
 130 0 l 1
 149 71 l 1
 307 120 l 1
 322 244 l 1
 8 244 l 1
 32 341 l 1
 335 341 l 1
 351 486 l 1
EndSplineSet
EndChar

StartChar: z
Encoding: 122 122 360
Width: 726
VWidth: 0
Flags: W
HStem: -13 68<363.823 530.702>
VStem: 54 169<593.003 793.59>
DStem2: -19 26 223 114 0.580511 0.814252<212.138 911.266>
LayerCount: 2
Fore
SplineSet
422 416 m 1
 742 858 l 1
 724 887 l 1
 687 874 650 865 611 862 c 0
 569 859 526 859 484 862 c 0
 455 865 425 871 396 874 c 0
 365 879 336 882 305 880 c 0
 279 878 251 874 227 866 c 0
 196 856 169 843 141 825 c 0
 113 807 88 788 70 762 c 0
 59 746 48 726 45 705 c 0
 42 684 46 662 54 643 c 0
 64 622 78 604 99 593 c 0
 120 582 144 577 167 577 c 0
 186 577 205 579 223 585 c 1
 215 624 211 663 213 702 c 0
 215 731 216 758 229 784 c 0
 234 794 240 804 250 810 c 0
 260 816 272 819 283 819 c 0
 294 819 307 815 318 812 c 0
 342 804 366 794 390 786 c 0
 413 778 437 770 461 767 c 0
 477 765 494 765 510 768 c 1
 252 396 l 1
 -19 26 l 1
 0 -2 l 1
 68 16 142 19 213 13 c 0
 252 10 289 3 328 -3 c 0
 370 -9 414 -16 456 -13 c 0
 510 -10 564 8 606 42 c 0
 632 63 655 91 671 120 c 0
 689 152 697 190 697 227 c 0
 697 240 697 252 692 265 c 0
 687 278 680 289 672 299 c 0
 659 312 642 322 624 325 c 0
 606 328 586 328 568 325 c 0
 547 322 527 314 508 304 c 1
 521 268 530 230 536 193 c 0
 541 164 545 135 539 107 c 0
 537 97 534 89 528 81 c 0
 523 73 515 66 507 63 c 0
 499 60 489 55 479 55 c 0
 460 53 442 59 424 65 c 0
 406 71 388 80 370 86 c 0
 334 101 298 113 261 115 c 0
 248 115 236 116 223 114 c 1
 422 416 l 1
489 926 m 0
EndSplineSet
EndChar

StartChar: zero
Encoding: 48 48 364
Width: 854
VWidth: 0
Flags: W
LayerCount: 2
Fore
SplineSet
489 1163 m 0
 554 1160 617 1133 666 1091 c 0
 715 1049 755 994 783 936 c 0
 840 816 855 679 845 546 c 0
 835 418 795 289 724 182 c 0
 692 133 653 88 604 52 c 0
 555 16 499 -11 439 -19 c 0
 371 -29 302 -16 242 16 c 0
 169 55 111 123 75 198 c 0
 39 273 21 356 13 439 c 0
 5 528 9 617 28 705 c 0
 54 819 108 927 184 1015 c 0
 223 1059 266 1100 318 1126 c 0
 370 1152 431 1166 489 1163 c 0
357 1036 m 0
 318 1028 279 1006 253 975 c 0
 227 944 209 906 198 867 c 0
 159 735 161 593 190 458 c 0
 205 387 231 317 263 252 c 0
 279 220 299 188 325 162 c 0
 351 136 381 117 413 107 c 0
 445 97 485 97 517 107 c 0
 556 120 589 146 612 182 c 0
 635 218 649 260 659 299 c 0
 688 413 696 533 677 650 c 0
 667 712 649 768 625 825 c 0
 602 877 575 927 536 968 c 0
 513 992 486 1014 455 1027 c 0
 424 1040 389 1042 357 1036 c 0
EndSplineSet
EndChar
